<svg width="768" height="97" viewBox="0 0 768 97" fill="none" xmlns="http://www.w3.org/2000/svg">
<rect x="0.5" y="0.5" width="199" height="63" rx="15.5" stroke="#555555"/>
<path d="M44.4969 36.736L44.4889 38H37.4249V26.536H44.4889V27.8H38.9769V31.608H43.4409V32.824H38.9769V36.736H44.4969ZM47.4486 31.072C47.6246 30.8747 47.8112 30.696 48.0086 30.536C48.2059 30.376 48.4139 30.24 48.6326 30.128C48.8566 30.0107 49.0912 29.9227 49.3366 29.864C49.5872 29.8 49.8566 29.768 50.1446 29.768C50.5872 29.768 50.9766 29.8427 51.3126 29.992C51.6539 30.136 51.9366 30.344 52.1606 30.616C52.3899 30.8827 52.5632 31.2053 52.6806 31.584C52.7979 31.9627 52.8566 32.3813 52.8566 32.84V38H51.4246V32.84C51.4246 32.2267 51.2832 31.752 51.0006 31.416C50.7232 31.0747 50.2992 30.904 49.7286 30.904C49.3072 30.904 48.9126 31.0053 48.5446 31.208C48.1819 31.4107 47.8459 31.6853 47.5366 32.032V38H46.1046V29.896H46.9606C47.1632 29.896 47.2886 29.9947 47.3366 30.192L47.4486 31.072ZM60.6664 31.336C60.6238 31.3947 60.5811 31.44 60.5384 31.472C60.4958 31.504 60.4371 31.52 60.3624 31.52C60.2824 31.52 60.1944 31.488 60.0984 31.424C60.0024 31.3547 59.8824 31.28 59.7384 31.2C59.5998 31.12 59.4264 31.048 59.2184 30.984C59.0158 30.9147 58.7651 30.88 58.4664 30.88C58.0664 30.88 57.7144 30.952 57.4104 31.096C57.1064 31.2347 56.8504 31.4373 56.6424 31.704C56.4398 31.9707 56.2851 32.2933 56.1784 32.672C56.0771 33.0507 56.0264 33.4747 56.0264 33.944C56.0264 34.4347 56.0824 34.872 56.1944 35.256C56.3064 35.6347 56.4638 35.9547 56.6664 36.216C56.8744 36.472 57.1224 36.6693 57.4104 36.808C57.7038 36.9413 58.0318 37.008 58.3944 37.008C58.7411 37.008 59.0264 36.968 59.2504 36.888C59.4744 36.8027 59.6584 36.7093 59.8024 36.608C59.9518 36.5067 60.0744 36.416 60.1704 36.336C60.2718 36.2507 60.3704 36.208 60.4664 36.208C60.5838 36.208 60.6744 36.2533 60.7384 36.344L61.1384 36.864C60.9624 37.0827 60.7624 37.2693 60.5384 37.424C60.3144 37.5787 60.0718 37.7093 59.8104 37.816C59.5544 37.9173 59.2851 37.992 59.0024 38.04C58.7198 38.088 58.4318 38.112 58.1384 38.112C57.6318 38.112 57.1598 38.0187 56.7224 37.832C56.2904 37.6453 55.9144 37.376 55.5944 37.024C55.2744 36.6667 55.0238 36.2293 54.8424 35.712C54.6611 35.1947 54.5704 34.6053 54.5704 33.944C54.5704 33.3413 54.6531 32.784 54.8184 32.272C54.9891 31.76 55.2344 31.32 55.5544 30.952C55.8798 30.5787 56.2771 30.288 56.7464 30.08C57.2211 29.872 57.7651 29.768 58.3784 29.768C58.9491 29.768 59.4504 29.8613 59.8824 30.048C60.3198 30.2293 60.7064 30.488 61.0424 30.824L60.6664 31.336ZM64.0191 31.52C64.2751 30.9653 64.5897 30.5333 64.9631 30.224C65.3364 29.9093 65.7924 29.752 66.3311 29.752C66.5017 29.752 66.6644 29.7707 66.8191 29.808C66.9791 29.8453 67.1204 29.904 67.2431 29.984L67.1391 31.048C67.1071 31.1813 67.0271 31.248 66.8991 31.248C66.8244 31.248 66.7151 31.232 66.5711 31.2C66.4271 31.168 66.2644 31.152 66.0831 31.152C65.8271 31.152 65.5977 31.1893 65.3951 31.264C65.1977 31.3387 65.0191 31.4507 64.8591 31.6C64.7044 31.744 64.5631 31.9253 64.4351 32.144C64.3124 32.3573 64.2004 32.6027 64.0991 32.88V38H62.6671V29.896H63.4831C63.6377 29.896 63.7444 29.9253 63.8031 29.984C63.8617 30.0427 63.9017 30.144 63.9231 30.288L64.0191 31.52ZM75.4872 29.896L70.9672 40.392C70.9192 40.4987 70.8579 40.584 70.7832 40.648C70.7139 40.712 70.6045 40.744 70.4552 40.744H69.3992L70.8792 37.528L67.5352 29.896H68.7672C68.8899 29.896 68.9859 29.928 69.0552 29.992C69.1299 30.0507 69.1805 30.1173 69.2072 30.192L71.3752 35.296C71.4605 35.52 71.5325 35.7547 71.5912 36C71.6659 35.7493 71.7459 35.512 71.8312 35.288L73.9352 30.192C73.9672 30.1067 74.0205 30.0373 74.0952 29.984C74.1752 29.9253 74.2632 29.896 74.3592 29.896H75.4872ZM78.1772 36.048C78.4385 36.4 78.7239 36.648 79.0332 36.792C79.3425 36.936 79.6892 37.008 80.0732 37.008C80.8305 37.008 81.4119 36.7387 81.8172 36.2C82.2225 35.6613 82.4252 34.8933 82.4252 33.896C82.4252 33.368 82.3772 32.9147 82.2812 32.536C82.1905 32.1573 82.0572 31.848 81.8812 31.608C81.7052 31.3627 81.4892 31.184 81.2332 31.072C80.9772 30.96 80.6865 30.904 80.3612 30.904C79.8972 30.904 79.4892 31.0107 79.1372 31.224C78.7905 31.4373 78.4705 31.7387 78.1772 32.128V36.048ZM78.1052 31.152C78.4465 30.7307 78.8412 30.392 79.2892 30.136C79.7372 29.88 80.2492 29.752 80.8252 29.752C81.2945 29.752 81.7185 29.8427 82.0972 30.024C82.4759 30.2 82.7985 30.464 83.0652 30.816C83.3319 31.1627 83.5372 31.5947 83.6812 32.112C83.8252 32.6293 83.8972 33.224 83.8972 33.896C83.8972 34.4933 83.8172 35.0507 83.6572 35.568C83.4972 36.08 83.2652 36.5253 82.9612 36.904C82.6625 37.2773 82.2945 37.5733 81.8572 37.792C81.4252 38.0053 80.9372 38.112 80.3932 38.112C79.8972 38.112 79.4705 38.0293 79.1132 37.864C78.7612 37.6933 78.4492 37.4587 78.1772 37.16V40.744H76.7452V29.896H77.6012C77.8039 29.896 77.9292 29.9947 77.9772 30.192L78.1052 31.152ZM93.1246 38H91.7006V31.088H87.5246V35.952C87.5246 36.2933 87.6072 36.5467 87.7726 36.712C87.9379 36.8773 88.1512 36.96 88.4126 36.96C88.5619 36.96 88.6899 36.9413 88.7966 36.904C88.9086 36.8613 89.0046 36.816 89.0846 36.768C89.1646 36.72 89.2312 36.6773 89.2846 36.64C89.3432 36.5973 89.3939 36.576 89.4366 36.576C89.5112 36.576 89.5779 36.6213 89.6366 36.712L90.0526 37.392C89.8072 37.6213 89.5112 37.8027 89.1646 37.936C88.8179 38.064 88.4606 38.128 88.0926 38.128C87.4526 38.128 86.9592 37.9493 86.6126 37.592C86.2712 37.2347 86.1006 36.72 86.1006 36.048V31.088H85.1246C85.0392 31.088 84.9672 31.064 84.9086 31.016C84.8499 30.9627 84.8206 30.8827 84.8206 30.776V30.208L86.1486 30.032L86.4766 27.536C86.4926 27.456 86.5272 27.392 86.5806 27.344C86.6392 27.2907 86.7139 27.264 86.8046 27.264H87.5246V30.056H93.1246V38ZM93.4766 27.296C93.4766 27.4347 93.4472 27.5653 93.3886 27.688C93.3352 27.8053 93.2606 27.9093 93.1646 28C93.0739 28.0907 92.9672 28.1627 92.8446 28.216C92.7219 28.2693 92.5912 28.296 92.4526 28.296C92.3139 28.296 92.1832 28.2693 92.0606 28.216C91.9432 28.1627 91.8392 28.0907 91.7486 28C91.6579 27.9093 91.5859 27.8053 91.5326 27.688C91.4792 27.5653 91.4526 27.4347 91.4526 27.296C91.4526 27.1573 91.4792 27.0267 91.5326 26.904C91.5859 26.776 91.6579 26.6667 91.7486 26.576C91.8392 26.48 91.9432 26.4053 92.0606 26.352C92.1832 26.2987 92.3139 26.272 92.4526 26.272C92.5912 26.272 92.7219 26.2987 92.8446 26.352C92.9672 26.4053 93.0739 26.48 93.1646 26.576C93.2606 26.6667 93.3352 26.776 93.3886 26.904C93.4472 27.0267 93.4766 27.1573 93.4766 27.296ZM98.8799 29.768C99.4719 29.768 100.005 29.8667 100.48 30.064C100.955 30.2613 101.36 30.5413 101.696 30.904C102.032 31.2667 102.288 31.7067 102.464 32.224C102.645 32.736 102.736 33.3093 102.736 33.944C102.736 34.584 102.645 35.16 102.464 35.672C102.288 36.184 102.032 36.6213 101.696 36.984C101.36 37.3467 100.955 37.6267 100.48 37.824C100.005 38.016 99.4719 38.112 98.8799 38.112C98.2826 38.112 97.7439 38.016 97.2639 37.824C96.7893 37.6267 96.3839 37.3467 96.0479 36.984C95.7119 36.6213 95.4533 36.184 95.2719 35.672C95.0959 35.16 95.0079 34.584 95.0079 33.944C95.0079 33.3093 95.0959 32.736 95.2719 32.224C95.4533 31.7067 95.7119 31.2667 96.0479 30.904C96.3839 30.5413 96.7893 30.2613 97.2639 30.064C97.7439 29.8667 98.2826 29.768 98.8799 29.768ZM98.8799 37C99.6799 37 100.277 36.7333 100.672 36.2C101.067 35.6613 101.264 34.912 101.264 33.952C101.264 32.9867 101.067 32.2347 100.672 31.696C100.277 31.1573 99.6799 30.888 98.8799 30.888C98.4746 30.888 98.1199 30.9573 97.8159 31.096C97.5173 31.2347 97.2666 31.4347 97.0639 31.696C96.8666 31.9573 96.7173 32.28 96.6159 32.664C96.5199 33.0427 96.4719 33.472 96.4719 33.952C96.4719 34.912 96.6693 35.6613 97.0639 36.2C97.4639 36.7333 98.0693 37 98.8799 37ZM105.886 31.072C106.062 30.8747 106.249 30.696 106.446 30.536C106.643 30.376 106.851 30.24 107.07 30.128C107.294 30.0107 107.529 29.9227 107.774 29.864C108.025 29.8 108.294 29.768 108.582 29.768C109.025 29.768 109.414 29.8427 109.75 29.992C110.091 30.136 110.374 30.344 110.598 30.616C110.827 30.8827 111.001 31.2053 111.118 31.584C111.235 31.9627 111.294 32.3813 111.294 32.84V38H109.862V32.84C109.862 32.2267 109.721 31.752 109.438 31.416C109.161 31.0747 108.737 30.904 108.166 30.904C107.745 30.904 107.35 31.0053 106.982 31.208C106.619 31.4107 106.283 31.6853 105.974 32.032V38H104.542V29.896H105.398C105.601 29.896 105.726 29.9947 105.774 30.192L105.886 31.072ZM123.758 28.328C123.71 28.408 123.656 28.4693 123.598 28.512C123.544 28.5493 123.478 28.568 123.398 28.568C123.307 28.568 123.2 28.5227 123.078 28.432C122.955 28.3413 122.8 28.2427 122.614 28.136C122.432 28.024 122.211 27.9227 121.95 27.832C121.694 27.7413 121.382 27.696 121.014 27.696C120.667 27.696 120.36 27.744 120.094 27.84C119.832 27.9307 119.611 28.056 119.43 28.216C119.254 28.376 119.12 28.5653 119.03 28.784C118.939 28.9973 118.894 29.2293 118.894 29.48C118.894 29.8 118.971 30.0667 119.126 30.28C119.286 30.488 119.494 30.6667 119.75 30.816C120.011 30.9653 120.304 31.096 120.63 31.208C120.96 31.3147 121.296 31.4267 121.638 31.544C121.984 31.6613 122.32 31.7947 122.646 31.944C122.976 32.088 123.27 32.272 123.526 32.496C123.787 32.72 123.995 32.9947 124.15 33.32C124.31 33.6453 124.39 34.0453 124.39 34.52C124.39 35.0213 124.304 35.4933 124.134 35.936C123.963 36.3733 123.712 36.7547 123.382 37.08C123.056 37.4053 122.654 37.6613 122.174 37.848C121.699 38.0347 121.158 38.128 120.55 38.128C119.803 38.128 119.126 37.9947 118.518 37.728C117.91 37.456 117.39 37.0907 116.958 36.632L117.406 35.896C117.448 35.8373 117.499 35.7893 117.558 35.752C117.622 35.7093 117.691 35.688 117.766 35.688C117.835 35.688 117.912 35.7173 117.998 35.776C118.088 35.8293 118.19 35.8987 118.302 35.984C118.414 36.0693 118.542 36.1627 118.686 36.264C118.83 36.3653 118.992 36.4587 119.174 36.544C119.36 36.6293 119.571 36.7013 119.806 36.76C120.04 36.8133 120.304 36.84 120.598 36.84C120.966 36.84 121.294 36.7893 121.582 36.688C121.87 36.5867 122.112 36.4453 122.31 36.264C122.512 36.0773 122.667 35.856 122.774 35.6C122.88 35.344 122.934 35.0587 122.934 34.744C122.934 34.3973 122.854 34.1147 122.694 33.896C122.539 33.672 122.334 33.4853 122.078 33.336C121.822 33.1867 121.528 33.0613 121.198 32.96C120.867 32.8533 120.531 32.7467 120.19 32.64C119.848 32.528 119.512 32.4 119.182 32.256C118.851 32.112 118.558 31.9253 118.302 31.696C118.046 31.4667 117.838 31.1813 117.678 30.84C117.523 30.4933 117.446 30.0667 117.446 29.56C117.446 29.1547 117.523 28.7627 117.678 28.384C117.838 28.0053 118.067 27.6693 118.366 27.376C118.67 27.0827 119.04 26.848 119.478 26.672C119.92 26.496 120.427 26.408 120.998 26.408C121.638 26.408 122.219 26.5093 122.742 26.712C123.27 26.9147 123.734 27.208 124.134 27.592L123.758 28.328ZM131.838 31.336C131.796 31.3947 131.753 31.44 131.71 31.472C131.668 31.504 131.609 31.52 131.534 31.52C131.454 31.52 131.366 31.488 131.27 31.424C131.174 31.3547 131.054 31.28 130.91 31.2C130.772 31.12 130.598 31.048 130.39 30.984C130.188 30.9147 129.937 30.88 129.638 30.88C129.238 30.88 128.886 30.952 128.582 31.096C128.278 31.2347 128.022 31.4373 127.814 31.704C127.612 31.9707 127.457 32.2933 127.35 32.672C127.249 33.0507 127.198 33.4747 127.198 33.944C127.198 34.4347 127.254 34.872 127.366 35.256C127.478 35.6347 127.636 35.9547 127.838 36.216C128.046 36.472 128.294 36.6693 128.582 36.808C128.876 36.9413 129.204 37.008 129.566 37.008C129.913 37.008 130.198 36.968 130.422 36.888C130.646 36.8027 130.83 36.7093 130.974 36.608C131.124 36.5067 131.246 36.416 131.342 36.336C131.444 36.2507 131.542 36.208 131.638 36.208C131.756 36.208 131.846 36.2533 131.91 36.344L132.31 36.864C132.134 37.0827 131.934 37.2693 131.71 37.424C131.486 37.5787 131.244 37.7093 130.982 37.816C130.726 37.9173 130.457 37.992 130.174 38.04C129.892 38.088 129.604 38.112 129.31 38.112C128.804 38.112 128.332 38.0187 127.894 37.832C127.462 37.6453 127.086 37.376 126.766 37.024C126.446 36.6667 126.196 36.2293 126.014 35.712C125.833 35.1947 125.742 34.6053 125.742 33.944C125.742 33.3413 125.825 32.784 125.99 32.272C126.161 31.76 126.406 31.32 126.726 30.952C127.052 30.5787 127.449 30.288 127.918 30.08C128.393 29.872 128.937 29.768 129.55 29.768C130.121 29.768 130.622 29.8613 131.054 30.048C131.492 30.2293 131.878 30.488 132.214 30.824L131.838 31.336ZM135.191 31.52C135.447 30.9653 135.762 30.5333 136.135 30.224C136.508 29.9093 136.964 29.752 137.503 29.752C137.674 29.752 137.836 29.7707 137.991 29.808C138.151 29.8453 138.292 29.904 138.415 29.984L138.311 31.048C138.279 31.1813 138.199 31.248 138.071 31.248C137.996 31.248 137.887 31.232 137.743 31.2C137.599 31.168 137.436 31.152 137.255 31.152C136.999 31.152 136.77 31.1893 136.567 31.264C136.37 31.3387 136.191 31.4507 136.031 31.6C135.876 31.744 135.735 31.9253 135.607 32.144C135.484 32.3573 135.372 32.6027 135.271 32.88V38H133.839V29.896H134.655C134.81 29.896 134.916 29.9253 134.975 29.984C135.034 30.0427 135.074 30.144 135.095 30.288L135.191 31.52ZM144.763 33.064C144.763 32.7333 144.715 32.432 144.619 32.16C144.528 31.8827 144.392 31.6453 144.211 31.448C144.035 31.2453 143.819 31.0907 143.563 30.984C143.307 30.872 143.016 30.816 142.691 30.816C142.008 30.816 141.467 31.016 141.067 31.416C140.672 31.8107 140.427 32.36 140.331 33.064H144.763ZM145.915 36.864C145.739 37.0773 145.528 37.264 145.283 37.424C145.038 37.5787 144.774 37.7067 144.491 37.808C144.214 37.9093 143.926 37.984 143.627 38.032C143.328 38.0853 143.032 38.112 142.739 38.112C142.179 38.112 141.662 38.0187 141.187 37.832C140.718 37.64 140.31 37.3627 139.963 37C139.622 36.632 139.355 36.1787 139.163 35.64C138.971 35.1013 138.875 34.4827 138.875 33.784C138.875 33.2187 138.96 32.6907 139.131 32.2C139.307 31.7093 139.558 31.2853 139.883 30.928C140.208 30.5653 140.606 30.2827 141.075 30.08C141.544 29.872 142.072 29.768 142.659 29.768C143.144 29.768 143.592 29.8507 144.003 30.016C144.419 30.176 144.776 30.4107 145.075 30.72C145.379 31.024 145.616 31.4027 145.787 31.856C145.958 32.304 146.043 32.816 146.043 33.392C146.043 33.616 146.019 33.7653 145.971 33.84C145.923 33.9147 145.832 33.952 145.699 33.952H140.283C140.299 34.464 140.368 34.9093 140.491 35.288C140.619 35.6667 140.795 35.984 141.019 36.24C141.243 36.4907 141.51 36.68 141.819 36.808C142.128 36.9307 142.475 36.992 142.859 36.992C143.216 36.992 143.523 36.952 143.779 36.872C144.04 36.7867 144.264 36.696 144.451 36.6C144.638 36.504 144.792 36.416 144.915 36.336C145.043 36.2507 145.152 36.208 145.243 36.208C145.36 36.208 145.451 36.2533 145.515 36.344L145.915 36.864ZM153.216 33.064C153.216 32.7333 153.168 32.432 153.072 32.16C152.981 31.8827 152.845 31.6453 152.664 31.448C152.488 31.2453 152.272 31.0907 152.016 30.984C151.76 30.872 151.469 30.816 151.144 30.816C150.461 30.816 149.92 31.016 149.52 31.416C149.125 31.8107 148.88 32.36 148.784 33.064H153.216ZM154.368 36.864C154.192 37.0773 153.981 37.264 153.736 37.424C153.491 37.5787 153.227 37.7067 152.944 37.808C152.667 37.9093 152.379 37.984 152.08 38.032C151.781 38.0853 151.485 38.112 151.192 38.112C150.632 38.112 150.115 38.0187 149.64 37.832C149.171 37.64 148.763 37.3627 148.416 37C148.075 36.632 147.808 36.1787 147.616 35.64C147.424 35.1013 147.328 34.4827 147.328 33.784C147.328 33.2187 147.413 32.6907 147.584 32.2C147.76 31.7093 148.011 31.2853 148.336 30.928C148.661 30.5653 149.059 30.2827 149.528 30.08C149.997 29.872 150.525 29.768 151.112 29.768C151.597 29.768 152.045 29.8507 152.456 30.016C152.872 30.176 153.229 30.4107 153.528 30.72C153.832 31.024 154.069 31.4027 154.24 31.856C154.411 32.304 154.496 32.816 154.496 33.392C154.496 33.616 154.472 33.7653 154.424 33.84C154.376 33.9147 154.285 33.952 154.152 33.952H148.736C148.752 34.464 148.821 34.9093 148.944 35.288C149.072 35.6667 149.248 35.984 149.472 36.24C149.696 36.4907 149.963 36.68 150.272 36.808C150.581 36.9307 150.928 36.992 151.312 36.992C151.669 36.992 151.976 36.952 152.232 36.872C152.493 36.7867 152.717 36.696 152.904 36.6C153.091 36.504 153.245 36.416 153.368 36.336C153.496 36.2507 153.605 36.208 153.696 36.208C153.813 36.208 153.904 36.2533 153.968 36.344L154.368 36.864ZM157.589 31.072C157.765 30.8747 157.952 30.696 158.149 30.536C158.347 30.376 158.555 30.24 158.773 30.128C158.997 30.0107 159.232 29.9227 159.477 29.864C159.728 29.8 159.997 29.768 160.285 29.768C160.728 29.768 161.117 29.8427 161.453 29.992C161.795 30.136 162.077 30.344 162.301 30.616C162.531 30.8827 162.704 31.2053 162.821 31.584C162.939 31.9627 162.997 32.3813 162.997 32.84V38H161.565V32.84C161.565 32.2267 161.424 31.752 161.141 31.416C160.864 31.0747 160.44 30.904 159.869 30.904C159.448 30.904 159.053 31.0053 158.685 31.208C158.323 31.4107 157.987 31.6853 157.677 32.032V38H156.245V29.896H157.101C157.304 29.896 157.429 29.9947 157.477 30.192L157.589 31.072Z" fill="white"/>
<path d="M199.646 31.6464C199.451 31.8417 199.451 32.1583 199.646 32.3536L202.828 35.5355C203.024 35.7308 203.34 35.7308 203.536 35.5355C203.731 35.3403 203.731 35.0237 203.536 34.8284L200.707 32L203.536 29.1716C203.731 28.9763 203.731 28.6597 203.536 28.4645C203.34 28.2692 203.024 28.2692 202.828 28.4645L199.646 31.6464ZM284.354 32.3536C284.549 32.1583 284.549 31.8417 284.354 31.6464L281.172 28.4645C280.976 28.2692 280.66 28.2692 280.464 28.4645C280.269 28.6597 280.269 28.9763 280.464 29.1716L283.293 32L280.464 34.8284C280.269 35.0237 280.269 35.3403 280.464 35.5355C280.66 35.7308 280.976 35.7308 281.172 35.5355L284.354 32.3536ZM200 32.5H284V31.5H200V32.5Z" fill="#555555"/>
<rect x="284.5" y="0.5" width="199" height="63" rx="15.5" stroke="#555555"/>
<path d="M303.063 31.56H303.647C303.849 31.56 304.012 31.536 304.135 31.488C304.257 31.4347 304.369 31.3467 304.471 31.224L308.287 26.904C308.393 26.7653 308.505 26.6693 308.623 26.616C308.74 26.5627 308.884 26.536 309.055 26.536H310.367L305.999 31.472C305.892 31.6 305.788 31.7067 305.687 31.792C305.591 31.872 305.487 31.9387 305.375 31.992C305.519 32.04 305.649 32.112 305.767 32.208C305.884 32.2987 305.999 32.4187 306.111 32.568L310.671 38H309.327C309.225 38 309.137 37.9947 309.063 37.984C308.993 37.968 308.932 37.9467 308.879 37.92C308.825 37.888 308.777 37.8533 308.735 37.816C308.697 37.7733 308.66 37.7253 308.623 37.672L304.671 33.12C304.564 32.9867 304.449 32.8933 304.327 32.84C304.204 32.7813 304.017 32.752 303.767 32.752H303.063V38H301.519V26.536H303.063V31.56ZM316.591 33.064C316.591 32.7333 316.543 32.432 316.447 32.16C316.356 31.8827 316.22 31.6453 316.039 31.448C315.863 31.2453 315.647 31.0907 315.391 30.984C315.135 30.872 314.844 30.816 314.519 30.816C313.836 30.816 313.295 31.016 312.895 31.416C312.5 31.8107 312.255 32.36 312.159 33.064H316.591ZM317.743 36.864C317.567 37.0773 317.356 37.264 317.111 37.424C316.866 37.5787 316.602 37.7067 316.319 37.808C316.042 37.9093 315.754 37.984 315.455 38.032C315.156 38.0853 314.86 38.112 314.567 38.112C314.007 38.112 313.49 38.0187 313.015 37.832C312.546 37.64 312.138 37.3627 311.791 37C311.45 36.632 311.183 36.1787 310.991 35.64C310.799 35.1013 310.703 34.4827 310.703 33.784C310.703 33.2187 310.788 32.6907 310.959 32.2C311.135 31.7093 311.386 31.2853 311.711 30.928C312.036 30.5653 312.434 30.2827 312.903 30.08C313.372 29.872 313.9 29.768 314.487 29.768C314.972 29.768 315.42 29.8507 315.831 30.016C316.247 30.176 316.604 30.4107 316.903 30.72C317.207 31.024 317.444 31.4027 317.615 31.856C317.786 32.304 317.871 32.816 317.871 33.392C317.871 33.616 317.847 33.7653 317.799 33.84C317.751 33.9147 317.66 33.952 317.527 33.952H312.111C312.127 34.464 312.196 34.9093 312.319 35.288C312.447 35.6667 312.623 35.984 312.847 36.24C313.071 36.4907 313.338 36.68 313.647 36.808C313.956 36.9307 314.303 36.992 314.687 36.992C315.044 36.992 315.351 36.952 315.607 36.872C315.868 36.7867 316.092 36.696 316.279 36.6C316.466 36.504 316.62 36.416 316.743 36.336C316.871 36.2507 316.98 36.208 317.071 36.208C317.188 36.208 317.279 36.2533 317.343 36.344L317.743 36.864ZM326.409 29.896L321.889 40.392C321.841 40.4987 321.78 40.584 321.705 40.648C321.636 40.712 321.526 40.744 321.377 40.744H320.321L321.801 37.528L318.457 29.896H319.689C319.812 29.896 319.908 29.928 319.977 29.992C320.052 30.0507 320.102 30.1173 320.129 30.192L322.297 35.296C322.382 35.52 322.454 35.7547 322.513 36C322.588 35.7493 322.668 35.512 322.753 35.288L324.857 30.192C324.889 30.1067 324.942 30.0373 325.017 29.984C325.097 29.9253 325.185 29.896 325.281 29.896H326.409ZM332.246 31.232C332.182 31.3493 332.084 31.408 331.95 31.408C331.87 31.408 331.78 31.3787 331.678 31.32C331.577 31.2613 331.452 31.1973 331.302 31.128C331.158 31.0533 330.985 30.9867 330.782 30.928C330.58 30.864 330.34 30.832 330.062 30.832C329.822 30.832 329.606 30.864 329.414 30.928C329.222 30.9867 329.057 31.0693 328.918 31.176C328.785 31.2827 328.681 31.408 328.606 31.552C328.537 31.6907 328.502 31.8427 328.502 32.008C328.502 32.216 328.561 32.3893 328.678 32.528C328.801 32.6667 328.961 32.7867 329.158 32.888C329.356 32.9893 329.58 33.08 329.83 33.16C330.081 33.2347 330.337 33.3173 330.598 33.408C330.865 33.4933 331.124 33.5893 331.374 33.696C331.625 33.8027 331.849 33.936 332.046 34.096C332.244 34.256 332.401 34.4533 332.518 34.688C332.641 34.9173 332.702 35.1947 332.702 35.52C332.702 35.8933 332.636 36.24 332.502 36.56C332.369 36.8747 332.172 37.1493 331.91 37.384C331.649 37.6133 331.329 37.7947 330.95 37.928C330.572 38.0613 330.134 38.128 329.638 38.128C329.073 38.128 328.561 38.0373 328.102 37.856C327.644 37.6693 327.254 37.432 326.934 37.144L327.27 36.6C327.313 36.5307 327.364 36.4773 327.422 36.44C327.481 36.4027 327.556 36.384 327.646 36.384C327.742 36.384 327.844 36.4213 327.95 36.496C328.057 36.5707 328.185 36.6533 328.334 36.744C328.489 36.8347 328.676 36.9173 328.894 36.992C329.113 37.0667 329.385 37.104 329.71 37.104C329.988 37.104 330.23 37.0693 330.438 37C330.646 36.9253 330.82 36.8267 330.958 36.704C331.097 36.5813 331.198 36.44 331.262 36.28C331.332 36.12 331.366 35.9493 331.366 35.768C331.366 35.544 331.305 35.36 331.182 35.216C331.065 35.0667 330.908 34.9413 330.71 34.84C330.513 34.7333 330.286 34.6427 330.03 34.568C329.78 34.488 329.521 34.4053 329.254 34.32C328.993 34.2347 328.734 34.1387 328.478 34.032C328.228 33.92 328.004 33.7813 327.806 33.616C327.609 33.4507 327.449 33.248 327.326 33.008C327.209 32.7627 327.15 32.4667 327.15 32.12C327.15 31.8107 327.214 31.5147 327.342 31.232C327.47 30.944 327.657 30.6933 327.902 30.48C328.148 30.2613 328.449 30.088 328.806 29.96C329.164 29.832 329.572 29.768 330.03 29.768C330.564 29.768 331.041 29.8533 331.462 30.024C331.889 30.1893 332.257 30.4187 332.566 30.712L332.246 31.232ZM348.19 32.488V36.888C347.614 37.304 346.998 37.616 346.342 37.824C345.691 38.0267 344.977 38.128 344.198 38.128C343.275 38.128 342.443 37.9867 341.702 37.704C340.961 37.416 340.326 37.016 339.798 36.504C339.275 35.9867 338.873 35.368 338.59 34.648C338.307 33.928 338.166 33.136 338.166 32.272C338.166 31.3973 338.302 30.6 338.574 29.88C338.851 29.16 339.243 28.544 339.75 28.032C340.257 27.5147 340.873 27.1147 341.598 26.832C342.323 26.5493 343.134 26.408 344.03 26.408C344.483 26.408 344.905 26.4427 345.294 26.512C345.683 26.576 346.043 26.672 346.374 26.8C346.705 26.9227 347.011 27.0747 347.294 27.256C347.577 27.432 347.841 27.632 348.086 27.856L347.646 28.56C347.577 28.6667 347.486 28.736 347.374 28.768C347.267 28.7947 347.147 28.768 347.014 28.688C346.886 28.6133 346.739 28.5227 346.574 28.416C346.409 28.3093 346.206 28.208 345.966 28.112C345.731 28.0107 345.451 27.9253 345.126 27.856C344.806 27.7867 344.425 27.752 343.982 27.752C343.337 27.752 342.753 27.8587 342.23 28.072C341.707 28.28 341.262 28.5813 340.894 28.976C340.526 29.3653 340.243 29.84 340.046 30.4C339.849 30.9547 339.75 31.5787 339.75 32.272C339.75 32.992 339.851 33.6373 340.054 34.208C340.262 34.7733 340.555 35.256 340.934 35.656C341.318 36.0507 341.782 36.352 342.326 36.56C342.87 36.768 343.481 36.872 344.158 36.872C344.691 36.872 345.163 36.8133 345.574 36.696C345.99 36.5733 346.395 36.4053 346.79 36.192V33.672H345.006C344.905 33.672 344.822 33.6427 344.758 33.584C344.699 33.5253 344.67 33.4533 344.67 33.368V32.488H348.19ZM355.56 33.064C355.56 32.7333 355.512 32.432 355.416 32.16C355.325 31.8827 355.189 31.6453 355.008 31.448C354.832 31.2453 354.616 31.0907 354.36 30.984C354.104 30.872 353.813 30.816 353.488 30.816C352.805 30.816 352.264 31.016 351.864 31.416C351.469 31.8107 351.224 32.36 351.128 33.064H355.56ZM356.712 36.864C356.536 37.0773 356.325 37.264 356.08 37.424C355.834 37.5787 355.57 37.7067 355.288 37.808C355.01 37.9093 354.722 37.984 354.424 38.032C354.125 38.0853 353.829 38.112 353.536 38.112C352.976 38.112 352.458 38.0187 351.984 37.832C351.514 37.64 351.106 37.3627 350.76 37C350.418 36.632 350.152 36.1787 349.96 35.64C349.768 35.1013 349.672 34.4827 349.672 33.784C349.672 33.2187 349.757 32.6907 349.928 32.2C350.104 31.7093 350.354 31.2853 350.68 30.928C351.005 30.5653 351.402 30.2827 351.872 30.08C352.341 29.872 352.869 29.768 353.456 29.768C353.941 29.768 354.389 29.8507 354.8 30.016C355.216 30.176 355.573 30.4107 355.872 30.72C356.176 31.024 356.413 31.4027 356.584 31.856C356.754 32.304 356.84 32.816 356.84 33.392C356.84 33.616 356.816 33.7653 356.768 33.84C356.72 33.9147 356.629 33.952 356.496 33.952H351.08C351.096 34.464 351.165 34.9093 351.288 35.288C351.416 35.6667 351.592 35.984 351.816 36.24C352.04 36.4907 352.306 36.68 352.616 36.808C352.925 36.9307 353.272 36.992 353.656 36.992C354.013 36.992 354.32 36.952 354.576 36.872C354.837 36.7867 355.061 36.696 355.248 36.6C355.434 36.504 355.589 36.416 355.712 36.336C355.84 36.2507 355.949 36.208 356.04 36.208C356.157 36.208 356.248 36.2533 356.312 36.344L356.712 36.864ZM359.933 31.072C360.109 30.8747 360.296 30.696 360.493 30.536C360.69 30.376 360.898 30.24 361.117 30.128C361.341 30.0107 361.576 29.9227 361.821 29.864C362.072 29.8 362.341 29.768 362.629 29.768C363.072 29.768 363.461 29.8427 363.797 29.992C364.138 30.136 364.421 30.344 364.645 30.616C364.874 30.8827 365.048 31.2053 365.165 31.584C365.282 31.9627 365.341 32.3813 365.341 32.84V38H363.909V32.84C363.909 32.2267 363.768 31.752 363.485 31.416C363.208 31.0747 362.784 30.904 362.213 30.904C361.792 30.904 361.397 31.0053 361.029 31.208C360.666 31.4107 360.33 31.6853 360.021 32.032V38H358.589V29.896H359.445C359.648 29.896 359.773 29.9947 359.821 30.192L359.933 31.072ZM372.935 33.064C372.935 32.7333 372.887 32.432 372.791 32.16C372.7 31.8827 372.564 31.6453 372.383 31.448C372.207 31.2453 371.991 31.0907 371.735 30.984C371.479 30.872 371.188 30.816 370.863 30.816C370.18 30.816 369.639 31.016 369.239 31.416C368.844 31.8107 368.599 32.36 368.503 33.064H372.935ZM374.087 36.864C373.911 37.0773 373.7 37.264 373.455 37.424C373.209 37.5787 372.945 37.7067 372.663 37.808C372.385 37.9093 372.097 37.984 371.799 38.032C371.5 38.0853 371.204 38.112 370.911 38.112C370.351 38.112 369.833 38.0187 369.359 37.832C368.889 37.64 368.481 37.3627 368.135 37C367.793 36.632 367.527 36.1787 367.335 35.64C367.143 35.1013 367.047 34.4827 367.047 33.784C367.047 33.2187 367.132 32.6907 367.303 32.2C367.479 31.7093 367.729 31.2853 368.055 30.928C368.38 30.5653 368.777 30.2827 369.247 30.08C369.716 29.872 370.244 29.768 370.831 29.768C371.316 29.768 371.764 29.8507 372.175 30.016C372.591 30.176 372.948 30.4107 373.247 30.72C373.551 31.024 373.788 31.4027 373.959 31.856C374.129 32.304 374.215 32.816 374.215 33.392C374.215 33.616 374.191 33.7653 374.143 33.84C374.095 33.9147 374.004 33.952 373.871 33.952H368.455C368.471 34.464 368.54 34.9093 368.663 35.288C368.791 35.6667 368.967 35.984 369.191 36.24C369.415 36.4907 369.681 36.68 369.991 36.808C370.3 36.9307 370.647 36.992 371.031 36.992C371.388 36.992 371.695 36.952 371.951 36.872C372.212 36.7867 372.436 36.696 372.623 36.6C372.809 36.504 372.964 36.416 373.087 36.336C373.215 36.2507 373.324 36.208 373.415 36.208C373.532 36.208 373.623 36.2533 373.687 36.344L374.087 36.864ZM377.316 31.52C377.572 30.9653 377.887 30.5333 378.26 30.224C378.633 29.9093 379.089 29.752 379.628 29.752C379.799 29.752 379.961 29.7707 380.116 29.808C380.276 29.8453 380.417 29.904 380.54 29.984L380.436 31.048C380.404 31.1813 380.324 31.248 380.196 31.248C380.121 31.248 380.012 31.232 379.868 31.2C379.724 31.168 379.561 31.152 379.38 31.152C379.124 31.152 378.895 31.1893 378.692 31.264C378.495 31.3387 378.316 31.4507 378.156 31.6C378.001 31.744 377.86 31.9253 377.732 32.144C377.609 32.3573 377.497 32.6027 377.396 32.88V38H375.964V29.896H376.78C376.935 29.896 377.041 29.9253 377.1 29.984C377.159 30.0427 377.199 30.144 377.22 30.288L377.316 31.52ZM386.059 34.352C385.403 34.3733 384.843 34.4267 384.379 34.512C383.92 34.592 383.544 34.6987 383.251 34.832C382.963 34.9653 382.752 35.1227 382.619 35.304C382.491 35.4853 382.427 35.688 382.427 35.912C382.427 36.1253 382.462 36.3093 382.531 36.464C382.6 36.6187 382.694 36.7467 382.811 36.848C382.934 36.944 383.075 37.016 383.235 37.064C383.4 37.1067 383.576 37.128 383.763 37.128C384.014 37.128 384.243 37.104 384.451 37.056C384.659 37.0027 384.854 36.928 385.035 36.832C385.222 36.736 385.398 36.6213 385.563 36.488C385.734 36.3547 385.899 36.2027 386.059 36.032V34.352ZM381.459 31.04C381.907 30.608 382.39 30.2853 382.907 30.072C383.424 29.8587 383.998 29.752 384.627 29.752C385.08 29.752 385.483 29.8267 385.835 29.976C386.187 30.1253 386.483 30.3333 386.723 30.6C386.963 30.8667 387.144 31.1893 387.267 31.568C387.39 31.9467 387.451 32.3627 387.451 32.816V38H386.819C386.68 38 386.574 37.9787 386.499 37.936C386.424 37.888 386.366 37.7973 386.323 37.664L386.163 36.896C385.95 37.0933 385.742 37.2693 385.539 37.424C385.336 37.5733 385.123 37.7013 384.899 37.808C384.675 37.9093 384.435 37.9867 384.179 38.04C383.928 38.0987 383.648 38.128 383.339 38.128C383.024 38.128 382.728 38.0853 382.451 38C382.174 37.9093 381.931 37.776 381.723 37.6C381.52 37.424 381.358 37.2027 381.235 36.936C381.118 36.664 381.059 36.344 381.059 35.976C381.059 35.656 381.147 35.3493 381.323 35.056C381.499 34.7573 381.784 34.4933 382.179 34.264C382.574 34.0347 383.088 33.848 383.723 33.704C384.358 33.5547 385.136 33.4693 386.059 33.448V32.816C386.059 32.1867 385.923 31.712 385.651 31.392C385.379 31.0667 384.982 30.904 384.459 30.904C384.107 30.904 383.811 30.9493 383.571 31.04C383.336 31.1253 383.131 31.224 382.955 31.336C382.784 31.4427 382.635 31.5413 382.507 31.632C382.384 31.7173 382.262 31.76 382.139 31.76C382.043 31.76 381.96 31.736 381.891 31.688C381.822 31.6347 381.763 31.5707 381.715 31.496L381.459 31.04ZM397.031 38H395.607V31.088H391.431V35.952C391.431 36.2933 391.513 36.5467 391.679 36.712C391.844 36.8773 392.057 36.96 392.319 36.96C392.468 36.96 392.596 36.9413 392.703 36.904C392.815 36.8613 392.911 36.816 392.991 36.768C393.071 36.72 393.137 36.6773 393.191 36.64C393.249 36.5973 393.3 36.576 393.343 36.576C393.417 36.576 393.484 36.6213 393.543 36.712L393.959 37.392C393.713 37.6213 393.417 37.8027 393.071 37.936C392.724 38.064 392.367 38.128 391.999 38.128C391.359 38.128 390.865 37.9493 390.519 37.592C390.177 37.2347 390.007 36.72 390.007 36.048V31.088H389.031C388.945 31.088 388.873 31.064 388.815 31.016C388.756 30.9627 388.727 30.8827 388.727 30.776V30.208L390.055 30.032L390.383 27.536C390.399 27.456 390.433 27.392 390.487 27.344C390.545 27.2907 390.62 27.264 390.711 27.264H391.431V30.056H397.031V38ZM397.383 27.296C397.383 27.4347 397.353 27.5653 397.295 27.688C397.241 27.8053 397.167 27.9093 397.071 28C396.98 28.0907 396.873 28.1627 396.751 28.216C396.628 28.2693 396.497 28.296 396.359 28.296C396.22 28.296 396.089 28.2693 395.967 28.216C395.849 28.1627 395.745 28.0907 395.655 28C395.564 27.9093 395.492 27.8053 395.439 27.688C395.385 27.5653 395.359 27.4347 395.359 27.296C395.359 27.1573 395.385 27.0267 395.439 26.904C395.492 26.776 395.564 26.6667 395.655 26.576C395.745 26.48 395.849 26.4053 395.967 26.352C396.089 26.2987 396.22 26.272 396.359 26.272C396.497 26.272 396.628 26.2987 396.751 26.352C396.873 26.4053 396.98 26.48 397.071 26.576C397.167 26.6667 397.241 26.776 397.295 26.904C397.353 27.0267 397.383 27.1573 397.383 27.296ZM402.786 29.768C403.378 29.768 403.912 29.8667 404.386 30.064C404.861 30.2613 405.266 30.5413 405.602 30.904C405.938 31.2667 406.194 31.7067 406.37 32.224C406.552 32.736 406.642 33.3093 406.642 33.944C406.642 34.584 406.552 35.16 406.37 35.672C406.194 36.184 405.938 36.6213 405.602 36.984C405.266 37.3467 404.861 37.6267 404.386 37.824C403.912 38.016 403.378 38.112 402.786 38.112C402.189 38.112 401.65 38.016 401.17 37.824C400.696 37.6267 400.29 37.3467 399.954 36.984C399.618 36.6213 399.36 36.184 399.178 35.672C399.002 35.16 398.914 34.584 398.914 33.944C398.914 33.3093 399.002 32.736 399.178 32.224C399.36 31.7067 399.618 31.2667 399.954 30.904C400.29 30.5413 400.696 30.2613 401.17 30.064C401.65 29.8667 402.189 29.768 402.786 29.768ZM402.786 37C403.586 37 404.184 36.7333 404.578 36.2C404.973 35.6613 405.17 34.912 405.17 33.952C405.17 32.9867 404.973 32.2347 404.578 31.696C404.184 31.1573 403.586 30.888 402.786 30.888C402.381 30.888 402.026 30.9573 401.722 31.096C401.424 31.2347 401.173 31.4347 400.97 31.696C400.773 31.9573 400.624 32.28 400.522 32.664C400.426 33.0427 400.378 33.472 400.378 33.952C400.378 34.912 400.576 35.6613 400.97 36.2C401.37 36.7333 401.976 37 402.786 37ZM409.792 31.072C409.968 30.8747 410.155 30.696 410.352 30.536C410.55 30.376 410.758 30.24 410.976 30.128C411.2 30.0107 411.435 29.9227 411.68 29.864C411.931 29.8 412.2 29.768 412.488 29.768C412.931 29.768 413.32 29.8427 413.656 29.992C413.998 30.136 414.28 30.344 414.504 30.616C414.734 30.8827 414.907 31.2053 415.024 31.584C415.142 31.9627 415.2 32.3813 415.2 32.84V38H413.768V32.84C413.768 32.2267 413.627 31.752 413.344 31.416C413.067 31.0747 412.643 30.904 412.072 30.904C411.651 30.904 411.256 31.0053 410.888 31.208C410.526 31.4107 410.19 31.6853 409.88 32.032V38H408.448V29.896H409.304C409.507 29.896 409.632 29.9947 409.68 30.192L409.792 31.072ZM427.664 28.328C427.616 28.408 427.563 28.4693 427.504 28.512C427.451 28.5493 427.384 28.568 427.304 28.568C427.213 28.568 427.107 28.5227 426.984 28.432C426.861 28.3413 426.707 28.2427 426.52 28.136C426.339 28.024 426.117 27.9227 425.856 27.832C425.6 27.7413 425.288 27.696 424.92 27.696C424.573 27.696 424.267 27.744 424 27.84C423.739 27.9307 423.517 28.056 423.336 28.216C423.16 28.376 423.027 28.5653 422.936 28.784C422.845 28.9973 422.8 29.2293 422.8 29.48C422.8 29.8 422.877 30.0667 423.032 30.28C423.192 30.488 423.4 30.6667 423.656 30.816C423.917 30.9653 424.211 31.096 424.536 31.208C424.867 31.3147 425.203 31.4267 425.544 31.544C425.891 31.6613 426.227 31.7947 426.552 31.944C426.883 32.088 427.176 32.272 427.432 32.496C427.693 32.72 427.901 32.9947 428.056 33.32C428.216 33.6453 428.296 34.0453 428.296 34.52C428.296 35.0213 428.211 35.4933 428.04 35.936C427.869 36.3733 427.619 36.7547 427.288 37.08C426.963 37.4053 426.56 37.6613 426.08 37.848C425.605 38.0347 425.064 38.128 424.456 38.128C423.709 38.128 423.032 37.9947 422.424 37.728C421.816 37.456 421.296 37.0907 420.864 36.632L421.312 35.896C421.355 35.8373 421.405 35.7893 421.464 35.752C421.528 35.7093 421.597 35.688 421.672 35.688C421.741 35.688 421.819 35.7173 421.904 35.776C421.995 35.8293 422.096 35.8987 422.208 35.984C422.32 36.0693 422.448 36.1627 422.592 36.264C422.736 36.3653 422.899 36.4587 423.08 36.544C423.267 36.6293 423.477 36.7013 423.712 36.76C423.947 36.8133 424.211 36.84 424.504 36.84C424.872 36.84 425.2 36.7893 425.488 36.688C425.776 36.5867 426.019 36.4453 426.216 36.264C426.419 36.0773 426.573 35.856 426.68 35.6C426.787 35.344 426.84 35.0587 426.84 34.744C426.84 34.3973 426.76 34.1147 426.6 33.896C426.445 33.672 426.24 33.4853 425.984 33.336C425.728 33.1867 425.435 33.0613 425.104 32.96C424.773 32.8533 424.437 32.7467 424.096 32.64C423.755 32.528 423.419 32.4 423.088 32.256C422.757 32.112 422.464 31.9253 422.208 31.696C421.952 31.4667 421.744 31.1813 421.584 30.84C421.429 30.4933 421.352 30.0667 421.352 29.56C421.352 29.1547 421.429 28.7627 421.584 28.384C421.744 28.0053 421.973 27.6693 422.272 27.376C422.576 27.0827 422.947 26.848 423.384 26.672C423.827 26.496 424.333 26.408 424.904 26.408C425.544 26.408 426.125 26.5093 426.648 26.712C427.176 26.9147 427.64 27.208 428.04 27.592L427.664 28.328ZM435.745 31.336C435.702 31.3947 435.659 31.44 435.617 31.472C435.574 31.504 435.515 31.52 435.441 31.52C435.361 31.52 435.273 31.488 435.177 31.424C435.081 31.3547 434.961 31.28 434.817 31.2C434.678 31.12 434.505 31.048 434.297 30.984C434.094 30.9147 433.843 30.88 433.545 30.88C433.145 30.88 432.793 30.952 432.489 31.096C432.185 31.2347 431.929 31.4373 431.721 31.704C431.518 31.9707 431.363 32.2933 431.257 32.672C431.155 33.0507 431.105 33.4747 431.105 33.944C431.105 34.4347 431.161 34.872 431.273 35.256C431.385 35.6347 431.542 35.9547 431.745 36.216C431.953 36.472 432.201 36.6693 432.489 36.808C432.782 36.9413 433.11 37.008 433.473 37.008C433.819 37.008 434.105 36.968 434.329 36.888C434.553 36.8027 434.737 36.7093 434.881 36.608C435.03 36.5067 435.153 36.416 435.249 36.336C435.35 36.2507 435.449 36.208 435.545 36.208C435.662 36.208 435.753 36.2533 435.817 36.344L436.217 36.864C436.041 37.0827 435.841 37.2693 435.617 37.424C435.393 37.5787 435.15 37.7093 434.889 37.816C434.633 37.9173 434.363 37.992 434.081 38.04C433.798 38.088 433.51 38.112 433.217 38.112C432.71 38.112 432.238 38.0187 431.801 37.832C431.369 37.6453 430.993 37.376 430.673 37.024C430.353 36.6667 430.102 36.2293 429.921 35.712C429.739 35.1947 429.649 34.6053 429.649 33.944C429.649 33.3413 429.731 32.784 429.897 32.272C430.067 31.76 430.313 31.32 430.633 30.952C430.958 30.5787 431.355 30.288 431.825 30.08C432.299 29.872 432.843 29.768 433.457 29.768C434.027 29.768 434.529 29.8613 434.961 30.048C435.398 30.2293 435.785 30.488 436.121 30.824L435.745 31.336ZM439.097 31.52C439.353 30.9653 439.668 30.5333 440.041 30.224C440.415 29.9093 440.871 29.752 441.409 29.752C441.58 29.752 441.743 29.7707 441.897 29.808C442.057 29.8453 442.199 29.904 442.321 29.984L442.217 31.048C442.185 31.1813 442.105 31.248 441.977 31.248C441.903 31.248 441.793 31.232 441.649 31.2C441.505 31.168 441.343 31.152 441.161 31.152C440.905 31.152 440.676 31.1893 440.473 31.264C440.276 31.3387 440.097 31.4507 439.937 31.6C439.783 31.744 439.641 31.9253 439.513 32.144C439.391 32.3573 439.279 32.6027 439.177 32.88V38H437.745V29.896H438.561C438.716 29.896 438.823 29.9253 438.881 29.984C438.94 30.0427 438.98 30.144 439.001 30.288L439.097 31.52ZM448.669 33.064C448.669 32.7333 448.621 32.432 448.525 32.16C448.435 31.8827 448.299 31.6453 448.117 31.448C447.941 31.2453 447.725 31.0907 447.469 30.984C447.213 30.872 446.923 30.816 446.597 30.816C445.915 30.816 445.373 31.016 444.973 31.416C444.579 31.8107 444.333 32.36 444.237 33.064H448.669ZM449.821 36.864C449.645 37.0773 449.435 37.264 449.189 37.424C448.944 37.5787 448.68 37.7067 448.397 37.808C448.12 37.9093 447.832 37.984 447.533 38.032C447.235 38.0853 446.939 38.112 446.645 38.112C446.085 38.112 445.568 38.0187 445.093 37.832C444.624 37.64 444.216 37.3627 443.869 37C443.528 36.632 443.261 36.1787 443.069 35.64C442.877 35.1013 442.781 34.4827 442.781 33.784C442.781 33.2187 442.867 32.6907 443.037 32.2C443.213 31.7093 443.464 31.2853 443.789 30.928C444.115 30.5653 444.512 30.2827 444.981 30.08C445.451 29.872 445.979 29.768 446.565 29.768C447.051 29.768 447.499 29.8507 447.909 30.016C448.325 30.176 448.683 30.4107 448.981 30.72C449.285 31.024 449.523 31.4027 449.693 31.856C449.864 32.304 449.949 32.816 449.949 33.392C449.949 33.616 449.925 33.7653 449.877 33.84C449.829 33.9147 449.739 33.952 449.605 33.952H444.189C444.205 34.464 444.275 34.9093 444.397 35.288C444.525 35.6667 444.701 35.984 444.925 36.24C445.149 36.4907 445.416 36.68 445.725 36.808C446.035 36.9307 446.381 36.992 446.765 36.992C447.123 36.992 447.429 36.952 447.685 36.872C447.947 36.7867 448.171 36.696 448.357 36.6C448.544 36.504 448.699 36.416 448.821 36.336C448.949 36.2507 449.059 36.208 449.149 36.208C449.267 36.208 449.357 36.2533 449.421 36.344L449.821 36.864ZM457.122 33.064C457.122 32.7333 457.074 32.432 456.978 32.16C456.888 31.8827 456.752 31.6453 456.57 31.448C456.394 31.2453 456.178 31.0907 455.922 30.984C455.666 30.872 455.376 30.816 455.05 30.816C454.368 30.816 453.826 31.016 453.426 31.416C453.032 31.8107 452.786 32.36 452.69 33.064H457.122ZM458.274 36.864C458.098 37.0773 457.888 37.264 457.642 37.424C457.397 37.5787 457.133 37.7067 456.85 37.808C456.573 37.9093 456.285 37.984 455.986 38.032C455.688 38.0853 455.392 38.112 455.098 38.112C454.538 38.112 454.021 38.0187 453.546 37.832C453.077 37.64 452.669 37.3627 452.322 37C451.981 36.632 451.714 36.1787 451.522 35.64C451.33 35.1013 451.234 34.4827 451.234 33.784C451.234 33.2187 451.32 32.6907 451.49 32.2C451.666 31.7093 451.917 31.2853 452.242 30.928C452.568 30.5653 452.965 30.2827 453.434 30.08C453.904 29.872 454.432 29.768 455.018 29.768C455.504 29.768 455.952 29.8507 456.362 30.016C456.778 30.176 457.136 30.4107 457.434 30.72C457.738 31.024 457.976 31.4027 458.146 31.856C458.317 32.304 458.402 32.816 458.402 33.392C458.402 33.616 458.378 33.7653 458.33 33.84C458.282 33.9147 458.192 33.952 458.058 33.952H452.642C452.658 34.464 452.728 34.9093 452.85 35.288C452.978 35.6667 453.154 35.984 453.378 36.24C453.602 36.4907 453.869 36.68 454.178 36.808C454.488 36.9307 454.834 36.992 455.218 36.992C455.576 36.992 455.882 36.952 456.138 36.872C456.4 36.7867 456.624 36.696 456.81 36.6C456.997 36.504 457.152 36.416 457.274 36.336C457.402 36.2507 457.512 36.208 457.602 36.208C457.72 36.208 457.81 36.2533 457.874 36.344L458.274 36.864ZM461.495 31.072C461.671 30.8747 461.858 30.696 462.055 30.536C462.253 30.376 462.461 30.24 462.679 30.128C462.903 30.0107 463.138 29.9227 463.383 29.864C463.634 29.8 463.903 29.768 464.191 29.768C464.634 29.768 465.023 29.8427 465.359 29.992C465.701 30.136 465.983 30.344 466.207 30.616C466.437 30.8827 466.61 31.2053 466.727 31.584C466.845 31.9627 466.903 32.3813 466.903 32.84V38H465.471V32.84C465.471 32.2267 465.33 31.752 465.047 31.416C464.77 31.0747 464.346 30.904 463.775 30.904C463.354 30.904 462.959 31.0053 462.591 31.208C462.229 31.4107 461.893 31.6853 461.583 32.032V38H460.151V29.896H461.007C461.21 29.896 461.335 29.9947 461.383 30.192L461.495 31.072Z" fill="white"/>
<path d="M483.646 31.6464C483.451 31.8417 483.451 32.1583 483.646 32.3536L486.828 35.5355C487.024 35.7308 487.34 35.7308 487.536 35.5355C487.731 35.3403 487.731 35.0237 487.536 34.8284L484.707 32L487.536 29.1716C487.731 28.9763 487.731 28.6597 487.536 28.4645C487.34 28.2692 487.024 28.2692 486.828 28.4645L483.646 31.6464ZM568.354 32.3536C568.549 32.1583 568.549 31.8417 568.354 31.6464L565.172 28.4645C564.976 28.2692 564.66 28.2692 564.464 28.4645C564.269 28.6597 564.269 28.9763 564.464 29.1716L567.293 32L564.464 34.8284C564.269 35.0237 564.269 35.3403 564.464 35.5355C564.66 35.7308 564.976 35.7308 565.172 35.5355L568.354 32.3536ZM484 32.5H568V31.5H484V32.5Z" fill="#555555"/>
<rect x="568.5" y="0.5" width="199" height="63" rx="15.5" stroke="#555555"/>
<path d="M614.072 32.272C614.072 33.1307 613.936 33.912 613.664 34.616C613.392 35.32 613.008 35.9227 612.512 36.424C612.016 36.9253 611.419 37.3147 610.72 37.592C610.027 37.864 609.259 38 608.416 38H604.136V26.536H608.416C609.259 26.536 610.027 26.6747 610.72 26.952C611.419 27.224 612.016 27.6133 612.512 28.12C613.008 28.6213 613.392 29.224 613.664 29.928C613.936 30.632 614.072 31.4133 614.072 32.272ZM612.48 32.272C612.48 31.568 612.384 30.9387 612.192 30.384C612 29.8293 611.728 29.36 611.376 28.976C611.024 28.592 610.597 28.2987 610.096 28.096C609.595 27.8933 609.035 27.792 608.416 27.792H605.688V36.744H608.416C609.035 36.744 609.595 36.6427 610.096 36.44C610.597 36.2373 611.024 35.9467 611.376 35.568C611.728 35.184 612 34.7147 612.192 34.16C612.384 33.6053 612.48 32.976 612.48 32.272ZM621.286 33.064C621.286 32.7333 621.238 32.432 621.142 32.16C621.052 31.8827 620.916 31.6453 620.734 31.448C620.558 31.2453 620.342 31.0907 620.086 30.984C619.83 30.872 619.54 30.816 619.214 30.816C618.532 30.816 617.99 31.016 617.59 31.416C617.196 31.8107 616.95 32.36 616.854 33.064H621.286ZM622.438 36.864C622.262 37.0773 622.052 37.264 621.806 37.424C621.561 37.5787 621.297 37.7067 621.014 37.808C620.737 37.9093 620.449 37.984 620.15 38.032C619.852 38.0853 619.556 38.112 619.262 38.112C618.702 38.112 618.185 38.0187 617.71 37.832C617.241 37.64 616.833 37.3627 616.486 37C616.145 36.632 615.878 36.1787 615.686 35.64C615.494 35.1013 615.398 34.4827 615.398 33.784C615.398 33.2187 615.484 32.6907 615.654 32.2C615.83 31.7093 616.081 31.2853 616.406 30.928C616.732 30.5653 617.129 30.2827 617.598 30.08C618.068 29.872 618.596 29.768 619.182 29.768C619.668 29.768 620.116 29.8507 620.526 30.016C620.942 30.176 621.3 30.4107 621.598 30.72C621.902 31.024 622.14 31.4027 622.31 31.856C622.481 32.304 622.566 32.816 622.566 33.392C622.566 33.616 622.542 33.7653 622.494 33.84C622.446 33.9147 622.356 33.952 622.222 33.952H616.806C616.822 34.464 616.892 34.9093 617.014 35.288C617.142 35.6667 617.318 35.984 617.542 36.24C617.766 36.4907 618.033 36.68 618.342 36.808C618.652 36.9307 618.998 36.992 619.382 36.992C619.74 36.992 620.046 36.952 620.302 36.872C620.564 36.7867 620.788 36.696 620.974 36.6C621.161 36.504 621.316 36.416 621.438 36.336C621.566 36.2507 621.676 36.208 621.766 36.208C621.884 36.208 621.974 36.2533 622.038 36.344L622.438 36.864ZM629.956 31.336C629.913 31.3947 629.87 31.44 629.828 31.472C629.785 31.504 629.726 31.52 629.652 31.52C629.572 31.52 629.484 31.488 629.388 31.424C629.292 31.3547 629.172 31.28 629.028 31.2C628.889 31.12 628.716 31.048 628.508 30.984C628.305 30.9147 628.054 30.88 627.756 30.88C627.356 30.88 627.004 30.952 626.7 31.096C626.396 31.2347 626.14 31.4373 625.932 31.704C625.729 31.9707 625.574 32.2933 625.468 32.672C625.366 33.0507 625.316 33.4747 625.316 33.944C625.316 34.4347 625.372 34.872 625.484 35.256C625.596 35.6347 625.753 35.9547 625.956 36.216C626.164 36.472 626.412 36.6693 626.7 36.808C626.993 36.9413 627.321 37.008 627.684 37.008C628.03 37.008 628.316 36.968 628.54 36.888C628.764 36.8027 628.948 36.7093 629.092 36.608C629.241 36.5067 629.364 36.416 629.46 36.336C629.561 36.2507 629.66 36.208 629.756 36.208C629.873 36.208 629.964 36.2533 630.028 36.344L630.428 36.864C630.252 37.0827 630.052 37.2693 629.828 37.424C629.604 37.5787 629.361 37.7093 629.1 37.816C628.844 37.9173 628.574 37.992 628.292 38.04C628.009 38.088 627.721 38.112 627.428 38.112C626.921 38.112 626.449 38.0187 626.012 37.832C625.58 37.6453 625.204 37.376 624.884 37.024C624.564 36.6667 624.313 36.2293 624.132 35.712C623.95 35.1947 623.86 34.6053 623.86 33.944C623.86 33.3413 623.942 32.784 624.108 32.272C624.278 31.76 624.524 31.32 624.844 30.952C625.169 30.5787 625.566 30.288 626.036 30.08C626.51 29.872 627.054 29.768 627.668 29.768C628.238 29.768 628.74 29.8613 629.172 30.048C629.609 30.2293 629.996 30.488 630.332 30.824L629.956 31.336ZM633.308 31.52C633.564 30.9653 633.879 30.5333 634.252 30.224C634.625 29.9093 635.081 29.752 635.62 29.752C635.791 29.752 635.953 29.7707 636.108 29.808C636.268 29.8453 636.409 29.904 636.532 29.984L636.428 31.048C636.396 31.1813 636.316 31.248 636.188 31.248C636.113 31.248 636.004 31.232 635.86 31.2C635.716 31.168 635.553 31.152 635.372 31.152C635.116 31.152 634.887 31.1893 634.684 31.264C634.487 31.3387 634.308 31.4507 634.148 31.6C633.993 31.744 633.852 31.9253 633.724 32.144C633.601 32.3573 633.489 32.6027 633.388 32.88V38H631.956V29.896H632.772C632.927 29.896 633.033 29.9253 633.092 29.984C633.151 30.0427 633.191 30.144 633.212 30.288L633.308 31.52ZM644.776 29.896L640.256 40.392C640.208 40.4987 640.147 40.584 640.072 40.648C640.003 40.712 639.894 40.744 639.744 40.744H638.688L640.168 37.528L636.824 29.896H638.056C638.179 29.896 638.275 29.928 638.344 29.992C638.419 30.0507 638.47 30.1173 638.496 30.192L640.664 35.296C640.75 35.52 640.822 35.7547 640.88 36C640.955 35.7493 641.035 35.512 641.12 35.288L643.224 30.192C643.256 30.1067 643.31 30.0373 643.384 29.984C643.464 29.9253 643.552 29.896 643.648 29.896H644.776ZM647.466 36.048C647.728 36.4 648.013 36.648 648.322 36.792C648.632 36.936 648.978 37.008 649.362 37.008C650.12 37.008 650.701 36.7387 651.106 36.2C651.512 35.6613 651.714 34.8933 651.714 33.896C651.714 33.368 651.666 32.9147 651.57 32.536C651.48 32.1573 651.346 31.848 651.17 31.608C650.994 31.3627 650.778 31.184 650.522 31.072C650.266 30.96 649.976 30.904 649.65 30.904C649.186 30.904 648.778 31.0107 648.426 31.224C648.08 31.4373 647.76 31.7387 647.466 32.128V36.048ZM647.394 31.152C647.736 30.7307 648.13 30.392 648.578 30.136C649.026 29.88 649.538 29.752 650.114 29.752C650.584 29.752 651.008 29.8427 651.386 30.024C651.765 30.2 652.088 30.464 652.354 30.816C652.621 31.1627 652.826 31.5947 652.97 32.112C653.114 32.6293 653.186 33.224 653.186 33.896C653.186 34.4933 653.106 35.0507 652.946 35.568C652.786 36.08 652.554 36.5253 652.25 36.904C651.952 37.2773 651.584 37.5733 651.146 37.792C650.714 38.0053 650.226 38.112 649.682 38.112C649.186 38.112 648.76 38.0293 648.402 37.864C648.05 37.6933 647.738 37.4587 647.466 37.16V40.744H646.034V29.896H646.89C647.093 29.896 647.218 29.9947 647.266 30.192L647.394 31.152ZM662.414 38H660.99V31.088H656.814V35.952C656.814 36.2933 656.896 36.5467 657.062 36.712C657.227 36.8773 657.44 36.96 657.702 36.96C657.851 36.96 657.979 36.9413 658.086 36.904C658.198 36.8613 658.294 36.816 658.374 36.768C658.454 36.72 658.52 36.6773 658.574 36.64C658.632 36.5973 658.683 36.576 658.726 36.576C658.8 36.576 658.867 36.6213 658.926 36.712L659.342 37.392C659.096 37.6213 658.8 37.8027 658.454 37.936C658.107 38.064 657.75 38.128 657.382 38.128C656.742 38.128 656.248 37.9493 655.902 37.592C655.56 37.2347 655.39 36.72 655.39 36.048V31.088H654.414C654.328 31.088 654.256 31.064 654.198 31.016C654.139 30.9627 654.11 30.8827 654.11 30.776V30.208L655.438 30.032L655.766 27.536C655.782 27.456 655.816 27.392 655.87 27.344C655.928 27.2907 656.003 27.264 656.094 27.264H656.814V30.056H662.414V38ZM662.766 27.296C662.766 27.4347 662.736 27.5653 662.678 27.688C662.624 27.8053 662.55 27.9093 662.454 28C662.363 28.0907 662.256 28.1627 662.134 28.216C662.011 28.2693 661.88 28.296 661.742 28.296C661.603 28.296 661.472 28.2693 661.35 28.216C661.232 28.1627 661.128 28.0907 661.038 28C660.947 27.9093 660.875 27.8053 660.822 27.688C660.768 27.5653 660.742 27.4347 660.742 27.296C660.742 27.1573 660.768 27.0267 660.822 26.904C660.875 26.776 660.947 26.6667 661.038 26.576C661.128 26.48 661.232 26.4053 661.35 26.352C661.472 26.2987 661.603 26.272 661.742 26.272C661.88 26.272 662.011 26.2987 662.134 26.352C662.256 26.4053 662.363 26.48 662.454 26.576C662.55 26.6667 662.624 26.776 662.678 26.904C662.736 27.0267 662.766 27.1573 662.766 27.296ZM668.169 29.768C668.761 29.768 669.294 29.8667 669.769 30.064C670.244 30.2613 670.649 30.5413 670.985 30.904C671.321 31.2667 671.577 31.7067 671.753 32.224C671.934 32.736 672.025 33.3093 672.025 33.944C672.025 34.584 671.934 35.16 671.753 35.672C671.577 36.184 671.321 36.6213 670.985 36.984C670.649 37.3467 670.244 37.6267 669.769 37.824C669.294 38.016 668.761 38.112 668.169 38.112C667.572 38.112 667.033 38.016 666.553 37.824C666.078 37.6267 665.673 37.3467 665.337 36.984C665.001 36.6213 664.742 36.184 664.561 35.672C664.385 35.16 664.297 34.584 664.297 33.944C664.297 33.3093 664.385 32.736 664.561 32.224C664.742 31.7067 665.001 31.2667 665.337 30.904C665.673 30.5413 666.078 30.2613 666.553 30.064C667.033 29.8667 667.572 29.768 668.169 29.768ZM668.169 37C668.969 37 669.566 36.7333 669.961 36.2C670.356 35.6613 670.553 34.912 670.553 33.952C670.553 32.9867 670.356 32.2347 669.961 31.696C669.566 31.1573 668.969 30.888 668.169 30.888C667.764 30.888 667.409 30.9573 667.105 31.096C666.806 31.2347 666.556 31.4347 666.353 31.696C666.156 31.9573 666.006 32.28 665.905 32.664C665.809 33.0427 665.761 33.472 665.761 33.952C665.761 34.912 665.958 35.6613 666.353 36.2C666.753 36.7333 667.358 37 668.169 37ZM675.175 31.072C675.351 30.8747 675.538 30.696 675.735 30.536C675.932 30.376 676.14 30.24 676.359 30.128C676.583 30.0107 676.818 29.9227 677.063 29.864C677.314 29.8 677.583 29.768 677.871 29.768C678.314 29.768 678.703 29.8427 679.039 29.992C679.38 30.136 679.663 30.344 679.887 30.616C680.116 30.8827 680.29 31.2053 680.407 31.584C680.524 31.9627 680.583 32.3813 680.583 32.84V38H679.151V32.84C679.151 32.2267 679.01 31.752 678.727 31.416C678.45 31.0747 678.026 30.904 677.455 30.904C677.034 30.904 676.639 31.0053 676.271 31.208C675.908 31.4107 675.572 31.6853 675.263 32.032V38H673.831V29.896H674.687C674.89 29.896 675.015 29.9947 675.063 30.192L675.175 31.072ZM693.047 28.328C692.999 28.408 692.945 28.4693 692.887 28.512C692.833 28.5493 692.767 28.568 692.687 28.568C692.596 28.568 692.489 28.5227 692.367 28.432C692.244 28.3413 692.089 28.2427 691.903 28.136C691.721 28.024 691.5 27.9227 691.239 27.832C690.983 27.7413 690.671 27.696 690.303 27.696C689.956 27.696 689.649 27.744 689.383 27.84C689.121 27.9307 688.9 28.056 688.719 28.216C688.543 28.376 688.409 28.5653 688.319 28.784C688.228 28.9973 688.183 29.2293 688.183 29.48C688.183 29.8 688.26 30.0667 688.415 30.28C688.575 30.488 688.783 30.6667 689.039 30.816C689.3 30.9653 689.593 31.096 689.919 31.208C690.249 31.3147 690.585 31.4267 690.927 31.544C691.273 31.6613 691.609 31.7947 691.935 31.944C692.265 32.088 692.559 32.272 692.815 32.496C693.076 32.72 693.284 32.9947 693.439 33.32C693.599 33.6453 693.679 34.0453 693.679 34.52C693.679 35.0213 693.593 35.4933 693.423 35.936C693.252 36.3733 693.001 36.7547 692.671 37.08C692.345 37.4053 691.943 37.6613 691.463 37.848C690.988 38.0347 690.447 38.128 689.839 38.128C689.092 38.128 688.415 37.9947 687.807 37.728C687.199 37.456 686.679 37.0907 686.247 36.632L686.695 35.896C686.737 35.8373 686.788 35.7893 686.847 35.752C686.911 35.7093 686.98 35.688 687.055 35.688C687.124 35.688 687.201 35.7173 687.287 35.776C687.377 35.8293 687.479 35.8987 687.591 35.984C687.703 36.0693 687.831 36.1627 687.975 36.264C688.119 36.3653 688.281 36.4587 688.463 36.544C688.649 36.6293 688.86 36.7013 689.095 36.76C689.329 36.8133 689.593 36.84 689.887 36.84C690.255 36.84 690.583 36.7893 690.871 36.688C691.159 36.5867 691.401 36.4453 691.599 36.264C691.801 36.0773 691.956 35.856 692.063 35.6C692.169 35.344 692.223 35.0587 692.223 34.744C692.223 34.3973 692.143 34.1147 691.983 33.896C691.828 33.672 691.623 33.4853 691.367 33.336C691.111 33.1867 690.817 33.0613 690.487 32.96C690.156 32.8533 689.82 32.7467 689.479 32.64C689.137 32.528 688.801 32.4 688.471 32.256C688.14 32.112 687.847 31.9253 687.591 31.696C687.335 31.4667 687.127 31.1813 686.967 30.84C686.812 30.4933 686.735 30.0667 686.735 29.56C686.735 29.1547 686.812 28.7627 686.967 28.384C687.127 28.0053 687.356 27.6693 687.655 27.376C687.959 27.0827 688.329 26.848 688.767 26.672C689.209 26.496 689.716 26.408 690.287 26.408C690.927 26.408 691.508 26.5093 692.031 26.712C692.559 26.9147 693.023 27.208 693.423 27.592L693.047 28.328ZM701.127 31.336C701.085 31.3947 701.042 31.44 700.999 31.472C700.957 31.504 700.898 31.52 700.823 31.52C700.743 31.52 700.655 31.488 700.559 31.424C700.463 31.3547 700.343 31.28 700.199 31.2C700.061 31.12 699.887 31.048 699.679 30.984C699.477 30.9147 699.226 30.88 698.927 30.88C698.527 30.88 698.175 30.952 697.871 31.096C697.567 31.2347 697.311 31.4373 697.103 31.704C696.901 31.9707 696.746 32.2933 696.639 32.672C696.538 33.0507 696.487 33.4747 696.487 33.944C696.487 34.4347 696.543 34.872 696.655 35.256C696.767 35.6347 696.925 35.9547 697.127 36.216C697.335 36.472 697.583 36.6693 697.871 36.808C698.165 36.9413 698.493 37.008 698.855 37.008C699.202 37.008 699.487 36.968 699.711 36.888C699.935 36.8027 700.119 36.7093 700.263 36.608C700.413 36.5067 700.535 36.416 700.631 36.336C700.733 36.2507 700.831 36.208 700.927 36.208C701.045 36.208 701.135 36.2533 701.199 36.344L701.599 36.864C701.423 37.0827 701.223 37.2693 700.999 37.424C700.775 37.5787 700.533 37.7093 700.271 37.816C700.015 37.9173 699.746 37.992 699.463 38.04C699.181 38.088 698.893 38.112 698.599 38.112C698.093 38.112 697.621 38.0187 697.183 37.832C696.751 37.6453 696.375 37.376 696.055 37.024C695.735 36.6667 695.485 36.2293 695.303 35.712C695.122 35.1947 695.031 34.6053 695.031 33.944C695.031 33.3413 695.114 32.784 695.279 32.272C695.45 31.76 695.695 31.32 696.015 30.952C696.341 30.5787 696.738 30.288 697.207 30.08C697.682 29.872 698.226 29.768 698.839 29.768C699.41 29.768 699.911 29.8613 700.343 30.048C700.781 30.2293 701.167 30.488 701.503 30.824L701.127 31.336ZM704.48 31.52C704.736 30.9653 705.051 30.5333 705.424 30.224C705.797 29.9093 706.253 29.752 706.792 29.752C706.963 29.752 707.125 29.7707 707.28 29.808C707.44 29.8453 707.581 29.904 707.704 29.984L707.6 31.048C707.568 31.1813 707.488 31.248 707.36 31.248C707.285 31.248 707.176 31.232 707.032 31.2C706.888 31.168 706.725 31.152 706.544 31.152C706.288 31.152 706.059 31.1893 705.856 31.264C705.659 31.3387 705.48 31.4507 705.32 31.6C705.165 31.744 705.024 31.9253 704.896 32.144C704.773 32.3573 704.661 32.6027 704.56 32.88V38H703.128V29.896H703.944C704.099 29.896 704.205 29.9253 704.264 29.984C704.323 30.0427 704.363 30.144 704.384 30.288L704.48 31.52ZM714.052 33.064C714.052 32.7333 714.004 32.432 713.908 32.16C713.817 31.8827 713.681 31.6453 713.5 31.448C713.324 31.2453 713.108 31.0907 712.852 30.984C712.596 30.872 712.305 30.816 711.98 30.816C711.297 30.816 710.756 31.016 710.356 31.416C709.961 31.8107 709.716 32.36 709.62 33.064H714.052ZM715.204 36.864C715.028 37.0773 714.817 37.264 714.572 37.424C714.327 37.5787 714.063 37.7067 713.78 37.808C713.503 37.9093 713.215 37.984 712.916 38.032C712.617 38.0853 712.321 38.112 712.028 38.112C711.468 38.112 710.951 38.0187 710.476 37.832C710.007 37.64 709.599 37.3627 709.252 37C708.911 36.632 708.644 36.1787 708.452 35.64C708.26 35.1013 708.164 34.4827 708.164 33.784C708.164 33.2187 708.249 32.6907 708.42 32.2C708.596 31.7093 708.847 31.2853 709.172 30.928C709.497 30.5653 709.895 30.2827 710.364 30.08C710.833 29.872 711.361 29.768 711.948 29.768C712.433 29.768 712.881 29.8507 713.292 30.016C713.708 30.176 714.065 30.4107 714.364 30.72C714.668 31.024 714.905 31.4027 715.076 31.856C715.247 32.304 715.332 32.816 715.332 33.392C715.332 33.616 715.308 33.7653 715.26 33.84C715.212 33.9147 715.121 33.952 714.988 33.952H709.572C709.588 34.464 709.657 34.9093 709.78 35.288C709.908 35.6667 710.084 35.984 710.308 36.24C710.532 36.4907 710.799 36.68 711.108 36.808C711.417 36.9307 711.764 36.992 712.148 36.992C712.505 36.992 712.812 36.952 713.068 36.872C713.329 36.7867 713.553 36.696 713.74 36.6C713.927 36.504 714.081 36.416 714.204 36.336C714.332 36.2507 714.441 36.208 714.532 36.208C714.649 36.208 714.74 36.2533 714.804 36.344L715.204 36.864ZM722.505 33.064C722.505 32.7333 722.457 32.432 722.361 32.16C722.27 31.8827 722.134 31.6453 721.953 31.448C721.777 31.2453 721.561 31.0907 721.305 30.984C721.049 30.872 720.758 30.816 720.433 30.816C719.75 30.816 719.209 31.016 718.809 31.416C718.414 31.8107 718.169 32.36 718.073 33.064H722.505ZM723.657 36.864C723.481 37.0773 723.27 37.264 723.025 37.424C722.78 37.5787 722.516 37.7067 722.233 37.808C721.956 37.9093 721.668 37.984 721.369 38.032C721.07 38.0853 720.774 38.112 720.481 38.112C719.921 38.112 719.404 38.0187 718.929 37.832C718.46 37.64 718.052 37.3627 717.705 37C717.364 36.632 717.097 36.1787 716.905 35.64C716.713 35.1013 716.617 34.4827 716.617 33.784C716.617 33.2187 716.702 32.6907 716.873 32.2C717.049 31.7093 717.3 31.2853 717.625 30.928C717.95 30.5653 718.348 30.2827 718.817 30.08C719.286 29.872 719.814 29.768 720.401 29.768C720.886 29.768 721.334 29.8507 721.745 30.016C722.161 30.176 722.518 30.4107 722.817 30.72C723.121 31.024 723.358 31.4027 723.529 31.856C723.7 32.304 723.785 32.816 723.785 33.392C723.785 33.616 723.761 33.7653 723.713 33.84C723.665 33.9147 723.574 33.952 723.441 33.952H718.025C718.041 34.464 718.11 34.9093 718.233 35.288C718.361 35.6667 718.537 35.984 718.761 36.24C718.985 36.4907 719.252 36.68 719.561 36.808C719.87 36.9307 720.217 36.992 720.601 36.992C720.958 36.992 721.265 36.952 721.521 36.872C721.782 36.7867 722.006 36.696 722.193 36.6C722.38 36.504 722.534 36.416 722.657 36.336C722.785 36.2507 722.894 36.208 722.985 36.208C723.102 36.208 723.193 36.2533 723.257 36.344L723.657 36.864ZM726.878 31.072C727.054 30.8747 727.241 30.696 727.438 30.536C727.636 30.376 727.844 30.24 728.062 30.128C728.286 30.0107 728.521 29.9227 728.766 29.864C729.017 29.8 729.286 29.768 729.574 29.768C730.017 29.768 730.406 29.8427 730.742 29.992C731.084 30.136 731.366 30.344 731.59 30.616C731.82 30.8827 731.993 31.2053 732.11 31.584C732.228 31.9627 732.286 32.3813 732.286 32.84V38H730.854V32.84C730.854 32.2267 730.713 31.752 730.43 31.416C730.153 31.0747 729.729 30.904 729.158 30.904C728.737 30.904 728.342 31.0053 727.974 31.208C727.612 31.4107 727.276 31.6853 726.966 32.032V38H725.534V29.896H726.39C726.593 29.896 726.718 29.9947 726.766 30.192L726.878 31.072Z" fill="white"/>
<path d="M669.646 63.6464C669.842 63.4512 670.158 63.4512 670.354 63.6464L673.536 66.8284C673.731 67.0237 673.731 67.3403 673.536 67.5355C673.34 67.7308 673.024 67.7308 672.828 67.5355L670 64.7071L667.172 67.5355C666.976 67.7308 666.66 67.7308 666.464 67.5355C666.269 67.3403 666.269 67.0237 666.464 66.8284L669.646 63.6464ZM97.6464 63.6464C97.8417 63.4512 98.1583 63.4512 98.3536 63.6464L101.536 66.8284C101.731 67.0237 101.731 67.3403 101.536 67.5355C101.34 67.7308 101.024 67.7308 100.828 67.5355L98 64.7071L95.1716 67.5355C94.9763 67.7308 94.6597 67.7308 94.4645 67.5355C94.2692 67.3403 94.2692 67.0237 94.4645 66.8284L97.6464 63.6464ZM669.5 88.0002V64H670.5V88.0002H669.5ZM98.5 64V88.0002H97.5V64H98.5ZM106 95.5002L662 95.5002V96.5002L106 96.5002V95.5002ZM98.5 88.0002C98.5 92.1424 101.858 95.5002 106 95.5002V96.5002C101.306 96.5002 97.5 92.6947 97.5 88.0002H98.5ZM670.5 88.0002C670.5 92.6947 666.694 96.5002 662 96.5002V95.5002C666.142 95.5002 669.5 92.1424 669.5 88.0002H670.5Z" fill="#555555"/>
</svg>
