<svg width="24" height="24" viewBox="0 0 24 24" fill="none" xmlns="http://www.w3.org/2000/svg">
<path d="M12 2.40002C6.69839 2.40002 2.39999 6.69842 2.39999 12C2.39999 16.4984 5.49759 20.2624 9.67359 21.304C9.62879 21.1744 9.59999 21.024 9.59999 20.8376V19.1968C9.21039 19.1968 8.55759 19.1968 8.39359 19.1968C7.73679 19.1968 7.15279 18.9144 6.86959 18.3896C6.55519 17.8064 6.50079 16.9144 5.72159 16.3688C5.49039 16.1872 5.66639 15.98 5.93279 16.008C6.42479 16.1472 6.83279 16.4848 7.21679 16.9856C7.59919 17.4872 7.77919 17.6008 8.49359 17.6008C8.83999 17.6008 9.35839 17.5808 9.84639 17.504C10.1088 16.8376 10.5624 16.224 11.1168 15.9344C7.91999 15.6056 6.39439 14.0152 6.39439 11.856C6.39439 10.9264 6.79039 10.0272 7.46319 9.26962C7.24239 8.51762 6.96479 6.98402 7.54799 6.40002C8.98639 6.40002 9.85599 7.33282 10.0648 7.58482C10.7816 7.33922 11.5688 7.20002 12.396 7.20002C13.2248 7.20002 14.0152 7.33922 14.7336 7.58642C14.94 7.33602 15.8104 6.40002 17.252 6.40002C17.8376 6.98482 17.5568 8.52482 17.3336 9.27522C18.0024 10.0312 18.396 10.928 18.396 11.856C18.396 14.0136 16.8728 15.6032 13.6808 15.9336C14.5592 16.392 15.2 17.68 15.2 18.6504V20.8376C15.2 20.9208 15.1816 20.9808 15.172 21.052C18.9128 19.7408 21.6 16.1888 21.6 12C21.6 6.69842 17.3016 2.40002 12 2.40002Z" fill="#AAAAAA"/>
</svg>
