<svg width="304" height="135" viewBox="0 0 304 135" fill="none" xmlns="http://www.w3.org/2000/svg">
<rect x="16.6855" y="0.5" width="124" height="47" rx="15.5" stroke="#555555"/>
<path d="M60.1562 15.939C60.1562 16.4943 60.2309 16.9937 60.3802 17.437C60.5296 17.8757 60.7419 18.249 61.0172 18.557C61.2972 18.8603 61.6332 19.0937 62.0252 19.257C62.4219 19.4203 62.8676 19.502 63.3622 19.502C63.8569 19.502 64.3002 19.4203 64.6922 19.257C65.0889 19.0937 65.4249 18.8603 65.7002 18.557C65.9756 18.249 66.1879 17.8757 66.3372 17.437C66.4866 16.9937 66.5612 16.4943 66.5612 15.939C66.5612 15.3837 66.4866 14.8867 66.3372 14.448C66.1879 14.0047 65.9756 13.629 65.7002 13.321C65.4249 13.013 65.0889 12.7773 64.6922 12.614C64.3002 12.4507 63.8569 12.369 63.3622 12.369C62.8676 12.369 62.4219 12.4507 62.0252 12.614C61.6332 12.7773 61.2972 13.013 61.0172 13.321C60.7419 13.629 60.5296 14.0047 60.3802 14.448C60.2309 14.8867 60.1562 15.3837 60.1562 15.939ZM69.0112 22.981H67.4572C67.2332 22.981 67.0302 22.9507 66.8482 22.89C66.6709 22.8293 66.5076 22.7173 66.3582 22.554L64.8742 20.916C64.6362 20.9813 64.3912 21.0303 64.1392 21.063C63.8919 21.0957 63.6329 21.112 63.3622 21.112C62.5969 21.112 61.8992 20.9837 61.2692 20.727C60.6392 20.4657 60.0979 20.104 59.6452 19.642C59.1972 19.18 58.8496 18.634 58.6022 18.004C58.3549 17.3693 58.2312 16.681 58.2312 15.939C58.2312 15.197 58.3549 14.511 58.6022 13.881C58.8496 13.2463 59.1972 12.698 59.6452 12.236C60.0979 11.774 60.6392 11.4147 61.2692 11.158C61.8992 10.8967 62.5969 10.766 63.3622 10.766C63.8756 10.766 64.3586 10.8267 64.8112 10.948C65.2639 11.0647 65.6792 11.2327 66.0572 11.452C66.4352 11.6667 66.7736 11.9303 67.0722 12.243C67.3756 12.551 67.6322 12.8963 67.8422 13.279C68.0522 13.6617 68.2109 14.077 68.3182 14.525C68.4302 14.973 68.4862 15.4443 68.4862 15.939C68.4862 16.3917 68.4396 16.8257 68.3462 17.241C68.2529 17.6517 68.1176 18.0367 67.9402 18.396C67.7676 18.7553 67.5552 19.0867 67.3032 19.39C67.0512 19.6887 66.7642 19.9523 66.4422 20.181L69.0112 22.981ZM75.9522 13.818V21H74.8952C74.6665 21 74.5218 20.895 74.4612 20.685L74.3422 20.111C74.0482 20.4097 73.7238 20.6523 73.3692 20.839C73.0145 21.021 72.5968 21.112 72.1162 21.112C71.7242 21.112 71.3765 21.0467 71.0732 20.916C70.7745 20.7807 70.5225 20.5917 70.3172 20.349C70.1118 20.1063 69.9555 19.8193 69.8482 19.488C69.7455 19.152 69.6942 18.7833 69.6942 18.382V13.818H71.4232V18.382C71.4232 18.8207 71.5235 19.1613 71.7242 19.404C71.9295 19.642 72.2352 19.761 72.6412 19.761C72.9398 19.761 73.2198 19.6957 73.4812 19.565C73.7425 19.4297 73.9898 19.2453 74.2232 19.012V13.818H75.9522ZM82.2935 16.583C82.2935 16.359 82.2608 16.149 82.1955 15.953C82.1348 15.7523 82.0415 15.5773 81.9155 15.428C81.7895 15.2787 81.6285 15.162 81.4325 15.078C81.2412 14.9893 81.0172 14.945 80.7605 14.945C80.2612 14.945 79.8668 15.0873 79.5775 15.372C79.2928 15.6567 79.1108 16.0603 79.0315 16.583H82.2935ZM78.9965 17.626C79.0245 17.9947 79.0898 18.3143 79.1925 18.585C79.2952 18.851 79.4305 19.0727 79.5985 19.25C79.7665 19.4227 79.9648 19.5533 80.1935 19.642C80.4268 19.726 80.6835 19.768 80.9635 19.768C81.2435 19.768 81.4838 19.7353 81.6845 19.67C81.8898 19.6047 82.0672 19.5323 82.2165 19.453C82.3705 19.3737 82.5035 19.3013 82.6155 19.236C82.7322 19.1707 82.8442 19.138 82.9515 19.138C83.0962 19.138 83.2035 19.1917 83.2735 19.299L83.7705 19.929C83.5792 20.153 83.3645 20.342 83.1265 20.496C82.8885 20.6453 82.6388 20.7667 82.3775 20.86C82.1208 20.9487 81.8572 21.0117 81.5865 21.049C81.3205 21.0863 81.0615 21.105 80.8095 21.105C80.3102 21.105 79.8458 21.0233 79.4165 20.86C78.9872 20.692 78.6138 20.447 78.2965 20.125C77.9792 19.7983 77.7295 19.397 77.5475 18.921C77.3655 18.4403 77.2745 17.885 77.2745 17.255C77.2745 16.765 77.3538 16.3053 77.5125 15.876C77.6712 15.442 77.8975 15.0663 78.1915 14.749C78.4902 14.427 78.8518 14.1727 79.2765 13.986C79.7058 13.7993 80.1888 13.706 80.7255 13.706C81.1782 13.706 81.5958 13.7783 81.9785 13.923C82.3612 14.0677 82.6902 14.28 82.9655 14.56C83.2408 14.8353 83.4555 15.176 83.6095 15.582C83.7682 15.9833 83.8475 16.443 83.8475 16.961C83.8475 17.2223 83.8195 17.3997 83.7635 17.493C83.7075 17.5817 83.6002 17.626 83.4415 17.626H78.9965ZM91.333 13.818V21H90.276C90.0473 21 89.9027 20.895 89.842 20.685L89.723 20.111C89.429 20.4097 89.1047 20.6523 88.75 20.839C88.3953 21.021 87.9777 21.112 87.497 21.112C87.105 21.112 86.7573 21.0467 86.454 20.916C86.1553 20.7807 85.9033 20.5917 85.698 20.349C85.4927 20.1063 85.3363 19.8193 85.229 19.488C85.1263 19.152 85.075 18.7833 85.075 18.382V13.818H86.804V18.382C86.804 18.8207 86.9043 19.1613 87.105 19.404C87.3103 19.642 87.616 19.761 88.022 19.761C88.3207 19.761 88.6007 19.6957 88.862 19.565C89.1233 19.4297 89.3707 19.2453 89.604 19.012V13.818H91.333ZM97.6744 16.583C97.6744 16.359 97.6417 16.149 97.5764 15.953C97.5157 15.7523 97.4224 15.5773 97.2964 15.428C97.1704 15.2787 97.0094 15.162 96.8134 15.078C96.622 14.9893 96.398 14.945 96.1414 14.945C95.642 14.945 95.2477 15.0873 94.9584 15.372C94.6737 15.6567 94.4917 16.0603 94.4124 16.583H97.6744ZM94.3774 17.626C94.4054 17.9947 94.4707 18.3143 94.5734 18.585C94.676 18.851 94.8114 19.0727 94.9794 19.25C95.1474 19.4227 95.3457 19.5533 95.5744 19.642C95.8077 19.726 96.0644 19.768 96.3444 19.768C96.6244 19.768 96.8647 19.7353 97.0654 19.67C97.2707 19.6047 97.448 19.5323 97.5974 19.453C97.7514 19.3737 97.8844 19.3013 97.9964 19.236C98.113 19.1707 98.225 19.138 98.3324 19.138C98.477 19.138 98.5844 19.1917 98.6544 19.299L99.1514 19.929C98.96 20.153 98.7454 20.342 98.5074 20.496C98.2694 20.6453 98.0197 20.7667 97.7584 20.86C97.5017 20.9487 97.238 21.0117 96.9674 21.049C96.7014 21.0863 96.4424 21.105 96.1904 21.105C95.691 21.105 95.2267 21.0233 94.7974 20.86C94.368 20.692 93.9947 20.447 93.6774 20.125C93.36 19.7983 93.1104 19.397 92.9284 18.921C92.7464 18.4403 92.6554 17.885 92.6554 17.255C92.6554 16.765 92.7347 16.3053 92.8934 15.876C93.052 15.442 93.2784 15.0663 93.5724 14.749C93.871 14.427 94.2327 14.1727 94.6574 13.986C95.0867 13.7993 95.5697 13.706 96.1064 13.706C96.559 13.706 96.9767 13.7783 97.3594 13.923C97.742 14.0677 98.071 14.28 98.3464 14.56C98.6217 14.8353 98.8364 15.176 98.9904 15.582C99.149 15.9833 99.2284 16.443 99.2284 16.961C99.2284 17.2223 99.2004 17.3997 99.1444 17.493C99.0884 17.5817 98.981 17.626 98.8224 17.626H94.3774Z" fill="white"/>
<path d="M45.6674 31.922V38H44.5994V31.922H45.6674ZM45.8954 30.014C45.8954 30.118 45.8734 30.216 45.8294 30.308C45.7894 30.396 45.7334 30.476 45.6614 30.548C45.5934 30.616 45.5114 30.67 45.4154 30.71C45.3234 30.75 45.2254 30.77 45.1214 30.77C45.0174 30.77 44.9194 30.75 44.8274 30.71C44.7394 30.67 44.6614 30.616 44.5934 30.548C44.5254 30.476 44.4714 30.396 44.4314 30.308C44.3914 30.216 44.3714 30.118 44.3714 30.014C44.3714 29.91 44.3914 29.812 44.4314 29.72C44.4714 29.624 44.5254 29.542 44.5934 29.474C44.6614 29.402 44.7394 29.346 44.8274 29.306C44.9194 29.266 45.0174 29.246 45.1214 29.246C45.2254 29.246 45.3234 29.266 45.4154 29.306C45.5114 29.346 45.5934 29.402 45.6614 29.474C45.7334 29.542 45.7894 29.624 45.8294 29.72C45.8734 29.812 45.8954 29.91 45.8954 30.014ZM48.4302 32.804C48.5622 32.656 48.7022 32.522 48.8502 32.402C48.9982 32.282 49.1542 32.18 49.3182 32.096C49.4862 32.008 49.6622 31.942 49.8462 31.898C50.0342 31.85 50.2362 31.826 50.4522 31.826C50.7842 31.826 51.0762 31.882 51.3282 31.994C51.5842 32.102 51.7962 32.258 51.9642 32.462C52.1362 32.662 52.2662 32.904 52.3542 33.188C52.4422 33.472 52.4862 33.786 52.4862 34.13V38H51.4122V34.13C51.4122 33.67 51.3062 33.314 51.0942 33.062C50.8862 32.806 50.5682 32.678 50.1402 32.678C49.8242 32.678 49.5282 32.754 49.2522 32.906C48.9802 33.058 48.7282 33.264 48.4962 33.524V38H47.4222V31.922H48.0642C48.2162 31.922 48.3102 31.996 48.3462 32.144L48.4302 32.804ZM59.0499 38.096C58.5699 38.096 58.1999 37.962 57.9399 37.694C57.6839 37.426 57.5559 37.04 57.5559 36.536V32.816H56.8239C56.7599 32.816 56.7059 32.798 56.6619 32.762C56.6179 32.722 56.5959 32.662 56.5959 32.582V32.156L57.5919 32.03L57.8379 30.152C57.8499 30.092 57.8759 30.044 57.9159 30.008C57.9599 29.968 58.0159 29.948 58.0839 29.948H58.6239V32.042H60.3819V32.816H58.6239V36.464C58.6239 36.72 58.6859 36.91 58.8099 37.034C58.9339 37.158 59.0939 37.22 59.2899 37.22C59.4019 37.22 59.4979 37.206 59.5779 37.178C59.6619 37.146 59.7339 37.112 59.7939 37.076C59.8539 37.04 59.9039 37.008 59.9439 36.98C59.9879 36.948 60.0259 36.932 60.0579 36.932C60.1139 36.932 60.1639 36.966 60.2079 37.034L60.5199 37.544C60.3359 37.716 60.1139 37.852 59.8539 37.952C59.5939 38.048 59.3259 38.096 59.0499 38.096ZM62.5587 32.732C62.8187 32.456 63.1067 32.236 63.4227 32.072C63.7387 31.908 64.1027 31.826 64.5147 31.826C64.8467 31.826 65.1387 31.882 65.3907 31.994C65.6467 32.102 65.8587 32.258 66.0267 32.462C66.1987 32.662 66.3287 32.904 66.4167 33.188C66.5047 33.472 66.5487 33.786 66.5487 34.13V38H65.4747V34.13C65.4747 33.67 65.3687 33.314 65.1567 33.062C64.9487 32.806 64.6307 32.678 64.2027 32.678C63.8867 32.678 63.5907 32.754 63.3147 32.906C63.0427 33.058 62.7907 33.264 62.5587 33.524V38H61.4847V29.162H62.5587V32.732ZM72.2441 34.298C72.2441 34.05 72.2081 33.824 72.1361 33.62C72.0681 33.412 71.9661 33.234 71.8301 33.086C71.6981 32.934 71.5361 32.818 71.3441 32.738C71.1521 32.654 70.9341 32.612 70.6901 32.612C70.1781 32.612 69.7721 32.762 69.4721 33.062C69.1761 33.358 68.9921 33.77 68.9201 34.298H72.2441ZM73.1081 37.148C72.9761 37.308 72.8181 37.448 72.6341 37.568C72.4501 37.684 72.2521 37.78 72.0401 37.856C71.8321 37.932 71.6161 37.988 71.3921 38.024C71.1681 38.064 70.9461 38.084 70.7261 38.084C70.3061 38.084 69.9181 38.014 69.5621 37.874C69.2101 37.73 68.9041 37.522 68.6441 37.25C68.3881 36.974 68.1881 36.634 68.0441 36.23C67.9001 35.826 67.8281 35.362 67.8281 34.838C67.8281 34.414 67.8921 34.018 68.0201 33.65C68.1521 33.282 68.3401 32.964 68.5841 32.696C68.8281 32.424 69.1261 32.212 69.4781 32.06C69.8301 31.904 70.2261 31.826 70.6661 31.826C71.0301 31.826 71.3661 31.888 71.6741 32.012C71.9861 32.132 72.2541 32.308 72.4781 32.54C72.7061 32.768 72.8841 33.052 73.0121 33.392C73.1401 33.728 73.2041 34.112 73.2041 34.544C73.2041 34.712 73.1861 34.824 73.1501 34.88C73.1141 34.936 73.0461 34.964 72.9461 34.964H68.8841C68.8961 35.348 68.9481 35.682 69.0401 35.966C69.1361 36.25 69.2681 36.488 69.4361 36.68C69.6041 36.868 69.8041 37.01 70.0361 37.106C70.2681 37.198 70.5281 37.244 70.8161 37.244C71.0841 37.244 71.3141 37.214 71.5061 37.154C71.7021 37.09 71.8701 37.022 72.0101 36.95C72.1501 36.878 72.2661 36.812 72.3581 36.752C72.4541 36.688 72.5361 36.656 72.6041 36.656C72.6921 36.656 72.7601 36.69 72.8081 36.758L73.1081 37.148ZM81.1262 32.924C81.0782 33.012 81.0042 33.056 80.9042 33.056C80.8442 33.056 80.7762 33.034 80.7002 32.99C80.6242 32.946 80.5302 32.898 80.4182 32.846C80.3102 32.79 80.1802 32.74 80.0282 32.696C79.8762 32.648 79.6962 32.624 79.4882 32.624C79.3082 32.624 79.1462 32.648 79.0022 32.696C78.8582 32.74 78.7342 32.802 78.6302 32.882C78.5302 32.962 78.4522 33.056 78.3962 33.164C78.3442 33.268 78.3182 33.382 78.3182 33.506C78.3182 33.662 78.3622 33.792 78.4502 33.896C78.5422 34 78.6622 34.09 78.8102 34.166C78.9582 34.242 79.1262 34.31 79.3142 34.37C79.5022 34.426 79.6942 34.488 79.8902 34.556C80.0902 34.62 80.2842 34.692 80.4722 34.772C80.6602 34.852 80.8282 34.952 80.9762 35.072C81.1242 35.192 81.2422 35.34 81.3302 35.516C81.4222 35.688 81.4682 35.896 81.4682 36.14C81.4682 36.42 81.4182 36.68 81.3182 36.92C81.2182 37.156 81.0702 37.362 80.8742 37.538C80.6782 37.71 80.4382 37.846 80.1542 37.946C79.8702 38.046 79.5422 38.096 79.1702 38.096C78.7462 38.096 78.3622 38.028 78.0182 37.892C77.6742 37.752 77.3822 37.574 77.1422 37.358L77.3942 36.95C77.4262 36.898 77.4642 36.858 77.5082 36.83C77.5522 36.802 77.6082 36.788 77.6762 36.788C77.7482 36.788 77.8242 36.816 77.9042 36.872C77.9842 36.928 78.0802 36.99 78.1922 37.058C78.3082 37.126 78.4482 37.188 78.6122 37.244C78.7762 37.3 78.9802 37.328 79.2242 37.328C79.4322 37.328 79.6142 37.302 79.7702 37.25C79.9262 37.194 80.0562 37.12 80.1602 37.028C80.2642 36.936 80.3402 36.83 80.3882 36.71C80.4402 36.59 80.4662 36.462 80.4662 36.326C80.4662 36.158 80.4202 36.02 80.3282 35.912C80.2402 35.8 80.1222 35.706 79.9742 35.63C79.8262 35.55 79.6562 35.482 79.4642 35.426C79.2762 35.366 79.0822 35.304 78.8822 35.24C78.6862 35.176 78.4922 35.104 78.3002 35.024C78.1122 34.94 77.9442 34.836 77.7962 34.712C77.6482 34.588 77.5282 34.436 77.4362 34.256C77.3482 34.072 77.3042 33.85 77.3042 33.59C77.3042 33.358 77.3522 33.136 77.4482 32.924C77.5442 32.708 77.6842 32.52 77.8682 32.36C78.0522 32.196 78.2782 32.066 78.5462 31.97C78.8142 31.874 79.1202 31.826 79.4642 31.826C79.8642 31.826 80.2222 31.89 80.5382 32.018C80.8582 32.142 81.1342 32.314 81.3662 32.534L81.1262 32.924ZM86.8456 34.298C86.8456 34.05 86.8096 33.824 86.7376 33.62C86.6696 33.412 86.5676 33.234 86.4316 33.086C86.2996 32.934 86.1376 32.818 85.9456 32.738C85.7536 32.654 85.5356 32.612 85.2916 32.612C84.7796 32.612 84.3736 32.762 84.0736 33.062C83.7776 33.358 83.5936 33.77 83.5216 34.298H86.8456ZM87.7096 37.148C87.5776 37.308 87.4196 37.448 87.2356 37.568C87.0516 37.684 86.8536 37.78 86.6416 37.856C86.4336 37.932 86.2176 37.988 85.9936 38.024C85.7696 38.064 85.5476 38.084 85.3276 38.084C84.9076 38.084 84.5196 38.014 84.1636 37.874C83.8116 37.73 83.5056 37.522 83.2456 37.25C82.9896 36.974 82.7896 36.634 82.6456 36.23C82.5016 35.826 82.4296 35.362 82.4296 34.838C82.4296 34.414 82.4936 34.018 82.6216 33.65C82.7536 33.282 82.9416 32.964 83.1856 32.696C83.4296 32.424 83.7276 32.212 84.0796 32.06C84.4316 31.904 84.8276 31.826 85.2676 31.826C85.6316 31.826 85.9676 31.888 86.2756 32.012C86.5876 32.132 86.8556 32.308 87.0796 32.54C87.3076 32.768 87.4856 33.052 87.6136 33.392C87.7416 33.728 87.8056 34.112 87.8056 34.544C87.8056 34.712 87.7876 34.824 87.7516 34.88C87.7156 34.936 87.6476 34.964 87.5476 34.964H83.4856C83.4976 35.348 83.5496 35.682 83.6416 35.966C83.7376 36.25 83.8696 36.488 84.0376 36.68C84.2056 36.868 84.4056 37.01 84.6376 37.106C84.8696 37.198 85.1296 37.244 85.4176 37.244C85.6856 37.244 85.9156 37.214 86.1076 37.154C86.3036 37.09 86.4716 37.022 86.6116 36.95C86.7516 36.878 86.8676 36.812 86.9596 36.752C87.0556 36.688 87.1376 36.656 87.2056 36.656C87.2936 36.656 87.3616 36.69 87.4096 36.758L87.7096 37.148ZM90.1315 33.14C90.3235 32.724 90.5595 32.4 90.8395 32.168C91.1195 31.932 91.4615 31.814 91.8655 31.814C91.9935 31.814 92.1155 31.828 92.2315 31.856C92.3515 31.884 92.4575 31.928 92.5495 31.988L92.4715 32.786C92.4475 32.886 92.3875 32.936 92.2915 32.936C92.2355 32.936 92.1535 32.924 92.0455 32.9C91.9375 32.876 91.8155 32.864 91.6795 32.864C91.4875 32.864 91.3155 32.892 91.1635 32.948C91.0155 33.004 90.8815 33.088 90.7615 33.2C90.6455 33.308 90.5395 33.444 90.4435 33.608C90.3515 33.768 90.2675 33.952 90.1915 34.16V38H89.1175V31.922H89.7295C89.8455 31.922 89.9255 31.944 89.9695 31.988C90.0135 32.032 90.0435 32.108 90.0595 32.216L90.1315 33.14ZM98.6966 31.922L96.2186 38H95.2586L92.7806 31.922H93.6506C93.7386 31.922 93.8106 31.944 93.8666 31.988C93.9226 32.032 93.9606 32.084 93.9806 32.144L95.5226 36.056C95.5706 36.204 95.6126 36.348 95.6486 36.488C95.6846 36.628 95.7186 36.768 95.7506 36.908C95.7826 36.768 95.8166 36.628 95.8526 36.488C95.8886 36.348 95.9326 36.204 95.9846 36.056L97.5446 32.144C97.5686 32.08 97.6086 32.028 97.6646 31.988C97.7206 31.944 97.7866 31.922 97.8626 31.922H98.6966ZM100.804 31.922V38H99.7361V31.922H100.804ZM101.032 30.014C101.032 30.118 101.01 30.216 100.966 30.308C100.926 30.396 100.87 30.476 100.798 30.548C100.73 30.616 100.648 30.67 100.552 30.71C100.46 30.75 100.362 30.77 100.258 30.77C100.154 30.77 100.056 30.75 99.9641 30.71C99.8761 30.67 99.7981 30.616 99.7301 30.548C99.6621 30.476 99.6081 30.396 99.5681 30.308C99.5281 30.216 99.5081 30.118 99.5081 30.014C99.5081 29.91 99.5281 29.812 99.5681 29.72C99.6081 29.624 99.6621 29.542 99.7301 29.474C99.7981 29.402 99.8761 29.346 99.9641 29.306C100.056 29.266 100.154 29.246 100.258 29.246C100.362 29.246 100.46 29.266 100.552 29.306C100.648 29.346 100.73 29.402 100.798 29.474C100.87 29.542 100.926 29.624 100.966 29.72C101.01 29.812 101.032 29.91 101.032 30.014ZM106.789 33.002C106.757 33.046 106.725 33.08 106.693 33.104C106.661 33.128 106.617 33.14 106.561 33.14C106.501 33.14 106.435 33.116 106.363 33.068C106.291 33.016 106.201 32.96 106.093 32.9C105.989 32.84 105.859 32.786 105.703 32.738C105.551 32.686 105.363 32.66 105.139 32.66C104.839 32.66 104.575 32.714 104.347 32.822C104.119 32.926 103.927 33.078 103.771 33.278C103.619 33.478 103.503 33.72 103.423 34.004C103.347 34.288 103.309 34.606 103.309 34.958C103.309 35.326 103.351 35.654 103.435 35.942C103.519 36.226 103.637 36.466 103.789 36.662C103.945 36.854 104.131 37.002 104.347 37.106C104.567 37.206 104.813 37.256 105.085 37.256C105.345 37.256 105.559 37.226 105.727 37.166C105.895 37.102 106.033 37.032 106.141 36.956C106.253 36.88 106.345 36.812 106.417 36.752C106.493 36.688 106.567 36.656 106.639 36.656C106.727 36.656 106.795 36.69 106.843 36.758L107.143 37.148C107.011 37.312 106.861 37.452 106.693 37.568C106.525 37.684 106.343 37.782 106.147 37.862C105.955 37.938 105.753 37.994 105.541 38.03C105.329 38.066 105.113 38.084 104.893 38.084C104.513 38.084 104.159 38.014 103.831 37.874C103.507 37.734 103.225 37.532 102.985 37.268C102.745 37 102.557 36.672 102.421 36.284C102.285 35.896 102.217 35.454 102.217 34.958C102.217 34.506 102.279 34.088 102.403 33.704C102.531 33.32 102.715 32.99 102.955 32.714C103.199 32.434 103.497 32.216 103.849 32.06C104.205 31.904 104.613 31.826 105.073 31.826C105.501 31.826 105.877 31.896 106.201 32.036C106.529 32.172 106.819 32.366 107.071 32.618L106.789 33.002ZM112.252 34.298C112.252 34.05 112.216 33.824 112.144 33.62C112.076 33.412 111.974 33.234 111.838 33.086C111.706 32.934 111.544 32.818 111.352 32.738C111.16 32.654 110.942 32.612 110.698 32.612C110.186 32.612 109.78 32.762 109.48 33.062C109.184 33.358 109 33.77 108.928 34.298H112.252ZM113.116 37.148C112.984 37.308 112.826 37.448 112.642 37.568C112.458 37.684 112.26 37.78 112.048 37.856C111.84 37.932 111.624 37.988 111.4 38.024C111.176 38.064 110.954 38.084 110.734 38.084C110.314 38.084 109.926 38.014 109.57 37.874C109.218 37.73 108.912 37.522 108.652 37.25C108.396 36.974 108.196 36.634 108.052 36.23C107.908 35.826 107.836 35.362 107.836 34.838C107.836 34.414 107.9 34.018 108.028 33.65C108.16 33.282 108.348 32.964 108.592 32.696C108.836 32.424 109.134 32.212 109.486 32.06C109.838 31.904 110.234 31.826 110.674 31.826C111.038 31.826 111.374 31.888 111.682 32.012C111.994 32.132 112.262 32.308 112.486 32.54C112.714 32.768 112.892 33.052 113.02 33.392C113.148 33.728 113.212 34.112 113.212 34.544C113.212 34.712 113.194 34.824 113.158 34.88C113.122 34.936 113.054 34.964 112.954 34.964H108.892C108.904 35.348 108.956 35.682 109.048 35.966C109.144 36.25 109.276 36.488 109.444 36.68C109.612 36.868 109.812 37.01 110.044 37.106C110.276 37.198 110.536 37.244 110.824 37.244C111.092 37.244 111.322 37.214 111.514 37.154C111.71 37.09 111.878 37.022 112.018 36.95C112.158 36.878 112.274 36.812 112.366 36.752C112.462 36.688 112.544 36.656 112.612 36.656C112.7 36.656 112.768 36.69 112.816 36.758L113.116 37.148Z" fill="#555555"/>
<line x1="79.3145" y1="48" x2="79.3145" y2="135" stroke="#555555" stroke-dasharray="2 2"/>
<rect x="75.8145" y="69" width="7" height="66" rx="2" fill="#3A3A3A"/>
<rect x="80.4434" y="105" width="7" height="20" rx="2" fill="#555555"/>
<path d="M97.4432 91.0002L97.4432 91.5002L97.4432 91.0002ZM99.4432 93.0002L98.9432 93.0002V93.0002L99.4432 93.0002ZM99.4433 113L99.9433 113L99.4433 113ZM97.4433 115L97.4433 114.5L97.4433 115ZM89.0897 114.646C88.8945 114.841 88.8945 115.158 89.0897 115.353L92.2717 118.535C92.467 118.731 92.7836 118.731 92.9788 118.535C93.1741 118.34 93.1741 118.023 92.9788 117.828L90.1504 115L92.9788 112.171C93.1741 111.976 93.1741 111.659 92.9788 111.464C92.7836 111.269 92.467 111.269 92.2717 111.464L89.0897 114.646ZM84.4434 91.5L97.4432 91.5002L97.4432 90.5002L84.4434 90.5L84.4434 91.5ZM98.9432 93.0002L98.9433 113L99.9433 113L99.9432 93.0002L98.9432 93.0002ZM97.4433 114.5L89.4433 114.5L89.4433 115.5L97.4433 115.5L97.4433 114.5ZM98.9433 113C98.9433 113.828 98.2717 114.5 97.4433 114.5L97.4433 115.5C98.824 115.5 99.9433 114.38 99.9433 113L98.9433 113ZM97.4432 91.5002C98.2716 91.5003 98.9432 92.1718 98.9432 93.0002L99.9432 93.0002C99.9432 91.6195 98.8239 90.5003 97.4432 90.5002L97.4432 91.5002Z" fill="#555555"/>
<path d="M111.534 106L110.844 102.14L110.104 106H108.944L107.994 100.73H108.844L109.524 105.48L110.364 101.4H111.354L112.144 105.48L112.824 100.73H113.634L112.724 106H111.534ZM118.371 100.62C118.584 100.62 118.831 100.657 119.111 100.73L118.991 102.52H118.311V101.39H118.261C117.447 101.39 116.871 101.97 116.531 103.13V105.35H117.601V106H114.861V105.35H115.691V101.38H114.861V100.73H116.321L116.481 101.98C116.694 101.527 116.947 101.187 117.241 100.96C117.541 100.733 117.917 100.62 118.371 100.62ZM122.807 98.27C122.993 98.27 123.143 98.3267 123.257 98.44C123.37 98.5467 123.427 98.6867 123.427 98.86C123.427 99.0333 123.37 99.1767 123.257 99.29C123.143 99.3967 122.993 99.45 122.807 99.45C122.627 99.45 122.48 99.3967 122.367 99.29C122.26 99.1767 122.207 99.0333 122.207 98.86C122.207 98.6867 122.26 98.5467 122.367 98.44C122.48 98.3267 122.627 98.27 122.807 98.27ZM123.477 105.33H124.957V106H121.017V105.33H122.637V101.4H121.067V100.73H123.477V105.33ZM130.993 105.73C130.813 105.85 130.593 105.943 130.333 106.01C130.079 106.077 129.826 106.11 129.573 106.11C129.019 106.11 128.586 105.967 128.273 105.68C127.959 105.387 127.803 105.003 127.803 104.53V101.39H126.593V100.73H127.803V99.54L128.643 99.44V100.73H130.473L130.363 101.39H128.643V104.52C128.643 104.82 128.723 105.043 128.883 105.19C129.043 105.337 129.299 105.41 129.653 105.41C130.013 105.41 130.349 105.327 130.663 105.16L130.993 105.73ZM133.469 103.66C133.489 104.24 133.639 104.677 133.919 104.97C134.205 105.263 134.565 105.41 134.999 105.41C135.259 105.41 135.495 105.373 135.709 105.3C135.929 105.22 136.162 105.1 136.409 104.94L136.799 105.5C136.552 105.693 136.269 105.843 135.949 105.95C135.635 106.057 135.319 106.11 134.999 106.11C134.239 106.11 133.645 105.863 133.219 105.37C132.799 104.87 132.589 104.203 132.589 103.37C132.589 102.843 132.682 102.373 132.869 101.96C133.055 101.54 133.322 101.213 133.669 100.98C134.015 100.74 134.419 100.62 134.879 100.62C135.545 100.62 136.069 100.853 136.449 101.32C136.835 101.78 137.029 102.41 137.029 103.21C137.029 103.363 137.022 103.513 137.009 103.66H133.469ZM134.889 101.31C134.482 101.31 134.152 101.457 133.899 101.75C133.645 102.037 133.502 102.46 133.469 103.02H136.209C136.202 102.467 136.082 102.043 135.849 101.75C135.615 101.457 135.295 101.31 134.889 101.31ZM148.571 104.85C148.571 105.057 148.604 105.21 148.671 105.31C148.738 105.403 148.848 105.473 149.001 105.52L148.791 106.12C148.278 106.053 147.958 105.803 147.831 105.37C147.644 105.61 147.408 105.793 147.121 105.92C146.841 106.047 146.528 106.11 146.181 106.11C145.654 106.11 145.238 105.963 144.931 105.67C144.631 105.377 144.481 104.983 144.481 104.49C144.481 103.95 144.691 103.533 145.111 103.24C145.538 102.947 146.148 102.8 146.941 102.8H147.721V102.37C147.721 101.997 147.614 101.73 147.401 101.57C147.188 101.403 146.878 101.32 146.471 101.32C146.071 101.32 145.614 101.41 145.101 101.59L144.871 100.95C145.491 100.73 146.068 100.62 146.601 100.62C147.241 100.62 147.728 100.77 148.061 101.07C148.401 101.37 148.571 101.787 148.571 102.32V104.85ZM146.391 105.48C146.651 105.48 146.898 105.413 147.131 105.28C147.371 105.147 147.568 104.963 147.721 104.73V103.38H146.961C146.401 103.38 145.998 103.473 145.751 103.66C145.504 103.847 145.381 104.12 145.381 104.48C145.381 105.147 145.718 105.48 146.391 105.48ZM153.267 106H152.297L150.387 100.73H151.287L152.807 105.24L154.307 100.73H155.187L153.267 106ZM160.563 104.85C160.563 105.057 160.597 105.21 160.663 105.31C160.73 105.403 160.84 105.473 160.993 105.52L160.783 106.12C160.27 106.053 159.95 105.803 159.823 105.37C159.637 105.61 159.4 105.793 159.113 105.92C158.833 106.047 158.52 106.11 158.173 106.11C157.647 106.11 157.23 105.963 156.923 105.67C156.623 105.377 156.473 104.983 156.473 104.49C156.473 103.95 156.683 103.533 157.103 103.24C157.53 102.947 158.14 102.8 158.933 102.8H159.713V102.37C159.713 101.997 159.607 101.73 159.393 101.57C159.18 101.403 158.87 101.32 158.463 101.32C158.063 101.32 157.607 101.41 157.093 101.59L156.863 100.95C157.483 100.73 158.06 100.62 158.593 100.62C159.233 100.62 159.72 100.77 160.053 101.07C160.393 101.37 160.563 101.787 160.563 102.32V104.85ZM158.383 105.48C158.643 105.48 158.89 105.413 159.123 105.28C159.363 105.147 159.56 104.963 159.713 104.73V103.38H158.953C158.393 103.38 157.99 103.473 157.743 103.66C157.497 103.847 157.373 104.12 157.373 104.48C157.373 105.147 157.71 105.48 158.383 105.48ZM164.779 98.27C164.966 98.27 165.116 98.3267 165.229 98.44C165.343 98.5467 165.399 98.6867 165.399 98.86C165.399 99.0333 165.343 99.1767 165.229 99.29C165.116 99.3967 164.966 99.45 164.779 99.45C164.599 99.45 164.453 99.3967 164.339 99.29C164.233 99.1767 164.179 99.0333 164.179 98.86C164.179 98.6867 164.233 98.5467 164.339 98.44C164.453 98.3267 164.599 98.27 164.779 98.27ZM165.449 105.33H166.929V106H162.989V105.33H164.609V101.4H163.039V100.73H165.449V105.33ZM170.835 104.7C170.835 105.173 171.125 105.41 171.705 105.41C171.979 105.41 172.272 105.35 172.585 105.23L172.805 105.84C172.472 106.02 172.055 106.11 171.555 106.11C171.082 106.11 170.702 105.98 170.415 105.72C170.135 105.46 169.995 105.107 169.995 104.66V99.28H168.375V98.61H170.835V104.7ZM178.551 104.85C178.551 105.057 178.585 105.21 178.651 105.31C178.718 105.403 178.828 105.473 178.981 105.52L178.771 106.12C178.258 106.053 177.938 105.803 177.811 105.37C177.625 105.61 177.388 105.793 177.101 105.92C176.821 106.047 176.508 106.11 176.161 106.11C175.635 106.11 175.218 105.963 174.911 105.67C174.611 105.377 174.461 104.983 174.461 104.49C174.461 103.95 174.671 103.533 175.091 103.24C175.518 102.947 176.128 102.8 176.921 102.8H177.701V102.37C177.701 101.997 177.595 101.73 177.381 101.57C177.168 101.403 176.858 101.32 176.451 101.32C176.051 101.32 175.595 101.41 175.081 101.59L174.851 100.95C175.471 100.73 176.048 100.62 176.581 100.62C177.221 100.62 177.708 100.77 178.041 101.07C178.381 101.37 178.551 101.787 178.551 102.32V104.85ZM176.371 105.48C176.631 105.48 176.878 105.413 177.111 105.28C177.351 105.147 177.548 104.963 177.701 104.73V103.38H176.941C176.381 103.38 175.978 103.473 175.731 103.66C175.485 103.847 175.361 104.12 175.361 104.48C175.361 105.147 175.698 105.48 176.371 105.48ZM181.608 101.42C182.014 100.887 182.518 100.62 183.118 100.62C183.791 100.62 184.288 100.86 184.608 101.34C184.928 101.82 185.088 102.493 185.088 103.36C185.088 104.187 184.904 104.853 184.538 105.36C184.171 105.86 183.658 106.11 182.998 106.11C182.391 106.11 181.914 105.89 181.568 105.45L181.508 106H180.768V98.61L181.608 98.51V101.42ZM182.808 105.43C183.248 105.43 183.584 105.257 183.818 104.91C184.058 104.563 184.178 104.047 184.178 103.36C184.178 102.68 184.071 102.167 183.858 101.82C183.651 101.473 183.341 101.3 182.928 101.3C182.661 101.3 182.414 101.38 182.188 101.54C181.968 101.7 181.774 101.9 181.608 102.14V104.75C181.748 104.963 181.921 105.13 182.128 105.25C182.334 105.37 182.561 105.43 182.808 105.43ZM188.764 98.27C188.95 98.27 189.1 98.3267 189.214 98.44C189.327 98.5467 189.384 98.6867 189.384 98.86C189.384 99.0333 189.327 99.1767 189.214 99.29C189.1 99.3967 188.95 99.45 188.764 99.45C188.584 99.45 188.437 99.3967 188.324 99.29C188.217 99.1767 188.164 99.0333 188.164 98.86C188.164 98.6867 188.217 98.5467 188.324 98.44C188.437 98.3267 188.584 98.27 188.764 98.27ZM189.434 105.33H190.914V106H186.974V105.33H188.594V101.4H187.024V100.73H189.434V105.33ZM194.82 104.7C194.82 105.173 195.11 105.41 195.69 105.41C195.963 105.41 196.256 105.35 196.57 105.23L196.79 105.84C196.456 106.02 196.04 106.11 195.54 106.11C195.066 106.11 194.686 105.98 194.4 105.72C194.12 105.46 193.98 105.107 193.98 104.66V99.28H192.36V98.61H194.82V104.7ZM200.756 98.27C200.943 98.27 201.093 98.3267 201.206 98.44C201.319 98.5467 201.376 98.6867 201.376 98.86C201.376 99.0333 201.319 99.1767 201.206 99.29C201.093 99.3967 200.943 99.45 200.756 99.45C200.576 99.45 200.429 99.3967 200.316 99.29C200.209 99.1767 200.156 99.0333 200.156 98.86C200.156 98.6867 200.209 98.5467 200.316 98.44C200.429 98.3267 200.576 98.27 200.756 98.27ZM201.426 105.33H202.906V106H198.966V105.33H200.586V101.4H199.016V100.73H201.426V105.33ZM208.942 105.73C208.762 105.85 208.542 105.943 208.282 106.01C208.029 106.077 207.775 106.11 207.522 106.11C206.969 106.11 206.535 105.967 206.222 105.68C205.909 105.387 205.752 105.003 205.752 104.53V101.39H204.542V100.73H205.752V99.54L206.592 99.44V100.73H208.422L208.312 101.39H206.592V104.52C206.592 104.82 206.672 105.043 206.832 105.19C206.992 105.337 207.249 105.41 207.602 105.41C207.962 105.41 208.299 105.327 208.612 105.16L208.942 105.73ZM213.288 106.03C213.081 106.637 212.798 107.12 212.438 107.48C212.078 107.84 211.575 108.053 210.928 108.12L210.808 107.45C211.161 107.39 211.441 107.297 211.648 107.17C211.861 107.05 212.028 106.897 212.148 106.71C212.268 106.53 212.378 106.293 212.478 106H212.198L210.368 100.73H211.258L212.768 105.36L214.258 100.73H215.128L213.288 106.03ZM224.74 98.27C224.927 98.27 225.077 98.3267 225.19 98.44C225.304 98.5467 225.36 98.6867 225.36 98.86C225.36 99.0333 225.304 99.1767 225.19 99.29C225.077 99.3967 224.927 99.45 224.74 99.45C224.56 99.45 224.414 99.3967 224.3 99.29C224.194 99.1767 224.14 99.0333 224.14 98.86C224.14 98.6867 224.194 98.5467 224.3 98.44C224.414 98.3267 224.56 98.27 224.74 98.27ZM225.41 105.33H226.89V106H222.95V105.33H224.57V101.4H223V100.73H225.41V105.33ZM228.736 100.73H229.456L229.526 101.47C229.733 101.203 229.993 100.997 230.306 100.85C230.626 100.697 230.946 100.62 231.266 100.62C232.253 100.62 232.746 101.14 232.746 102.18V106H231.906V102.8C231.906 102.407 231.883 102.107 231.836 101.9C231.796 101.693 231.713 101.54 231.586 101.44C231.46 101.34 231.266 101.29 231.006 101.29C230.72 101.29 230.45 101.377 230.196 101.55C229.943 101.723 229.736 101.93 229.576 102.17V106H228.736V100.73ZM240.289 106L242.229 103.22L240.519 100.73H241.519L242.739 102.69L243.969 100.73H244.939L243.229 103.18L245.169 106H244.149L242.699 103.74L241.249 106H240.289ZM250.195 100.62C250.495 100.62 250.738 100.727 250.925 100.94C251.118 101.147 251.215 101.527 251.215 102.08V106H250.445V102.22C250.445 101.853 250.421 101.607 250.375 101.48C250.328 101.347 250.215 101.28 250.035 101.28C249.695 101.28 249.388 101.49 249.115 101.91V106H248.335V102.22C248.335 101.853 248.311 101.607 248.265 101.48C248.218 101.347 248.105 101.28 247.925 101.28C247.585 101.28 247.278 101.49 247.005 101.91V106H246.235V100.73H246.885L246.945 101.35C247.105 101.117 247.271 100.937 247.445 100.81C247.625 100.683 247.838 100.62 248.085 100.62C248.578 100.62 248.895 100.853 249.035 101.32C249.195 101.093 249.365 100.92 249.545 100.8C249.725 100.68 249.941 100.62 250.195 100.62ZM254.781 104.7C254.781 105.173 255.071 105.41 255.651 105.41C255.924 105.41 256.217 105.35 256.531 105.23L256.751 105.84C256.417 106.02 256.001 106.11 255.501 106.11C255.027 106.11 254.647 105.98 254.361 105.72C254.081 105.46 253.941 105.107 253.941 104.66V99.28H252.321V98.61H254.781V104.7ZM267.823 98.51C268.323 98.51 268.8 98.6033 269.253 98.79L268.983 99.42C268.65 99.2733 268.273 99.2 267.853 99.2C267.12 99.2 266.753 99.49 266.753 100.07V101.14H268.533L268.443 101.81H266.753V106H265.903V101.81H264.653V101.14H265.903V100.09C265.903 99.6167 266.083 99.2367 266.443 98.95C266.81 98.6567 267.27 98.51 267.823 98.51ZM272.709 98.27C272.896 98.27 273.046 98.3267 273.159 98.44C273.272 98.5467 273.329 98.6867 273.329 98.86C273.329 99.0333 273.272 99.1767 273.159 99.29C273.046 99.3967 272.896 99.45 272.709 99.45C272.529 99.45 272.382 99.3967 272.269 99.29C272.162 99.1767 272.109 99.0333 272.109 98.86C272.109 98.6867 272.162 98.5467 272.269 98.44C272.382 98.3267 272.529 98.27 272.709 98.27ZM273.379 105.33H274.859V106H270.919V105.33H272.539V101.4H270.969V100.73H273.379V105.33ZM278.765 104.7C278.765 105.173 279.055 105.41 279.635 105.41C279.908 105.41 280.202 105.35 280.515 105.23L280.735 105.84C280.402 106.02 279.985 106.11 279.485 106.11C279.012 106.11 278.632 105.98 278.345 105.72C278.065 105.46 277.925 105.107 277.925 104.66V99.28H276.305V98.61H278.765V104.7ZM283.371 103.66C283.391 104.24 283.541 104.677 283.821 104.97C284.108 105.263 284.468 105.41 284.901 105.41C285.161 105.41 285.398 105.373 285.611 105.3C285.831 105.22 286.065 105.1 286.311 104.94L286.701 105.5C286.455 105.693 286.171 105.843 285.851 105.95C285.538 106.057 285.221 106.11 284.901 106.11C284.141 106.11 283.548 105.863 283.121 105.37C282.701 104.87 282.491 104.203 282.491 103.37C282.491 102.843 282.585 102.373 282.771 101.96C282.958 101.54 283.225 101.213 283.571 100.98C283.918 100.74 284.321 100.62 284.781 100.62C285.448 100.62 285.971 100.853 286.351 101.32C286.738 101.78 286.931 102.41 286.931 103.21C286.931 103.363 286.925 103.513 286.911 103.66H283.371ZM284.791 101.31C284.385 101.31 284.055 101.457 283.801 101.75C283.548 102.037 283.405 102.46 283.371 103.02H286.111C286.105 102.467 285.985 102.043 285.751 101.75C285.518 101.457 285.198 101.31 284.791 101.31Z" fill="white"/>
</svg>
