<svg width="304" height="135" viewBox="0 0 304 135" fill="none" xmlns="http://www.w3.org/2000/svg">
<rect x="31.8711" y="0.5" width="124" height="47" rx="15.5" stroke="#555555"/>
<path d="M75.3418 15.939C75.3418 16.4943 75.4164 16.9937 75.5658 17.437C75.7151 17.8757 75.9274 18.249 76.2028 18.557C76.4828 18.8603 76.8188 19.0937 77.2108 19.257C77.6074 19.4203 78.0531 19.502 78.5478 19.502C79.0424 19.502 79.4858 19.4203 79.8778 19.257C80.2744 19.0937 80.6104 18.8603 80.8858 18.557C81.1611 18.249 81.3734 17.8757 81.5228 17.437C81.6721 16.9937 81.7468 16.4943 81.7468 15.939C81.7468 15.3837 81.6721 14.8867 81.5228 14.448C81.3734 14.0047 81.1611 13.629 80.8858 13.321C80.6104 13.013 80.2744 12.7773 79.8778 12.614C79.4858 12.4507 79.0424 12.369 78.5478 12.369C78.0531 12.369 77.6074 12.4507 77.2108 12.614C76.8188 12.7773 76.4828 13.013 76.2028 13.321C75.9274 13.629 75.7151 14.0047 75.5658 14.448C75.4164 14.8867 75.3418 15.3837 75.3418 15.939ZM84.1968 22.981H82.6428C82.4188 22.981 82.2158 22.9507 82.0338 22.89C81.8564 22.8293 81.6931 22.7173 81.5438 22.554L80.0598 20.916C79.8218 20.9813 79.5768 21.0303 79.3248 21.063C79.0774 21.0957 78.8184 21.112 78.5478 21.112C77.7824 21.112 77.0848 20.9837 76.4548 20.727C75.8248 20.4657 75.2834 20.104 74.8308 19.642C74.3828 19.18 74.0351 18.634 73.7878 18.004C73.5404 17.3693 73.4168 16.681 73.4168 15.939C73.4168 15.197 73.5404 14.511 73.7878 13.881C74.0351 13.2463 74.3828 12.698 74.8308 12.236C75.2834 11.774 75.8248 11.4147 76.4548 11.158C77.0848 10.8967 77.7824 10.766 78.5478 10.766C79.0611 10.766 79.5441 10.8267 79.9968 10.948C80.4494 11.0647 80.8648 11.2327 81.2428 11.452C81.6208 11.6667 81.9591 11.9303 82.2578 12.243C82.5611 12.551 82.8178 12.8963 83.0278 13.279C83.2378 13.6617 83.3964 14.077 83.5038 14.525C83.6158 14.973 83.6718 15.4443 83.6718 15.939C83.6718 16.3917 83.6251 16.8257 83.5318 17.241C83.4384 17.6517 83.3031 18.0367 83.1258 18.396C82.9531 18.7553 82.7408 19.0867 82.4888 19.39C82.2368 19.6887 81.9498 19.9523 81.6278 20.181L84.1968 22.981ZM91.1377 13.818V21H90.0807C89.852 21 89.7074 20.895 89.6467 20.685L89.5277 20.111C89.2337 20.4097 88.9094 20.6523 88.5547 20.839C88.2 21.021 87.7824 21.112 87.3017 21.112C86.9097 21.112 86.562 21.0467 86.2587 20.916C85.96 20.7807 85.708 20.5917 85.5027 20.349C85.2974 20.1063 85.141 19.8193 85.0337 19.488C84.931 19.152 84.8797 18.7833 84.8797 18.382V13.818H86.6087V18.382C86.6087 18.8207 86.709 19.1613 86.9097 19.404C87.115 19.642 87.4207 19.761 87.8267 19.761C88.1254 19.761 88.4054 19.6957 88.6667 19.565C88.928 19.4297 89.1754 19.2453 89.4087 19.012V13.818H91.1377ZM97.479 16.583C97.479 16.359 97.4464 16.149 97.381 15.953C97.3204 15.7523 97.227 15.5773 97.101 15.428C96.975 15.2787 96.814 15.162 96.618 15.078C96.4267 14.9893 96.2027 14.945 95.946 14.945C95.4467 14.945 95.0524 15.0873 94.763 15.372C94.4784 15.6567 94.2964 16.0603 94.217 16.583H97.479ZM94.182 17.626C94.21 17.9947 94.2754 18.3143 94.378 18.585C94.4807 18.851 94.616 19.0727 94.784 19.25C94.952 19.4227 95.1504 19.5533 95.379 19.642C95.6124 19.726 95.869 19.768 96.149 19.768C96.429 19.768 96.6694 19.7353 96.87 19.67C97.0754 19.6047 97.2527 19.5323 97.402 19.453C97.556 19.3737 97.689 19.3013 97.801 19.236C97.9177 19.1707 98.0297 19.138 98.137 19.138C98.2817 19.138 98.389 19.1917 98.459 19.299L98.956 19.929C98.7647 20.153 98.55 20.342 98.312 20.496C98.074 20.6453 97.8244 20.7667 97.563 20.86C97.3064 20.9487 97.0427 21.0117 96.772 21.049C96.506 21.0863 96.247 21.105 95.995 21.105C95.4957 21.105 95.0314 21.0233 94.602 20.86C94.1727 20.692 93.7994 20.447 93.482 20.125C93.1647 19.7983 92.915 19.397 92.733 18.921C92.551 18.4403 92.46 17.885 92.46 17.255C92.46 16.765 92.5394 16.3053 92.698 15.876C92.8567 15.442 93.083 15.0663 93.377 14.749C93.6757 14.427 94.0374 14.1727 94.462 13.986C94.8914 13.7993 95.3744 13.706 95.911 13.706C96.3637 13.706 96.7814 13.7783 97.164 13.923C97.5467 14.0677 97.8757 14.28 98.151 14.56C98.4264 14.8353 98.641 15.176 98.795 15.582C98.9537 15.9833 99.033 16.443 99.033 16.961C99.033 17.2223 99.005 17.3997 98.949 17.493C98.893 17.5817 98.7857 17.626 98.627 17.626H94.182ZM106.519 13.818V21H105.462C105.233 21 105.088 20.895 105.028 20.685L104.909 20.111C104.615 20.4097 104.29 20.6523 103.936 20.839C103.581 21.021 103.163 21.112 102.683 21.112C102.291 21.112 101.943 21.0467 101.64 20.916C101.341 20.7807 101.089 20.5917 100.884 20.349C100.678 20.1063 100.522 19.8193 100.415 19.488C100.312 19.152 100.261 18.7833 100.261 18.382V13.818H101.99V18.382C101.99 18.8207 102.09 19.1613 102.291 19.404C102.496 19.642 102.802 19.761 103.208 19.761C103.506 19.761 103.786 19.6957 104.048 19.565C104.309 19.4297 104.556 19.2453 104.79 19.012V13.818H106.519ZM112.86 16.583C112.86 16.359 112.827 16.149 112.762 15.953C112.701 15.7523 112.608 15.5773 112.482 15.428C112.356 15.2787 112.195 15.162 111.999 15.078C111.808 14.9893 111.584 14.945 111.327 14.945C110.828 14.945 110.433 15.0873 110.144 15.372C109.859 15.6567 109.677 16.0603 109.598 16.583H112.86ZM109.563 17.626C109.591 17.9947 109.656 18.3143 109.759 18.585C109.862 18.851 109.997 19.0727 110.165 19.25C110.333 19.4227 110.531 19.5533 110.76 19.642C110.993 19.726 111.25 19.768 111.53 19.768C111.81 19.768 112.05 19.7353 112.251 19.67C112.456 19.6047 112.634 19.5323 112.783 19.453C112.937 19.3737 113.07 19.3013 113.182 19.236C113.299 19.1707 113.411 19.138 113.518 19.138C113.663 19.138 113.77 19.1917 113.84 19.299L114.337 19.929C114.146 20.153 113.931 20.342 113.693 20.496C113.455 20.6453 113.205 20.7667 112.944 20.86C112.687 20.9487 112.424 21.0117 112.153 21.049C111.887 21.0863 111.628 21.105 111.376 21.105C110.877 21.105 110.412 21.0233 109.983 20.86C109.554 20.692 109.18 20.447 108.863 20.125C108.546 19.7983 108.296 19.397 108.114 18.921C107.932 18.4403 107.841 17.885 107.841 17.255C107.841 16.765 107.92 16.3053 108.079 15.876C108.238 15.442 108.464 15.0663 108.758 14.749C109.057 14.427 109.418 14.1727 109.843 13.986C110.272 13.7993 110.755 13.706 111.292 13.706C111.745 13.706 112.162 13.7783 112.545 13.923C112.928 14.0677 113.257 14.28 113.532 14.56C113.807 14.8353 114.022 15.176 114.176 15.582C114.335 15.9833 114.414 16.443 114.414 16.961C114.414 17.2223 114.386 17.3997 114.33 17.493C114.274 17.5817 114.167 17.626 114.008 17.626H109.563Z" fill="white"/>
<path d="M60.8529 31.922V38H59.7849V31.922H60.8529ZM61.0809 30.014C61.0809 30.118 61.0589 30.216 61.0149 30.308C60.9749 30.396 60.9189 30.476 60.8469 30.548C60.7789 30.616 60.6969 30.67 60.6009 30.71C60.5089 30.75 60.4109 30.77 60.3069 30.77C60.2029 30.77 60.1049 30.75 60.0129 30.71C59.9249 30.67 59.8469 30.616 59.7789 30.548C59.7109 30.476 59.6569 30.396 59.6169 30.308C59.5769 30.216 59.5569 30.118 59.5569 30.014C59.5569 29.91 59.5769 29.812 59.6169 29.72C59.6569 29.624 59.7109 29.542 59.7789 29.474C59.8469 29.402 59.9249 29.346 60.0129 29.306C60.1049 29.266 60.2029 29.246 60.3069 29.246C60.4109 29.246 60.5089 29.266 60.6009 29.306C60.6969 29.346 60.7789 29.402 60.8469 29.474C60.9189 29.542 60.9749 29.624 61.0149 29.72C61.0589 29.812 61.0809 29.91 61.0809 30.014ZM63.6157 32.804C63.7477 32.656 63.8877 32.522 64.0357 32.402C64.1837 32.282 64.3397 32.18 64.5037 32.096C64.6717 32.008 64.8477 31.942 65.0317 31.898C65.2197 31.85 65.4217 31.826 65.6377 31.826C65.9697 31.826 66.2617 31.882 66.5137 31.994C66.7697 32.102 66.9817 32.258 67.1497 32.462C67.3217 32.662 67.4517 32.904 67.5397 33.188C67.6277 33.472 67.6717 33.786 67.6717 34.13V38H66.5977V34.13C66.5977 33.67 66.4917 33.314 66.2797 33.062C66.0717 32.806 65.7537 32.678 65.3257 32.678C65.0097 32.678 64.7137 32.754 64.4377 32.906C64.1657 33.058 63.9137 33.264 63.6817 33.524V38H62.6077V31.922H63.2497C63.4017 31.922 63.4957 31.996 63.5317 32.144L63.6157 32.804ZM74.2354 38.096C73.7554 38.096 73.3854 37.962 73.1254 37.694C72.8694 37.426 72.7414 37.04 72.7414 36.536V32.816H72.0094C71.9454 32.816 71.8914 32.798 71.8474 32.762C71.8034 32.722 71.7814 32.662 71.7814 32.582V32.156L72.7774 32.03L73.0234 30.152C73.0354 30.092 73.0614 30.044 73.1014 30.008C73.1454 29.968 73.2014 29.948 73.2694 29.948H73.8094V32.042H75.5674V32.816H73.8094V36.464C73.8094 36.72 73.8714 36.91 73.9954 37.034C74.1194 37.158 74.2794 37.22 74.4754 37.22C74.5874 37.22 74.6834 37.206 74.7634 37.178C74.8474 37.146 74.9194 37.112 74.9794 37.076C75.0394 37.04 75.0894 37.008 75.1294 36.98C75.1734 36.948 75.2114 36.932 75.2434 36.932C75.2994 36.932 75.3494 36.966 75.3934 37.034L75.7054 37.544C75.5214 37.716 75.2994 37.852 75.0394 37.952C74.7794 38.048 74.5114 38.096 74.2354 38.096ZM77.7442 32.732C78.0042 32.456 78.2922 32.236 78.6082 32.072C78.9242 31.908 79.2882 31.826 79.7002 31.826C80.0322 31.826 80.3242 31.882 80.5762 31.994C80.8322 32.102 81.0442 32.258 81.2122 32.462C81.3842 32.662 81.5142 32.904 81.6022 33.188C81.6902 33.472 81.7342 33.786 81.7342 34.13V38H80.6602V34.13C80.6602 33.67 80.5542 33.314 80.3422 33.062C80.1342 32.806 79.8162 32.678 79.3882 32.678C79.0722 32.678 78.7762 32.754 78.5002 32.906C78.2282 33.058 77.9762 33.264 77.7442 33.524V38H76.6702V29.162H77.7442V32.732ZM87.4296 34.298C87.4296 34.05 87.3936 33.824 87.3216 33.62C87.2536 33.412 87.1516 33.234 87.0156 33.086C86.8836 32.934 86.7216 32.818 86.5296 32.738C86.3376 32.654 86.1196 32.612 85.8756 32.612C85.3636 32.612 84.9576 32.762 84.6576 33.062C84.3616 33.358 84.1776 33.77 84.1056 34.298H87.4296ZM88.2936 37.148C88.1616 37.308 88.0036 37.448 87.8196 37.568C87.6356 37.684 87.4376 37.78 87.2256 37.856C87.0176 37.932 86.8016 37.988 86.5776 38.024C86.3536 38.064 86.1316 38.084 85.9116 38.084C85.4916 38.084 85.1036 38.014 84.7476 37.874C84.3956 37.73 84.0896 37.522 83.8296 37.25C83.5736 36.974 83.3736 36.634 83.2296 36.23C83.0856 35.826 83.0136 35.362 83.0136 34.838C83.0136 34.414 83.0776 34.018 83.2056 33.65C83.3376 33.282 83.5256 32.964 83.7696 32.696C84.0136 32.424 84.3116 32.212 84.6636 32.06C85.0156 31.904 85.4116 31.826 85.8516 31.826C86.2156 31.826 86.5516 31.888 86.8596 32.012C87.1716 32.132 87.4396 32.308 87.6636 32.54C87.8916 32.768 88.0696 33.052 88.1976 33.392C88.3256 33.728 88.3896 34.112 88.3896 34.544C88.3896 34.712 88.3716 34.824 88.3356 34.88C88.2996 34.936 88.2316 34.964 88.1316 34.964H84.0696C84.0816 35.348 84.1336 35.682 84.2256 35.966C84.3216 36.25 84.4536 36.488 84.6216 36.68C84.7896 36.868 84.9896 37.01 85.2216 37.106C85.4536 37.198 85.7136 37.244 86.0016 37.244C86.2696 37.244 86.4996 37.214 86.6916 37.154C86.8876 37.09 87.0556 37.022 87.1956 36.95C87.3356 36.878 87.4516 36.812 87.5436 36.752C87.6396 36.688 87.7216 36.656 87.7896 36.656C87.8776 36.656 87.9456 36.69 87.9936 36.758L88.2936 37.148ZM96.3118 32.924C96.2638 33.012 96.1898 33.056 96.0898 33.056C96.0298 33.056 95.9618 33.034 95.8858 32.99C95.8098 32.946 95.7158 32.898 95.6038 32.846C95.4958 32.79 95.3658 32.74 95.2138 32.696C95.0618 32.648 94.8818 32.624 94.6738 32.624C94.4938 32.624 94.3318 32.648 94.1878 32.696C94.0438 32.74 93.9198 32.802 93.8158 32.882C93.7158 32.962 93.6378 33.056 93.5818 33.164C93.5298 33.268 93.5038 33.382 93.5038 33.506C93.5038 33.662 93.5478 33.792 93.6358 33.896C93.7278 34 93.8478 34.09 93.9958 34.166C94.1438 34.242 94.3118 34.31 94.4998 34.37C94.6878 34.426 94.8798 34.488 95.0758 34.556C95.2758 34.62 95.4698 34.692 95.6578 34.772C95.8458 34.852 96.0138 34.952 96.1618 35.072C96.3098 35.192 96.4278 35.34 96.5158 35.516C96.6078 35.688 96.6538 35.896 96.6538 36.14C96.6538 36.42 96.6038 36.68 96.5038 36.92C96.4038 37.156 96.2558 37.362 96.0598 37.538C95.8638 37.71 95.6238 37.846 95.3398 37.946C95.0558 38.046 94.7278 38.096 94.3558 38.096C93.9318 38.096 93.5478 38.028 93.2038 37.892C92.8598 37.752 92.5678 37.574 92.3278 37.358L92.5798 36.95C92.6118 36.898 92.6498 36.858 92.6938 36.83C92.7378 36.802 92.7938 36.788 92.8618 36.788C92.9338 36.788 93.0098 36.816 93.0898 36.872C93.1698 36.928 93.2658 36.99 93.3778 37.058C93.4938 37.126 93.6338 37.188 93.7978 37.244C93.9618 37.3 94.1658 37.328 94.4098 37.328C94.6178 37.328 94.7998 37.302 94.9558 37.25C95.1118 37.194 95.2418 37.12 95.3458 37.028C95.4498 36.936 95.5258 36.83 95.5738 36.71C95.6258 36.59 95.6518 36.462 95.6518 36.326C95.6518 36.158 95.6058 36.02 95.5138 35.912C95.4258 35.8 95.3078 35.706 95.1598 35.63C95.0118 35.55 94.8418 35.482 94.6498 35.426C94.4618 35.366 94.2678 35.304 94.0678 35.24C93.8718 35.176 93.6778 35.104 93.4858 35.024C93.2978 34.94 93.1298 34.836 92.9818 34.712C92.8338 34.588 92.7138 34.436 92.6218 34.256C92.5338 34.072 92.4898 33.85 92.4898 33.59C92.4898 33.358 92.5378 33.136 92.6338 32.924C92.7298 32.708 92.8698 32.52 93.0538 32.36C93.2378 32.196 93.4638 32.066 93.7318 31.97C93.9998 31.874 94.3058 31.826 94.6498 31.826C95.0498 31.826 95.4078 31.89 95.7238 32.018C96.0438 32.142 96.3198 32.314 96.5518 32.534L96.3118 32.924ZM102.031 34.298C102.031 34.05 101.995 33.824 101.923 33.62C101.855 33.412 101.753 33.234 101.617 33.086C101.485 32.934 101.323 32.818 101.131 32.738C100.939 32.654 100.721 32.612 100.477 32.612C99.9652 32.612 99.5592 32.762 99.2592 33.062C98.9632 33.358 98.7792 33.77 98.7072 34.298H102.031ZM102.895 37.148C102.763 37.308 102.605 37.448 102.421 37.568C102.237 37.684 102.039 37.78 101.827 37.856C101.619 37.932 101.403 37.988 101.179 38.024C100.955 38.064 100.733 38.084 100.513 38.084C100.093 38.084 99.7052 38.014 99.3492 37.874C98.9972 37.73 98.6912 37.522 98.4312 37.25C98.1752 36.974 97.9752 36.634 97.8312 36.23C97.6872 35.826 97.6152 35.362 97.6152 34.838C97.6152 34.414 97.6792 34.018 97.8072 33.65C97.9392 33.282 98.1272 32.964 98.3712 32.696C98.6152 32.424 98.9132 32.212 99.2652 32.06C99.6172 31.904 100.013 31.826 100.453 31.826C100.817 31.826 101.153 31.888 101.461 32.012C101.773 32.132 102.041 32.308 102.265 32.54C102.493 32.768 102.671 33.052 102.799 33.392C102.927 33.728 102.991 34.112 102.991 34.544C102.991 34.712 102.973 34.824 102.937 34.88C102.901 34.936 102.833 34.964 102.733 34.964H98.6712C98.6832 35.348 98.7352 35.682 98.8272 35.966C98.9232 36.25 99.0552 36.488 99.2232 36.68C99.3912 36.868 99.5912 37.01 99.8232 37.106C100.055 37.198 100.315 37.244 100.603 37.244C100.871 37.244 101.101 37.214 101.293 37.154C101.489 37.09 101.657 37.022 101.797 36.95C101.937 36.878 102.053 36.812 102.145 36.752C102.241 36.688 102.323 36.656 102.391 36.656C102.479 36.656 102.547 36.69 102.595 36.758L102.895 37.148ZM105.317 33.14C105.509 32.724 105.745 32.4 106.025 32.168C106.305 31.932 106.647 31.814 107.051 31.814C107.179 31.814 107.301 31.828 107.417 31.856C107.537 31.884 107.643 31.928 107.735 31.988L107.657 32.786C107.633 32.886 107.573 32.936 107.477 32.936C107.421 32.936 107.339 32.924 107.231 32.9C107.123 32.876 107.001 32.864 106.865 32.864C106.673 32.864 106.501 32.892 106.349 32.948C106.201 33.004 106.067 33.088 105.947 33.2C105.831 33.308 105.725 33.444 105.629 33.608C105.537 33.768 105.453 33.952 105.377 34.16V38H104.303V31.922H104.915C105.031 31.922 105.111 31.944 105.155 31.988C105.199 32.032 105.229 32.108 105.245 32.216L105.317 33.14ZM113.882 31.922L111.404 38H110.444L107.966 31.922H108.836C108.924 31.922 108.996 31.944 109.052 31.988C109.108 32.032 109.146 32.084 109.166 32.144L110.708 36.056C110.756 36.204 110.798 36.348 110.834 36.488C110.87 36.628 110.904 36.768 110.936 36.908C110.968 36.768 111.002 36.628 111.038 36.488C111.074 36.348 111.118 36.204 111.17 36.056L112.73 32.144C112.754 32.08 112.794 32.028 112.85 31.988C112.906 31.944 112.972 31.922 113.048 31.922H113.882ZM115.99 31.922V38H114.922V31.922H115.99ZM116.218 30.014C116.218 30.118 116.196 30.216 116.152 30.308C116.112 30.396 116.056 30.476 115.984 30.548C115.916 30.616 115.834 30.67 115.738 30.71C115.646 30.75 115.548 30.77 115.444 30.77C115.34 30.77 115.242 30.75 115.15 30.71C115.062 30.67 114.984 30.616 114.916 30.548C114.848 30.476 114.794 30.396 114.754 30.308C114.714 30.216 114.694 30.118 114.694 30.014C114.694 29.91 114.714 29.812 114.754 29.72C114.794 29.624 114.848 29.542 114.916 29.474C114.984 29.402 115.062 29.346 115.15 29.306C115.242 29.266 115.34 29.246 115.444 29.246C115.548 29.246 115.646 29.266 115.738 29.306C115.834 29.346 115.916 29.402 115.984 29.474C116.056 29.542 116.112 29.624 116.152 29.72C116.196 29.812 116.218 29.91 116.218 30.014ZM121.974 33.002C121.942 33.046 121.91 33.08 121.878 33.104C121.846 33.128 121.802 33.14 121.746 33.14C121.686 33.14 121.62 33.116 121.548 33.068C121.476 33.016 121.386 32.96 121.278 32.9C121.174 32.84 121.044 32.786 120.888 32.738C120.736 32.686 120.548 32.66 120.324 32.66C120.024 32.66 119.76 32.714 119.532 32.822C119.304 32.926 119.112 33.078 118.956 33.278C118.804 33.478 118.688 33.72 118.608 34.004C118.532 34.288 118.494 34.606 118.494 34.958C118.494 35.326 118.536 35.654 118.62 35.942C118.704 36.226 118.822 36.466 118.974 36.662C119.13 36.854 119.316 37.002 119.532 37.106C119.752 37.206 119.998 37.256 120.27 37.256C120.53 37.256 120.744 37.226 120.912 37.166C121.08 37.102 121.218 37.032 121.326 36.956C121.438 36.88 121.53 36.812 121.602 36.752C121.678 36.688 121.752 36.656 121.824 36.656C121.912 36.656 121.98 36.69 122.028 36.758L122.328 37.148C122.196 37.312 122.046 37.452 121.878 37.568C121.71 37.684 121.528 37.782 121.332 37.862C121.14 37.938 120.938 37.994 120.726 38.03C120.514 38.066 120.298 38.084 120.078 38.084C119.698 38.084 119.344 38.014 119.016 37.874C118.692 37.734 118.41 37.532 118.17 37.268C117.93 37 117.742 36.672 117.606 36.284C117.47 35.896 117.402 35.454 117.402 34.958C117.402 34.506 117.464 34.088 117.588 33.704C117.716 33.32 117.9 32.99 118.14 32.714C118.384 32.434 118.682 32.216 119.034 32.06C119.39 31.904 119.798 31.826 120.258 31.826C120.686 31.826 121.062 31.896 121.386 32.036C121.714 32.172 122.004 32.366 122.256 32.618L121.974 33.002ZM127.437 34.298C127.437 34.05 127.401 33.824 127.329 33.62C127.261 33.412 127.159 33.234 127.023 33.086C126.891 32.934 126.729 32.818 126.537 32.738C126.345 32.654 126.127 32.612 125.883 32.612C125.371 32.612 124.965 32.762 124.665 33.062C124.369 33.358 124.185 33.77 124.113 34.298H127.437ZM128.301 37.148C128.169 37.308 128.011 37.448 127.827 37.568C127.643 37.684 127.445 37.78 127.233 37.856C127.025 37.932 126.809 37.988 126.585 38.024C126.361 38.064 126.139 38.084 125.919 38.084C125.499 38.084 125.111 38.014 124.755 37.874C124.403 37.73 124.097 37.522 123.837 37.25C123.581 36.974 123.381 36.634 123.237 36.23C123.093 35.826 123.021 35.362 123.021 34.838C123.021 34.414 123.085 34.018 123.213 33.65C123.345 33.282 123.533 32.964 123.777 32.696C124.021 32.424 124.319 32.212 124.671 32.06C125.023 31.904 125.419 31.826 125.859 31.826C126.223 31.826 126.559 31.888 126.867 32.012C127.179 32.132 127.447 32.308 127.671 32.54C127.899 32.768 128.077 33.052 128.205 33.392C128.333 33.728 128.397 34.112 128.397 34.544C128.397 34.712 128.379 34.824 128.343 34.88C128.307 34.936 128.239 34.964 128.139 34.964H124.077C124.089 35.348 124.141 35.682 124.233 35.966C124.329 36.25 124.461 36.488 124.629 36.68C124.797 36.868 124.997 37.01 125.229 37.106C125.461 37.198 125.721 37.244 126.009 37.244C126.277 37.244 126.507 37.214 126.699 37.154C126.895 37.09 127.063 37.022 127.203 36.95C127.343 36.878 127.459 36.812 127.551 36.752C127.647 36.688 127.729 36.656 127.797 36.656C127.885 36.656 127.953 36.69 128.001 36.758L128.301 37.148Z" fill="#555555"/>
<line x1="94.5" y1="48" x2="94.5" y2="135" stroke="#555555" stroke-dasharray="2 2"/>
<rect x="91" y="69" width="7" height="66" rx="2" fill="#3A3A3A"/>
<rect x="95.6289" y="105" width="7" height="20" rx="2" fill="#555555"/>
<path d="M112.629 91.0002L112.629 91.5002L112.629 91.0002ZM114.629 93.0002L114.129 93.0002V93.0002L114.629 93.0002ZM114.629 113L115.129 113L114.629 113ZM112.629 115L112.629 114.5L112.629 115ZM104.275 114.646C104.08 114.841 104.08 115.158 104.275 115.353L107.457 118.535C107.653 118.731 107.969 118.731 108.164 118.535C108.36 118.34 108.36 118.023 108.164 117.828L105.336 115L108.164 112.171C108.36 111.976 108.36 111.659 108.164 111.464C107.969 111.269 107.653 111.269 107.457 111.464L104.275 114.646ZM99.6289 91.5L112.629 91.5002L112.629 90.5002L99.6289 90.5L99.6289 91.5ZM114.129 93.0002L114.129 113L115.129 113L115.129 93.0002L114.129 93.0002ZM112.629 114.5L104.629 114.5L104.629 115.5L112.629 115.5L112.629 114.5ZM114.129 113C114.129 113.828 113.457 114.5 112.629 114.5L112.629 115.5C114.01 115.5 115.129 114.38 115.129 113L114.129 113ZM112.629 91.5002C113.457 91.5003 114.129 92.1718 114.129 93.0002L115.129 93.0002C115.129 91.6195 114.009 90.5003 112.629 90.5002L112.629 91.5002Z" fill="#555555"/>
<path d="M126.349 106L125.659 102.14L124.919 106H123.759L122.809 100.73H123.659L124.339 105.48L125.179 101.4H126.169L126.959 105.48L127.639 100.73H128.449L127.539 106H126.349ZM133.185 100.62C133.398 100.62 133.645 100.657 133.925 100.73L133.805 102.52H133.125V101.39H133.075C132.262 101.39 131.685 101.97 131.345 103.13V105.35H132.415V106H129.675V105.35H130.505V101.38H129.675V100.73H131.135L131.295 101.98C131.508 101.527 131.762 101.187 132.055 100.96C132.355 100.733 132.732 100.62 133.185 100.62ZM137.621 98.27C137.808 98.27 137.958 98.3267 138.071 98.44C138.184 98.5467 138.241 98.6867 138.241 98.86C138.241 99.0333 138.184 99.1767 138.071 99.29C137.958 99.3967 137.808 99.45 137.621 99.45C137.441 99.45 137.294 99.3967 137.181 99.29C137.074 99.1767 137.021 99.0333 137.021 98.86C137.021 98.6867 137.074 98.5467 137.181 98.44C137.294 98.3267 137.441 98.27 137.621 98.27ZM138.291 105.33H139.771V106H135.831V105.33H137.451V101.4H135.881V100.73H138.291V105.33ZM145.807 105.73C145.627 105.85 145.407 105.943 145.147 106.01C144.894 106.077 144.641 106.11 144.387 106.11C143.834 106.11 143.401 105.967 143.087 105.68C142.774 105.387 142.617 105.003 142.617 104.53V101.39H141.407V100.73H142.617V99.54L143.457 99.44V100.73H145.287L145.177 101.39H143.457V104.52C143.457 104.82 143.537 105.043 143.697 105.19C143.857 105.337 144.114 105.41 144.467 105.41C144.827 105.41 145.164 105.327 145.477 105.16L145.807 105.73ZM148.283 103.66C148.303 104.24 148.453 104.677 148.733 104.97C149.02 105.263 149.38 105.41 149.813 105.41C150.073 105.41 150.31 105.373 150.523 105.3C150.743 105.22 150.977 105.1 151.223 104.94L151.613 105.5C151.367 105.693 151.083 105.843 150.763 105.95C150.45 106.057 150.133 106.11 149.813 106.11C149.053 106.11 148.46 105.863 148.033 105.37C147.613 104.87 147.403 104.203 147.403 103.37C147.403 102.843 147.497 102.373 147.683 101.96C147.87 101.54 148.137 101.213 148.483 100.98C148.83 100.74 149.233 100.62 149.693 100.62C150.36 100.62 150.883 100.853 151.263 101.32C151.65 101.78 151.843 102.41 151.843 103.21C151.843 103.363 151.837 103.513 151.823 103.66H148.283ZM149.703 101.31C149.297 101.31 148.967 101.457 148.713 101.75C148.46 102.037 148.317 102.46 148.283 103.02H151.023C151.017 102.467 150.897 102.043 150.663 101.75C150.43 101.457 150.11 101.31 149.703 101.31ZM163.605 98.61V106H162.865L162.785 105.31C162.592 105.577 162.369 105.777 162.115 105.91C161.862 106.043 161.589 106.11 161.295 106.11C160.629 106.11 160.125 105.867 159.785 105.38C159.452 104.893 159.285 104.223 159.285 103.37C159.285 102.843 159.369 102.373 159.535 101.96C159.702 101.54 159.939 101.213 160.245 100.98C160.559 100.74 160.925 100.62 161.345 100.62C161.925 100.62 162.399 100.83 162.765 101.25V98.51L163.605 98.61ZM161.565 101.3C161.125 101.3 160.785 101.473 160.545 101.82C160.312 102.167 160.195 102.683 160.195 103.37C160.195 104.05 160.302 104.567 160.515 104.92C160.735 105.267 161.052 105.44 161.465 105.44C161.965 105.44 162.399 105.16 162.765 104.6V101.98C162.619 101.76 162.442 101.593 162.235 101.48C162.029 101.36 161.805 101.3 161.565 101.3ZM166.272 103.66C166.292 104.24 166.442 104.677 166.722 104.97C167.008 105.263 167.368 105.41 167.802 105.41C168.062 105.41 168.298 105.373 168.512 105.3C168.732 105.22 168.965 105.1 169.212 104.94L169.602 105.5C169.355 105.693 169.072 105.843 168.752 105.95C168.438 106.057 168.122 106.11 167.802 106.11C167.042 106.11 166.448 105.863 166.022 105.37C165.602 104.87 165.392 104.203 165.392 103.37C165.392 102.843 165.485 102.373 165.672 101.96C165.858 101.54 166.125 101.213 166.472 100.98C166.818 100.74 167.222 100.62 167.682 100.62C168.348 100.62 168.872 100.853 169.252 101.32C169.638 101.78 169.832 102.41 169.832 103.21C169.832 103.363 169.825 103.513 169.812 103.66H166.272ZM167.692 101.31C167.285 101.31 166.955 101.457 166.702 101.75C166.448 102.037 166.305 102.46 166.272 103.02H169.012C169.005 102.467 168.885 102.043 168.652 101.75C168.418 101.457 168.098 101.31 167.692 101.31ZM175.788 105.73C175.608 105.85 175.388 105.943 175.128 106.01C174.874 106.077 174.621 106.11 174.368 106.11C173.814 106.11 173.381 105.967 173.068 105.68C172.754 105.387 172.598 105.003 172.598 104.53V101.39H171.388V100.73H172.598V99.54L173.438 99.44V100.73H175.268L175.158 101.39H173.438V104.52C173.438 104.82 173.518 105.043 173.678 105.19C173.838 105.337 174.094 105.41 174.448 105.41C174.808 105.41 175.144 105.327 175.458 105.16L175.788 105.73ZM181.374 104.85C181.374 105.057 181.407 105.21 181.474 105.31C181.54 105.403 181.65 105.473 181.804 105.52L181.594 106.12C181.08 106.053 180.76 105.803 180.634 105.37C180.447 105.61 180.21 105.793 179.924 105.92C179.644 106.047 179.33 106.11 178.984 106.11C178.457 106.11 178.04 105.963 177.734 105.67C177.434 105.377 177.284 104.983 177.284 104.49C177.284 103.95 177.494 103.533 177.914 103.24C178.34 102.947 178.95 102.8 179.744 102.8H180.524V102.37C180.524 101.997 180.417 101.73 180.204 101.57C179.99 101.403 179.68 101.32 179.274 101.32C178.874 101.32 178.417 101.41 177.904 101.59L177.674 100.95C178.294 100.73 178.87 100.62 179.404 100.62C180.044 100.62 180.53 100.77 180.864 101.07C181.204 101.37 181.374 101.787 181.374 102.32V104.85ZM179.194 105.48C179.454 105.48 179.7 105.413 179.934 105.28C180.174 105.147 180.37 104.963 180.524 104.73V103.38H179.764C179.204 103.38 178.8 103.473 178.554 103.66C178.307 103.847 178.184 104.12 178.184 104.48C178.184 105.147 178.52 105.48 179.194 105.48ZM185.59 98.27C185.777 98.27 185.927 98.3267 186.04 98.44C186.153 98.5467 186.21 98.6867 186.21 98.86C186.21 99.0333 186.153 99.1767 186.04 99.29C185.927 99.3967 185.777 99.45 185.59 99.45C185.41 99.45 185.263 99.3967 185.15 99.29C185.043 99.1767 184.99 99.0333 184.99 98.86C184.99 98.6867 185.043 98.5467 185.15 98.44C185.263 98.3267 185.41 98.27 185.59 98.27ZM186.26 105.33H187.74V106H183.8V105.33H185.42V101.4H183.85V100.73H186.26V105.33ZM191.646 104.7C191.646 105.173 191.936 105.41 192.516 105.41C192.789 105.41 193.083 105.35 193.396 105.23L193.616 105.84C193.283 106.02 192.866 106.11 192.366 106.11C191.893 106.11 191.513 105.98 191.226 105.72C190.946 105.46 190.806 105.107 190.806 104.66V99.28H189.186V98.61H191.646V104.7ZM197.382 105.42C197.782 105.42 198.099 105.343 198.332 105.19C198.565 105.037 198.682 104.833 198.682 104.58C198.682 104.407 198.652 104.267 198.592 104.16C198.532 104.047 198.412 103.947 198.232 103.86C198.052 103.767 197.779 103.673 197.412 103.58C196.799 103.427 196.345 103.243 196.052 103.03C195.759 102.81 195.612 102.487 195.612 102.06C195.612 101.62 195.795 101.27 196.162 101.01C196.529 100.75 197.012 100.62 197.612 100.62C198.345 100.62 198.985 100.813 199.532 101.2L199.152 101.78C198.932 101.627 198.702 101.51 198.462 101.43C198.222 101.343 197.945 101.3 197.632 101.3C196.872 101.3 196.492 101.53 196.492 101.99C196.492 102.15 196.532 102.28 196.612 102.38C196.699 102.48 196.835 102.57 197.022 102.65C197.215 102.723 197.502 102.813 197.882 102.92C198.455 103.073 198.882 103.27 199.162 103.51C199.449 103.743 199.592 104.087 199.592 104.54C199.592 105.067 199.379 105.46 198.952 105.72C198.525 105.98 198.002 106.11 197.382 106.11C196.555 106.11 195.869 105.873 195.322 105.4L195.792 104.85C196.005 105.023 196.249 105.163 196.522 105.27C196.795 105.37 197.082 105.42 197.382 105.42ZM209.574 98.27C209.761 98.27 209.911 98.3267 210.024 98.44C210.138 98.5467 210.194 98.6867 210.194 98.86C210.194 99.0333 210.138 99.1767 210.024 99.29C209.911 99.3967 209.761 99.45 209.574 99.45C209.394 99.45 209.248 99.3967 209.134 99.29C209.028 99.1767 208.974 99.0333 208.974 98.86C208.974 98.6867 209.028 98.5467 209.134 98.44C209.248 98.3267 209.394 98.27 209.574 98.27ZM210.244 105.33H211.724V106H207.784V105.33H209.404V101.4H207.834V100.73H210.244V105.33ZM213.57 100.73H214.29L214.36 101.47C214.567 101.203 214.827 100.997 215.14 100.85C215.46 100.697 215.78 100.62 216.1 100.62C217.087 100.62 217.58 101.14 217.58 102.18V106H216.74V102.8C216.74 102.407 216.717 102.107 216.67 101.9C216.63 101.693 216.547 101.54 216.42 101.44C216.294 101.34 216.1 101.29 215.84 101.29C215.554 101.29 215.284 101.377 215.03 101.55C214.777 101.723 214.57 101.93 214.41 102.17V106H213.57V100.73ZM225.123 106L227.062 103.22L225.353 100.73H226.353L227.573 102.69L228.803 100.73H229.773L228.063 103.18L230.003 106H228.983L227.533 103.74L226.083 106H225.123ZM235.029 100.62C235.329 100.62 235.572 100.727 235.759 100.94C235.952 101.147 236.049 101.527 236.049 102.08V106H235.279V102.22C235.279 101.853 235.255 101.607 235.209 101.48C235.162 101.347 235.049 101.28 234.869 101.28C234.529 101.28 234.222 101.49 233.949 101.91V106H233.169V102.22C233.169 101.853 233.145 101.607 233.099 101.48C233.052 101.347 232.939 101.28 232.759 101.28C232.419 101.28 232.112 101.49 231.839 101.91V106H231.069V100.73H231.719L231.779 101.35C231.939 101.117 232.105 100.937 232.279 100.81C232.459 100.683 232.672 100.62 232.919 100.62C233.412 100.62 233.729 100.853 233.869 101.32C234.029 101.093 234.199 100.92 234.379 100.8C234.559 100.68 234.775 100.62 235.029 100.62ZM239.615 104.7C239.615 105.173 239.905 105.41 240.485 105.41C240.758 105.41 241.051 105.35 241.365 105.23L241.585 105.84C241.251 106.02 240.835 106.11 240.335 106.11C239.861 106.11 239.481 105.98 239.195 105.72C238.915 105.46 238.775 105.107 238.775 104.66V99.28H237.155V98.61H239.615V104.7ZM252.657 98.51C253.157 98.51 253.634 98.6033 254.087 98.79L253.817 99.42C253.484 99.2733 253.107 99.2 252.687 99.2C251.954 99.2 251.587 99.49 251.587 100.07V101.14H253.367L253.277 101.81H251.587V106H250.737V101.81H249.487V101.14H250.737V100.09C250.737 99.6167 250.917 99.2367 251.277 98.95C251.644 98.6567 252.104 98.51 252.657 98.51ZM257.543 98.27C257.73 98.27 257.88 98.3267 257.993 98.44C258.106 98.5467 258.163 98.6867 258.163 98.86C258.163 99.0333 258.106 99.1767 257.993 99.29C257.88 99.3967 257.73 99.45 257.543 99.45C257.363 99.45 257.216 99.3967 257.103 99.29C256.996 99.1767 256.943 99.0333 256.943 98.86C256.943 98.6867 256.996 98.5467 257.103 98.44C257.216 98.3267 257.363 98.27 257.543 98.27ZM258.213 105.33H259.693V106H255.753V105.33H257.373V101.4H255.803V100.73H258.213V105.33ZM263.599 104.7C263.599 105.173 263.889 105.41 264.469 105.41C264.742 105.41 265.036 105.35 265.349 105.23L265.569 105.84C265.236 106.02 264.819 106.11 264.319 106.11C263.846 106.11 263.466 105.98 263.179 105.72C262.899 105.46 262.759 105.107 262.759 104.66V99.28H261.139V98.61H263.599V104.7ZM268.205 103.66C268.225 104.24 268.375 104.677 268.655 104.97C268.942 105.263 269.302 105.41 269.735 105.41C269.995 105.41 270.232 105.373 270.445 105.3C270.665 105.22 270.898 105.1 271.145 104.94L271.535 105.5C271.288 105.693 271.005 105.843 270.685 105.95C270.372 106.057 270.055 106.11 269.735 106.11C268.975 106.11 268.382 105.863 267.955 105.37C267.535 104.87 267.325 104.203 267.325 103.37C267.325 102.843 267.418 102.373 267.605 101.96C267.792 101.54 268.058 101.213 268.405 100.98C268.752 100.74 269.155 100.62 269.615 100.62C270.282 100.62 270.805 100.853 271.185 101.32C271.572 101.78 271.765 102.41 271.765 103.21C271.765 103.363 271.758 103.513 271.745 103.66H268.205ZM269.625 101.31C269.218 101.31 268.888 101.457 268.635 101.75C268.382 102.037 268.238 102.46 268.205 103.02H270.945C270.938 102.467 270.818 102.043 270.585 101.75C270.352 101.457 270.032 101.31 269.625 101.31Z" fill="white"/>
</svg>
