<svg width="768" height="320" viewBox="0 0 768 320" fill="none" xmlns="http://www.w3.org/2000/svg">
<rect x="152.5" y="256.5" width="199" height="63" rx="15.5" stroke="#9FAAB5"/>
<path d="M237.55 279.936C237.955 279.936 238.307 279.885 238.606 279.784C238.91 279.683 239.158 279.544 239.35 279.368C239.547 279.187 239.694 278.973 239.79 278.728C239.886 278.483 239.934 278.213 239.934 277.92C239.934 277.333 239.739 276.883 239.35 276.568C238.966 276.253 238.376 276.096 237.582 276.096H236.206V279.936H237.55ZM243.086 286H241.142C240.774 286 240.507 285.856 240.342 285.568L237.91 281.864C237.819 281.725 237.718 281.627 237.606 281.568C237.499 281.509 237.339 281.48 237.126 281.48H236.206V286H234.054V274.432H237.582C238.366 274.432 239.038 274.515 239.598 274.68C240.163 274.84 240.624 275.067 240.982 275.36C241.344 275.653 241.611 276.005 241.782 276.416C241.952 276.821 242.038 277.269 242.038 277.76C242.038 278.149 241.979 278.517 241.862 278.864C241.75 279.211 241.584 279.525 241.366 279.808C241.152 280.091 240.886 280.339 240.566 280.552C240.251 280.765 239.891 280.933 239.486 281.056C239.624 281.136 239.752 281.232 239.87 281.344C239.987 281.451 240.094 281.579 240.19 281.728L243.086 286ZM248.78 280.952C248.78 280.696 248.742 280.456 248.668 280.232C248.598 280.003 248.492 279.803 248.348 279.632C248.204 279.461 248.02 279.328 247.796 279.232C247.577 279.131 247.321 279.08 247.028 279.08C246.457 279.08 246.006 279.243 245.676 279.568C245.35 279.893 245.142 280.355 245.052 280.952H248.78ZM245.012 282.144C245.044 282.565 245.118 282.931 245.236 283.24C245.353 283.544 245.508 283.797 245.7 284C245.892 284.197 246.118 284.347 246.38 284.448C246.646 284.544 246.94 284.592 247.26 284.592C247.58 284.592 247.854 284.555 248.084 284.48C248.318 284.405 248.521 284.323 248.692 284.232C248.868 284.141 249.02 284.059 249.148 283.984C249.281 283.909 249.409 283.872 249.532 283.872C249.697 283.872 249.82 283.933 249.9 284.056L250.468 284.776C250.249 285.032 250.004 285.248 249.732 285.424C249.46 285.595 249.174 285.733 248.876 285.84C248.582 285.941 248.281 286.013 247.972 286.056C247.668 286.099 247.372 286.12 247.084 286.12C246.513 286.12 245.982 286.027 245.492 285.84C245.001 285.648 244.574 285.368 244.212 285C243.849 284.627 243.564 284.168 243.356 283.624C243.148 283.075 243.044 282.44 243.044 281.72C243.044 281.16 243.134 280.635 243.316 280.144C243.497 279.648 243.756 279.219 244.092 278.856C244.433 278.488 244.846 278.197 245.332 277.984C245.822 277.771 246.374 277.664 246.988 277.664C247.505 277.664 247.982 277.747 248.42 277.912C248.857 278.077 249.233 278.32 249.548 278.64C249.862 278.955 250.108 279.344 250.284 279.808C250.465 280.267 250.556 280.792 250.556 281.384C250.556 281.683 250.524 281.885 250.46 281.992C250.396 282.093 250.273 282.144 250.092 282.144H245.012ZM257.191 279.888C256.967 279.616 256.721 279.424 256.455 279.312C256.193 279.2 255.911 279.144 255.607 279.144C255.308 279.144 255.039 279.2 254.799 279.312C254.559 279.424 254.353 279.595 254.183 279.824C254.012 280.048 253.881 280.336 253.791 280.688C253.7 281.035 253.655 281.445 253.655 281.92C253.655 282.4 253.692 282.808 253.767 283.144C253.847 283.475 253.959 283.747 254.103 283.96C254.247 284.168 254.423 284.32 254.631 284.416C254.839 284.507 255.071 284.552 255.327 284.552C255.737 284.552 256.087 284.467 256.375 284.296C256.663 284.125 256.935 283.883 257.191 283.568V279.888ZM259.167 274.112V286H257.959C257.697 286 257.532 285.88 257.463 285.64L257.295 284.848C256.964 285.227 256.583 285.533 256.151 285.768C255.724 286.003 255.225 286.12 254.655 286.12C254.207 286.12 253.796 286.027 253.423 285.84C253.049 285.653 252.727 285.384 252.455 285.032C252.188 284.675 251.98 284.235 251.831 283.712C251.687 283.189 251.615 282.592 251.615 281.92C251.615 281.312 251.697 280.747 251.863 280.224C252.028 279.701 252.265 279.248 252.575 278.864C252.884 278.48 253.255 278.181 253.687 277.968C254.119 277.749 254.604 277.64 255.143 277.64C255.601 277.64 255.993 277.712 256.319 277.856C256.644 278 256.935 278.195 257.191 278.44V274.112H259.167ZM263.165 277.792V286H261.181V277.792H263.165ZM263.437 275.4C263.437 275.571 263.402 275.731 263.333 275.88C263.263 276.029 263.17 276.16 263.053 276.272C262.941 276.384 262.807 276.475 262.653 276.544C262.498 276.608 262.333 276.64 262.157 276.64C261.986 276.64 261.823 276.608 261.669 276.544C261.519 276.475 261.389 276.384 261.277 276.272C261.165 276.16 261.074 276.029 261.005 275.88C260.941 275.731 260.909 275.571 260.909 275.4C260.909 275.224 260.941 275.059 261.005 274.904C261.074 274.749 261.165 274.616 261.277 274.504C261.389 274.392 261.519 274.304 261.669 274.24C261.823 274.171 261.986 274.136 262.157 274.136C262.333 274.136 262.498 274.171 262.653 274.24C262.807 274.304 262.941 274.392 263.053 274.504C263.17 274.616 263.263 274.749 263.333 274.904C263.402 275.059 263.437 275.224 263.437 275.4ZM270.187 279.392C270.134 279.477 270.078 279.539 270.019 279.576C269.96 279.608 269.886 279.624 269.795 279.624C269.699 279.624 269.595 279.597 269.483 279.544C269.376 279.491 269.251 279.432 269.107 279.368C268.963 279.299 268.798 279.237 268.611 279.184C268.43 279.131 268.214 279.104 267.963 279.104C267.574 279.104 267.267 279.187 267.043 279.352C266.824 279.517 266.715 279.733 266.715 280C266.715 280.176 266.771 280.325 266.883 280.448C267 280.565 267.152 280.669 267.339 280.76C267.531 280.851 267.747 280.933 267.987 281.008C268.227 281.077 268.47 281.155 268.715 281.24C268.966 281.325 269.211 281.424 269.451 281.536C269.691 281.643 269.904 281.781 270.091 281.952C270.283 282.117 270.435 282.317 270.547 282.552C270.664 282.787 270.723 283.069 270.723 283.4C270.723 283.795 270.651 284.16 270.507 284.496C270.368 284.827 270.16 285.115 269.883 285.36C269.606 285.6 269.262 285.789 268.851 285.928C268.446 286.061 267.976 286.128 267.443 286.128C267.16 286.128 266.883 286.101 266.611 286.048C266.344 286 266.086 285.931 265.835 285.84C265.59 285.749 265.36 285.643 265.147 285.52C264.939 285.397 264.755 285.264 264.595 285.12L265.051 284.368C265.11 284.277 265.179 284.208 265.259 284.16C265.339 284.112 265.44 284.088 265.563 284.088C265.686 284.088 265.8 284.123 265.907 284.192C266.019 284.261 266.147 284.336 266.291 284.416C266.435 284.496 266.603 284.571 266.795 284.64C266.992 284.709 267.24 284.744 267.539 284.744C267.774 284.744 267.974 284.717 268.139 284.664C268.31 284.605 268.448 284.531 268.555 284.44C268.667 284.349 268.747 284.245 268.795 284.128C268.848 284.005 268.875 283.88 268.875 283.752C268.875 283.56 268.816 283.403 268.699 283.28C268.587 283.157 268.435 283.051 268.243 282.96C268.056 282.869 267.84 282.789 267.595 282.72C267.355 282.645 267.107 282.565 266.851 282.48C266.6 282.395 266.352 282.296 266.107 282.184C265.867 282.067 265.651 281.92 265.459 281.744C265.272 281.568 265.12 281.352 265.003 281.096C264.891 280.84 264.835 280.531 264.835 280.168C264.835 279.832 264.902 279.512 265.035 279.208C265.168 278.904 265.363 278.64 265.619 278.416C265.88 278.187 266.203 278.005 266.587 277.872C266.976 277.733 267.424 277.664 267.931 277.664C268.496 277.664 269.011 277.757 269.475 277.944C269.939 278.131 270.326 278.376 270.635 278.68L270.187 279.392Z" fill="black"/>
<path d="M242.763 301.224C242.827 301.224 242.883 301.25 242.931 301.302L243.393 301.8C243.041 302.208 242.613 302.526 242.109 302.754C241.609 302.982 241.003 303.096 240.291 303.096C239.675 303.096 239.115 302.99 238.611 302.778C238.107 302.562 237.677 302.262 237.321 301.878C236.965 301.49 236.689 301.026 236.493 300.486C236.297 299.946 236.199 299.352 236.199 298.704C236.199 298.056 236.301 297.462 236.505 296.922C236.709 296.382 236.995 295.918 237.363 295.53C237.735 295.142 238.179 294.842 238.695 294.63C239.211 294.414 239.781 294.306 240.405 294.306C241.017 294.306 241.557 294.404 242.025 294.6C242.493 294.796 242.905 295.062 243.261 295.398L242.877 295.932C242.853 295.972 242.821 296.006 242.781 296.034C242.745 296.058 242.695 296.07 242.631 296.07C242.559 296.07 242.471 296.032 242.367 295.956C242.263 295.876 242.127 295.788 241.959 295.692C241.791 295.596 241.581 295.51 241.329 295.434C241.077 295.354 240.767 295.314 240.399 295.314C239.955 295.314 239.549 295.392 239.181 295.548C238.813 295.7 238.495 295.922 238.227 296.214C237.963 296.506 237.757 296.862 237.609 297.282C237.461 297.702 237.387 298.176 237.387 298.704C237.387 299.24 237.463 299.718 237.615 300.138C237.771 300.558 237.981 300.914 238.245 301.206C238.513 301.494 238.827 301.714 239.187 301.866C239.551 302.018 239.943 302.094 240.363 302.094C240.619 302.094 240.849 302.08 241.053 302.052C241.261 302.02 241.451 301.972 241.623 301.908C241.799 301.844 241.961 301.764 242.109 301.668C242.261 301.568 242.411 301.45 242.559 301.314C242.627 301.254 242.695 301.224 242.763 301.224ZM247.785 300.264C247.293 300.28 246.873 300.32 246.525 300.384C246.181 300.444 245.899 300.524 245.679 300.624C245.463 300.724 245.305 300.842 245.205 300.978C245.109 301.114 245.061 301.266 245.061 301.434C245.061 301.594 245.087 301.732 245.139 301.848C245.191 301.964 245.261 302.06 245.349 302.136C245.441 302.208 245.547 302.262 245.667 302.298C245.791 302.33 245.923 302.346 246.063 302.346C246.251 302.346 246.423 302.328 246.579 302.292C246.735 302.252 246.881 302.196 247.017 302.124C247.157 302.052 247.289 301.966 247.413 301.866C247.541 301.766 247.665 301.652 247.785 301.524V300.264ZM244.335 297.78C244.671 297.456 245.033 297.214 245.421 297.054C245.809 296.894 246.239 296.814 246.711 296.814C247.051 296.814 247.353 296.87 247.617 296.982C247.881 297.094 248.103 297.25 248.283 297.45C248.463 297.65 248.599 297.892 248.691 298.176C248.783 298.46 248.829 298.772 248.829 299.112V303H248.355C248.251 303 248.171 302.984 248.115 302.952C248.059 302.916 248.015 302.848 247.983 302.748L247.863 302.172C247.703 302.32 247.547 302.452 247.395 302.568C247.243 302.68 247.083 302.776 246.915 302.856C246.747 302.932 246.567 302.99 246.375 303.03C246.187 303.074 245.977 303.096 245.745 303.096C245.509 303.096 245.287 303.064 245.079 303C244.871 302.932 244.689 302.832 244.533 302.7C244.381 302.568 244.259 302.402 244.167 302.202C244.079 301.998 244.035 301.758 244.035 301.482C244.035 301.242 244.101 301.012 244.233 300.792C244.365 300.568 244.579 300.37 244.875 300.198C245.171 300.026 245.557 299.886 246.033 299.778C246.509 299.666 247.093 299.602 247.785 299.586V299.112C247.785 298.64 247.683 298.284 247.479 298.044C247.275 297.8 246.977 297.678 246.585 297.678C246.321 297.678 246.099 297.712 245.919 297.78C245.743 297.844 245.589 297.918 245.457 298.002C245.329 298.082 245.217 298.156 245.121 298.224C245.029 298.288 244.937 298.32 244.845 298.32C244.773 298.32 244.711 298.302 244.659 298.266C244.607 298.226 244.563 298.178 244.527 298.122L244.335 297.78ZM254.685 298.002C254.653 298.046 254.621 298.08 254.589 298.104C254.557 298.128 254.513 298.14 254.457 298.14C254.397 298.14 254.331 298.116 254.259 298.068C254.187 298.016 254.097 297.96 253.989 297.9C253.885 297.84 253.755 297.786 253.599 297.738C253.447 297.686 253.259 297.66 253.035 297.66C252.735 297.66 252.471 297.714 252.243 297.822C252.015 297.926 251.823 298.078 251.667 298.278C251.515 298.478 251.399 298.72 251.319 299.004C251.243 299.288 251.205 299.606 251.205 299.958C251.205 300.326 251.247 300.654 251.331 300.942C251.415 301.226 251.533 301.466 251.685 301.662C251.841 301.854 252.027 302.002 252.243 302.106C252.463 302.206 252.709 302.256 252.981 302.256C253.241 302.256 253.455 302.226 253.623 302.166C253.791 302.102 253.929 302.032 254.037 301.956C254.149 301.88 254.241 301.812 254.313 301.752C254.389 301.688 254.463 301.656 254.535 301.656C254.623 301.656 254.691 301.69 254.739 301.758L255.039 302.148C254.907 302.312 254.757 302.452 254.589 302.568C254.421 302.684 254.239 302.782 254.043 302.862C253.851 302.938 253.649 302.994 253.437 303.03C253.225 303.066 253.009 303.084 252.789 303.084C252.409 303.084 252.055 303.014 251.727 302.874C251.403 302.734 251.121 302.532 250.881 302.268C250.641 302 250.453 301.672 250.317 301.284C250.181 300.896 250.113 300.454 250.113 299.958C250.113 299.506 250.175 299.088 250.299 298.704C250.427 298.32 250.611 297.99 250.851 297.714C251.095 297.434 251.393 297.216 251.745 297.06C252.101 296.904 252.509 296.826 252.969 296.826C253.397 296.826 253.773 296.896 254.097 297.036C254.425 297.172 254.715 297.366 254.967 297.618L254.685 298.002ZM257.26 297.732C257.52 297.456 257.808 297.236 258.124 297.072C258.44 296.908 258.804 296.826 259.216 296.826C259.548 296.826 259.84 296.882 260.092 296.994C260.348 297.102 260.56 297.258 260.728 297.462C260.9 297.662 261.03 297.904 261.118 298.188C261.206 298.472 261.25 298.786 261.25 299.13V303H260.176V299.13C260.176 298.67 260.07 298.314 259.858 298.062C259.65 297.806 259.332 297.678 258.904 297.678C258.588 297.678 258.292 297.754 258.016 297.906C257.744 298.058 257.492 298.264 257.26 298.524V303H256.186V294.162H257.26V297.732ZM266.945 299.298C266.945 299.05 266.909 298.824 266.837 298.62C266.769 298.412 266.667 298.234 266.531 298.086C266.399 297.934 266.237 297.818 266.045 297.738C265.853 297.654 265.635 297.612 265.391 297.612C264.879 297.612 264.473 297.762 264.173 298.062C263.877 298.358 263.693 298.77 263.621 299.298H266.945ZM267.809 302.148C267.677 302.308 267.519 302.448 267.335 302.568C267.151 302.684 266.953 302.78 266.741 302.856C266.533 302.932 266.317 302.988 266.093 303.024C265.869 303.064 265.647 303.084 265.427 303.084C265.007 303.084 264.619 303.014 264.263 302.874C263.911 302.73 263.605 302.522 263.345 302.25C263.089 301.974 262.889 301.634 262.745 301.23C262.601 300.826 262.529 300.362 262.529 299.838C262.529 299.414 262.593 299.018 262.721 298.65C262.853 298.282 263.041 297.964 263.285 297.696C263.529 297.424 263.827 297.212 264.179 297.06C264.531 296.904 264.927 296.826 265.367 296.826C265.731 296.826 266.067 296.888 266.375 297.012C266.687 297.132 266.955 297.308 267.179 297.54C267.407 297.768 267.585 298.052 267.713 298.392C267.841 298.728 267.905 299.112 267.905 299.544C267.905 299.712 267.887 299.824 267.851 299.88C267.815 299.936 267.747 299.964 267.647 299.964H263.585C263.597 300.348 263.649 300.682 263.741 300.966C263.837 301.25 263.969 301.488 264.137 301.68C264.305 301.868 264.505 302.01 264.737 302.106C264.969 302.198 265.229 302.244 265.517 302.244C265.785 302.244 266.015 302.214 266.207 302.154C266.403 302.09 266.571 302.022 266.711 301.95C266.851 301.878 266.967 301.812 267.059 301.752C267.155 301.688 267.237 301.656 267.305 301.656C267.393 301.656 267.461 301.69 267.509 301.758L267.809 302.148Z" fill="#9FAAB5"/>
<rect x="416.5" y="256.5" width="199" height="63" rx="15.5" stroke="#9FAAB5"/>
<path d="M490.314 280.248C490.708 280.248 491.052 280.2 491.346 280.104C491.639 280.003 491.882 279.861 492.074 279.68C492.271 279.493 492.418 279.269 492.514 279.008C492.61 278.741 492.658 278.445 492.658 278.12C492.658 277.811 492.61 277.531 492.514 277.28C492.418 277.029 492.274 276.816 492.082 276.64C491.89 276.464 491.647 276.331 491.354 276.24C491.06 276.144 490.714 276.096 490.314 276.096H488.706V280.248H490.314ZM490.314 274.432C491.087 274.432 491.756 274.523 492.322 274.704C492.887 274.885 493.354 275.139 493.722 275.464C494.09 275.789 494.362 276.179 494.538 276.632C494.719 277.085 494.81 277.581 494.81 278.12C494.81 278.68 494.716 279.195 494.53 279.664C494.343 280.128 494.063 280.528 493.69 280.864C493.316 281.2 492.847 281.461 492.282 281.648C491.722 281.835 491.066 281.928 490.314 281.928H488.706V286H486.554V274.432H490.314ZM499.405 277.664C500.013 277.664 500.565 277.763 501.061 277.96C501.562 278.157 501.989 278.437 502.341 278.8C502.698 279.163 502.973 279.605 503.165 280.128C503.357 280.651 503.453 281.235 503.453 281.88C503.453 282.531 503.357 283.117 503.165 283.64C502.973 284.163 502.698 284.608 502.341 284.976C501.989 285.344 501.562 285.627 501.061 285.824C500.565 286.021 500.013 286.12 499.405 286.12C498.792 286.12 498.234 286.021 497.733 285.824C497.232 285.627 496.802 285.344 496.445 284.976C496.093 284.608 495.818 284.163 495.621 283.64C495.429 283.117 495.333 282.531 495.333 281.88C495.333 281.235 495.429 280.651 495.621 280.128C495.818 279.605 496.093 279.163 496.445 278.8C496.802 278.437 497.232 278.157 497.733 277.96C498.234 277.763 498.792 277.664 499.405 277.664ZM499.405 284.6C500.088 284.6 500.592 284.371 500.917 283.912C501.248 283.453 501.413 282.781 501.413 281.896C501.413 281.011 501.248 280.336 500.917 279.872C500.592 279.408 500.088 279.176 499.405 279.176C498.712 279.176 498.197 279.411 497.861 279.88C497.53 280.344 497.365 281.016 497.365 281.896C497.365 282.776 497.53 283.448 497.861 283.912C498.197 284.371 498.712 284.6 499.405 284.6ZM509.968 279.392C509.915 279.477 509.859 279.539 509.8 279.576C509.742 279.608 509.667 279.624 509.576 279.624C509.48 279.624 509.376 279.597 509.264 279.544C509.158 279.491 509.032 279.432 508.888 279.368C508.744 279.299 508.579 279.237 508.392 279.184C508.211 279.131 507.995 279.104 507.744 279.104C507.355 279.104 507.048 279.187 506.824 279.352C506.606 279.517 506.496 279.733 506.496 280C506.496 280.176 506.552 280.325 506.664 280.448C506.782 280.565 506.934 280.669 507.12 280.76C507.312 280.851 507.528 280.933 507.768 281.008C508.008 281.077 508.251 281.155 508.496 281.24C508.747 281.325 508.992 281.424 509.232 281.536C509.472 281.643 509.686 281.781 509.872 281.952C510.064 282.117 510.216 282.317 510.328 282.552C510.446 282.787 510.504 283.069 510.504 283.4C510.504 283.795 510.432 284.16 510.288 284.496C510.15 284.827 509.942 285.115 509.664 285.36C509.387 285.6 509.043 285.789 508.632 285.928C508.227 286.061 507.758 286.128 507.224 286.128C506.942 286.128 506.664 286.101 506.392 286.048C506.126 286 505.867 285.931 505.616 285.84C505.371 285.749 505.142 285.643 504.928 285.52C504.72 285.397 504.536 285.264 504.376 285.12L504.832 284.368C504.891 284.277 504.96 284.208 505.04 284.16C505.12 284.112 505.222 284.088 505.344 284.088C505.467 284.088 505.582 284.123 505.688 284.192C505.8 284.261 505.928 284.336 506.072 284.416C506.216 284.496 506.384 284.571 506.576 284.64C506.774 284.709 507.022 284.744 507.32 284.744C507.555 284.744 507.755 284.717 507.92 284.664C508.091 284.605 508.23 284.531 508.336 284.44C508.448 284.349 508.528 284.245 508.576 284.128C508.63 284.005 508.656 283.88 508.656 283.752C508.656 283.56 508.598 283.403 508.48 283.28C508.368 283.157 508.216 283.051 508.024 282.96C507.838 282.869 507.622 282.789 507.376 282.72C507.136 282.645 506.888 282.565 506.632 282.48C506.382 282.395 506.134 282.296 505.888 282.184C505.648 282.067 505.432 281.92 505.24 281.744C505.054 281.568 504.902 281.352 504.784 281.096C504.672 280.84 504.616 280.531 504.616 280.168C504.616 279.832 504.683 279.512 504.816 279.208C504.95 278.904 505.144 278.64 505.4 278.416C505.662 278.187 505.984 278.005 506.368 277.872C506.758 277.733 507.206 277.664 507.712 277.664C508.278 277.664 508.792 277.757 509.256 277.944C509.72 278.131 510.107 278.376 510.416 278.68L509.968 279.392ZM514.728 286.128C514.013 286.128 513.464 285.928 513.08 285.528C512.701 285.123 512.512 284.565 512.512 283.856V279.272H511.672C511.565 279.272 511.474 279.237 511.4 279.168C511.325 279.099 511.288 278.995 511.288 278.856V278.072L512.608 277.856L513.024 275.616C513.05 275.509 513.101 275.427 513.176 275.368C513.25 275.309 513.346 275.28 513.464 275.28H514.488V277.864H516.68V279.272H514.488V283.72C514.488 283.976 514.549 284.176 514.672 284.32C514.8 284.464 514.973 284.536 515.192 284.536C515.314 284.536 515.416 284.523 515.496 284.496C515.581 284.464 515.653 284.432 515.712 284.4C515.776 284.368 515.832 284.339 515.88 284.312C515.928 284.28 515.976 284.264 516.024 284.264C516.082 284.264 516.13 284.28 516.168 284.312C516.205 284.339 516.245 284.381 516.288 284.44L516.88 285.4C516.592 285.64 516.261 285.821 515.888 285.944C515.514 286.067 515.128 286.128 514.728 286.128ZM520.945 281.696C521.19 281.696 521.403 281.664 521.585 281.6C521.766 281.531 521.915 281.437 522.033 281.32C522.155 281.203 522.246 281.061 522.305 280.896C522.369 280.731 522.401 280.549 522.401 280.352C522.401 279.947 522.278 279.627 522.033 279.392C521.793 279.152 521.43 279.032 520.945 279.032C520.459 279.032 520.094 279.152 519.849 279.392C519.609 279.627 519.489 279.947 519.489 280.352C519.489 280.544 519.518 280.723 519.577 280.888C519.641 281.053 519.731 281.197 519.849 281.32C519.971 281.437 520.123 281.531 520.305 281.6C520.491 281.664 520.705 281.696 520.945 281.696ZM523.177 286.368C523.177 286.208 523.129 286.077 523.033 285.976C522.937 285.875 522.806 285.797 522.641 285.744C522.475 285.685 522.281 285.643 522.057 285.616C521.838 285.589 521.603 285.571 521.353 285.56C521.107 285.544 520.851 285.531 520.585 285.52C520.323 285.509 520.067 285.488 519.817 285.456C519.598 285.579 519.419 285.723 519.281 285.888C519.147 286.053 519.081 286.245 519.081 286.464C519.081 286.608 519.115 286.741 519.185 286.864C519.259 286.992 519.374 287.101 519.529 287.192C519.689 287.283 519.894 287.352 520.145 287.4C520.395 287.453 520.702 287.48 521.065 287.48C521.433 287.48 521.75 287.451 522.017 287.392C522.283 287.339 522.502 287.261 522.673 287.16C522.849 287.064 522.977 286.947 523.057 286.808C523.137 286.675 523.177 286.528 523.177 286.368ZM525.145 278.072V278.808C525.145 279.043 525.003 279.187 524.721 279.24L523.985 279.376C524.097 279.659 524.153 279.968 524.153 280.304C524.153 280.709 524.07 281.077 523.905 281.408C523.745 281.733 523.521 282.011 523.233 282.24C522.945 282.469 522.603 282.648 522.209 282.776C521.819 282.899 521.398 282.96 520.945 282.96C520.785 282.96 520.63 282.952 520.481 282.936C520.331 282.92 520.185 282.899 520.041 282.872C519.785 283.027 519.657 283.2 519.657 283.392C519.657 283.557 519.731 283.68 519.881 283.76C520.035 283.835 520.238 283.888 520.489 283.92C520.739 283.952 521.025 283.973 521.345 283.984C521.665 283.989 521.993 284.005 522.329 284.032C522.665 284.059 522.993 284.107 523.313 284.176C523.633 284.24 523.918 284.344 524.169 284.488C524.419 284.632 524.619 284.829 524.769 285.08C524.923 285.325 525.001 285.643 525.001 286.032C525.001 286.395 524.91 286.747 524.729 287.088C524.553 287.429 524.294 287.733 523.953 288C523.617 288.267 523.201 288.48 522.705 288.64C522.214 288.805 521.654 288.888 521.025 288.888C520.406 288.888 519.867 288.827 519.409 288.704C518.95 288.587 518.569 288.427 518.265 288.224C517.961 288.027 517.734 287.797 517.585 287.536C517.435 287.275 517.361 287.003 517.361 286.72C517.361 286.336 517.475 286.016 517.705 285.76C517.939 285.499 518.259 285.291 518.665 285.136C518.446 285.024 518.273 284.875 518.145 284.688C518.017 284.501 517.953 284.256 517.953 283.952C517.953 283.829 517.974 283.704 518.017 283.576C518.065 283.443 518.131 283.312 518.217 283.184C518.307 283.056 518.419 282.936 518.553 282.824C518.686 282.707 518.843 282.603 519.025 282.512C518.609 282.288 518.281 281.989 518.041 281.616C517.806 281.243 517.689 280.805 517.689 280.304C517.689 279.899 517.769 279.533 517.929 279.208C518.094 278.877 518.321 278.597 518.609 278.368C518.902 278.133 519.246 277.955 519.641 277.832C520.041 277.709 520.475 277.648 520.945 277.648C521.297 277.648 521.627 277.685 521.937 277.76C522.246 277.829 522.529 277.933 522.785 278.072H525.145ZM528.262 279.216C528.518 278.725 528.822 278.341 529.174 278.064C529.526 277.781 529.942 277.64 530.422 277.64C530.801 277.64 531.105 277.723 531.334 277.888L531.206 279.368C531.179 279.464 531.139 279.533 531.086 279.576C531.038 279.613 530.971 279.632 530.886 279.632C530.806 279.632 530.686 279.619 530.526 279.592C530.371 279.565 530.219 279.552 530.07 279.552C529.851 279.552 529.657 279.584 529.486 279.648C529.315 279.712 529.161 279.805 529.022 279.928C528.889 280.045 528.769 280.189 528.662 280.36C528.561 280.531 528.465 280.725 528.374 280.944V286H526.398V277.792H527.558C527.761 277.792 527.902 277.829 527.982 277.904C528.062 277.973 528.115 278.101 528.142 278.288L528.262 279.216ZM537.42 280.952C537.42 280.696 537.383 280.456 537.308 280.232C537.239 280.003 537.132 279.803 536.988 279.632C536.844 279.461 536.66 279.328 536.436 279.232C536.218 279.131 535.962 279.08 535.668 279.08C535.098 279.08 534.647 279.243 534.316 279.568C533.991 279.893 533.783 280.355 533.692 280.952H537.42ZM533.652 282.144C533.684 282.565 533.759 282.931 533.876 283.24C533.994 283.544 534.148 283.797 534.34 284C534.532 284.197 534.759 284.347 535.02 284.448C535.287 284.544 535.58 284.592 535.9 284.592C536.22 284.592 536.495 284.555 536.724 284.48C536.959 284.405 537.162 284.323 537.332 284.232C537.508 284.141 537.66 284.059 537.788 283.984C537.922 283.909 538.05 283.872 538.172 283.872C538.338 283.872 538.46 283.933 538.54 284.056L539.108 284.776C538.89 285.032 538.644 285.248 538.372 285.424C538.1 285.595 537.815 285.733 537.516 285.84C537.223 285.941 536.922 286.013 536.612 286.056C536.308 286.099 536.012 286.12 535.724 286.12C535.154 286.12 534.623 286.027 534.132 285.84C533.642 285.648 533.215 285.368 532.852 285C532.49 284.627 532.204 284.168 531.996 283.624C531.788 283.075 531.684 282.44 531.684 281.72C531.684 281.16 531.775 280.635 531.956 280.144C532.138 279.648 532.396 279.219 532.732 278.856C533.074 278.488 533.487 278.197 533.972 277.984C534.463 277.771 535.015 277.664 535.628 277.664C536.146 277.664 536.623 277.747 537.06 277.912C537.498 278.077 537.874 278.32 538.188 278.64C538.503 278.955 538.748 279.344 538.924 279.808C539.106 280.267 539.196 280.792 539.196 281.384C539.196 281.683 539.164 281.885 539.1 281.992C539.036 282.093 538.914 282.144 538.732 282.144H533.652ZM545.687 279.392C545.634 279.477 545.578 279.539 545.519 279.576C545.46 279.608 545.386 279.624 545.295 279.624C545.199 279.624 545.095 279.597 544.983 279.544C544.876 279.491 544.751 279.432 544.607 279.368C544.463 279.299 544.298 279.237 544.111 279.184C543.93 279.131 543.714 279.104 543.463 279.104C543.074 279.104 542.767 279.187 542.543 279.352C542.324 279.517 542.215 279.733 542.215 280C542.215 280.176 542.271 280.325 542.383 280.448C542.5 280.565 542.652 280.669 542.839 280.76C543.031 280.851 543.247 280.933 543.487 281.008C543.727 281.077 543.97 281.155 544.215 281.24C544.466 281.325 544.711 281.424 544.951 281.536C545.191 281.643 545.404 281.781 545.591 281.952C545.783 282.117 545.935 282.317 546.047 282.552C546.164 282.787 546.223 283.069 546.223 283.4C546.223 283.795 546.151 284.16 546.007 284.496C545.868 284.827 545.66 285.115 545.383 285.36C545.106 285.6 544.762 285.789 544.351 285.928C543.946 286.061 543.476 286.128 542.943 286.128C542.66 286.128 542.383 286.101 542.111 286.048C541.844 286 541.586 285.931 541.335 285.84C541.09 285.749 540.86 285.643 540.647 285.52C540.439 285.397 540.255 285.264 540.095 285.12L540.551 284.368C540.61 284.277 540.679 284.208 540.759 284.16C540.839 284.112 540.94 284.088 541.063 284.088C541.186 284.088 541.3 284.123 541.407 284.192C541.519 284.261 541.647 284.336 541.791 284.416C541.935 284.496 542.103 284.571 542.295 284.64C542.492 284.709 542.74 284.744 543.039 284.744C543.274 284.744 543.474 284.717 543.639 284.664C543.81 284.605 543.948 284.531 544.055 284.44C544.167 284.349 544.247 284.245 544.295 284.128C544.348 284.005 544.375 283.88 544.375 283.752C544.375 283.56 544.316 283.403 544.199 283.28C544.087 283.157 543.935 283.051 543.743 282.96C543.556 282.869 543.34 282.789 543.095 282.72C542.855 282.645 542.607 282.565 542.351 282.48C542.1 282.395 541.852 282.296 541.607 282.184C541.367 282.067 541.151 281.92 540.959 281.744C540.772 281.568 540.62 281.352 540.503 281.096C540.391 280.84 540.335 280.531 540.335 280.168C540.335 279.832 540.402 279.512 540.535 279.208C540.668 278.904 540.863 278.64 541.119 278.416C541.38 278.187 541.703 278.005 542.087 277.872C542.476 277.733 542.924 277.664 543.431 277.664C543.996 277.664 544.511 277.757 544.975 277.944C545.439 278.131 545.826 278.376 546.135 278.68L545.687 279.392Z" fill="black"/>
<path d="M497.269 298.368C497.069 298.1 496.853 297.914 496.621 297.81C496.389 297.702 496.129 297.648 495.841 297.648C495.277 297.648 494.843 297.85 494.539 298.254C494.235 298.658 494.083 299.234 494.083 299.982C494.083 300.378 494.117 300.718 494.185 301.002C494.253 301.282 494.353 301.514 494.485 301.698C494.617 301.878 494.779 302.01 494.971 302.094C495.163 302.178 495.381 302.22 495.625 302.22C495.977 302.22 496.283 302.14 496.543 301.98C496.807 301.82 497.049 301.594 497.269 301.302V298.368ZM498.337 294.162V303H497.701C497.549 303 497.453 302.926 497.413 302.778L497.317 302.04C497.057 302.352 496.761 302.604 496.429 302.796C496.097 302.988 495.713 303.084 495.277 303.084C494.929 303.084 494.613 303.018 494.329 302.886C494.045 302.75 493.803 302.552 493.603 302.292C493.403 302.032 493.249 301.708 493.141 301.32C493.033 300.932 492.979 300.486 492.979 299.982C492.979 299.534 493.039 299.118 493.159 298.734C493.279 298.346 493.451 298.01 493.675 297.726C493.899 297.442 494.173 297.22 494.497 297.06C494.825 296.896 495.193 296.814 495.601 296.814C495.973 296.814 496.291 296.878 496.555 297.006C496.823 297.13 497.061 297.304 497.269 297.528V294.162H498.337ZM503.318 300.264C502.826 300.28 502.406 300.32 502.058 300.384C501.714 300.444 501.432 300.524 501.212 300.624C500.996 300.724 500.838 300.842 500.738 300.978C500.642 301.114 500.594 301.266 500.594 301.434C500.594 301.594 500.62 301.732 500.672 301.848C500.724 301.964 500.794 302.06 500.882 302.136C500.974 302.208 501.08 302.262 501.2 302.298C501.324 302.33 501.456 302.346 501.596 302.346C501.784 302.346 501.956 302.328 502.112 302.292C502.268 302.252 502.414 302.196 502.55 302.124C502.69 302.052 502.822 301.966 502.946 301.866C503.074 301.766 503.198 301.652 503.318 301.524V300.264ZM499.868 297.78C500.204 297.456 500.566 297.214 500.954 297.054C501.342 296.894 501.772 296.814 502.244 296.814C502.584 296.814 502.886 296.87 503.15 296.982C503.414 297.094 503.636 297.25 503.816 297.45C503.996 297.65 504.132 297.892 504.224 298.176C504.316 298.46 504.362 298.772 504.362 299.112V303H503.888C503.784 303 503.704 302.984 503.648 302.952C503.592 302.916 503.548 302.848 503.516 302.748L503.396 302.172C503.236 302.32 503.08 302.452 502.928 302.568C502.776 302.68 502.616 302.776 502.448 302.856C502.28 302.932 502.1 302.99 501.908 303.03C501.72 303.074 501.51 303.096 501.278 303.096C501.042 303.096 500.82 303.064 500.612 303C500.404 302.932 500.222 302.832 500.066 302.7C499.914 302.568 499.792 302.402 499.7 302.202C499.612 301.998 499.568 301.758 499.568 301.482C499.568 301.242 499.634 301.012 499.766 300.792C499.898 300.568 500.112 300.37 500.408 300.198C500.704 300.026 501.09 299.886 501.566 299.778C502.042 299.666 502.626 299.602 503.318 299.586V299.112C503.318 298.64 503.216 298.284 503.012 298.044C502.808 297.8 502.51 297.678 502.118 297.678C501.854 297.678 501.632 297.712 501.452 297.78C501.276 297.844 501.122 297.918 500.99 298.002C500.862 298.082 500.75 298.156 500.654 298.224C500.562 298.288 500.47 298.32 500.378 298.32C500.306 298.32 500.244 298.302 500.192 298.266C500.14 298.226 500.096 298.178 500.06 298.122L499.868 297.78ZM507.773 303.096C507.293 303.096 506.923 302.962 506.663 302.694C506.407 302.426 506.279 302.04 506.279 301.536V297.816H505.547C505.483 297.816 505.429 297.798 505.385 297.762C505.341 297.722 505.319 297.662 505.319 297.582V297.156L506.315 297.03L506.561 295.152C506.573 295.092 506.599 295.044 506.639 295.008C506.683 294.968 506.739 294.948 506.807 294.948H507.347V297.042H509.105V297.816H507.347V301.464C507.347 301.72 507.409 301.91 507.533 302.034C507.657 302.158 507.817 302.22 508.013 302.22C508.125 302.22 508.221 302.206 508.301 302.178C508.385 302.146 508.457 302.112 508.517 302.076C508.577 302.04 508.627 302.008 508.667 301.98C508.711 301.948 508.749 301.932 508.781 301.932C508.837 301.932 508.887 301.966 508.931 302.034L509.243 302.544C509.059 302.716 508.837 302.852 508.577 302.952C508.317 303.048 508.049 303.096 507.773 303.096ZM513.501 300.264C513.009 300.28 512.589 300.32 512.241 300.384C511.897 300.444 511.615 300.524 511.395 300.624C511.179 300.724 511.021 300.842 510.921 300.978C510.825 301.114 510.777 301.266 510.777 301.434C510.777 301.594 510.803 301.732 510.855 301.848C510.907 301.964 510.977 302.06 511.065 302.136C511.157 302.208 511.263 302.262 511.383 302.298C511.507 302.33 511.639 302.346 511.779 302.346C511.967 302.346 512.139 302.328 512.295 302.292C512.451 302.252 512.597 302.196 512.733 302.124C512.873 302.052 513.005 301.966 513.129 301.866C513.257 301.766 513.381 301.652 513.501 301.524V300.264ZM510.051 297.78C510.387 297.456 510.749 297.214 511.137 297.054C511.525 296.894 511.955 296.814 512.427 296.814C512.767 296.814 513.069 296.87 513.333 296.982C513.597 297.094 513.819 297.25 513.999 297.45C514.179 297.65 514.315 297.892 514.407 298.176C514.499 298.46 514.545 298.772 514.545 299.112V303H514.071C513.967 303 513.887 302.984 513.831 302.952C513.775 302.916 513.731 302.848 513.699 302.748L513.579 302.172C513.419 302.32 513.263 302.452 513.111 302.568C512.959 302.68 512.799 302.776 512.631 302.856C512.463 302.932 512.283 302.99 512.091 303.03C511.903 303.074 511.693 303.096 511.461 303.096C511.225 303.096 511.003 303.064 510.795 303C510.587 302.932 510.405 302.832 510.249 302.7C510.097 302.568 509.975 302.402 509.883 302.202C509.795 301.998 509.751 301.758 509.751 301.482C509.751 301.242 509.817 301.012 509.949 300.792C510.081 300.568 510.295 300.37 510.591 300.198C510.887 300.026 511.273 299.886 511.749 299.778C512.225 299.666 512.809 299.602 513.501 299.586V299.112C513.501 298.64 513.399 298.284 513.195 298.044C512.991 297.8 512.693 297.678 512.301 297.678C512.037 297.678 511.815 297.712 511.635 297.78C511.459 297.844 511.305 297.918 511.173 298.002C511.045 298.082 510.933 298.156 510.837 298.224C510.745 298.288 510.653 298.32 510.561 298.32C510.489 298.32 510.427 298.302 510.375 298.266C510.323 298.226 510.279 298.178 510.243 298.122L510.051 297.78ZM517.246 301.536C517.442 301.8 517.656 301.986 517.888 302.094C518.124 302.202 518.382 302.256 518.662 302.256C519.234 302.256 519.672 302.054 519.976 301.65C520.28 301.246 520.432 300.644 520.432 299.844C520.432 299.1 520.296 298.554 520.024 298.206C519.756 297.854 519.372 297.678 518.872 297.678C518.524 297.678 518.22 297.758 517.96 297.918C517.704 298.078 517.466 298.304 517.246 298.596V301.536ZM517.246 297.798C517.502 297.502 517.79 297.266 518.11 297.09C518.434 296.914 518.806 296.826 519.226 296.826C519.582 296.826 519.902 296.894 520.186 297.03C520.474 297.166 520.718 297.364 520.918 297.624C521.118 297.88 521.27 298.192 521.374 298.56C521.482 298.928 521.536 299.342 521.536 299.802C521.536 300.294 521.476 300.742 521.356 301.146C521.236 301.55 521.062 301.896 520.834 302.184C520.61 302.468 520.336 302.69 520.012 302.85C519.688 303.006 519.324 303.084 518.92 303.084C518.52 303.084 518.182 303.01 517.906 302.862C517.634 302.71 517.396 302.496 517.192 302.22L517.138 302.772C517.106 302.924 517.014 303 516.862 303H516.172V294.162H517.246V297.798ZM526.181 300.264C525.689 300.28 525.269 300.32 524.921 300.384C524.577 300.444 524.295 300.524 524.075 300.624C523.859 300.724 523.701 300.842 523.601 300.978C523.505 301.114 523.457 301.266 523.457 301.434C523.457 301.594 523.483 301.732 523.535 301.848C523.587 301.964 523.657 302.06 523.745 302.136C523.837 302.208 523.943 302.262 524.063 302.298C524.187 302.33 524.319 302.346 524.459 302.346C524.647 302.346 524.819 302.328 524.975 302.292C525.131 302.252 525.277 302.196 525.413 302.124C525.553 302.052 525.685 301.966 525.809 301.866C525.937 301.766 526.061 301.652 526.181 301.524V300.264ZM522.731 297.78C523.067 297.456 523.429 297.214 523.817 297.054C524.205 296.894 524.635 296.814 525.107 296.814C525.447 296.814 525.749 296.87 526.013 296.982C526.277 297.094 526.499 297.25 526.679 297.45C526.859 297.65 526.995 297.892 527.087 298.176C527.179 298.46 527.225 298.772 527.225 299.112V303H526.751C526.647 303 526.567 302.984 526.511 302.952C526.455 302.916 526.411 302.848 526.379 302.748L526.259 302.172C526.099 302.32 525.943 302.452 525.791 302.568C525.639 302.68 525.479 302.776 525.311 302.856C525.143 302.932 524.963 302.99 524.771 303.03C524.583 303.074 524.373 303.096 524.141 303.096C523.905 303.096 523.683 303.064 523.475 303C523.267 302.932 523.085 302.832 522.929 302.7C522.777 302.568 522.655 302.402 522.563 302.202C522.475 301.998 522.431 301.758 522.431 301.482C522.431 301.242 522.497 301.012 522.629 300.792C522.761 300.568 522.975 300.37 523.271 300.198C523.567 300.026 523.953 299.886 524.429 299.778C524.905 299.666 525.489 299.602 526.181 299.586V299.112C526.181 298.64 526.079 298.284 525.875 298.044C525.671 297.8 525.373 297.678 524.981 297.678C524.717 297.678 524.495 297.712 524.315 297.78C524.139 297.844 523.985 297.918 523.853 298.002C523.725 298.082 523.613 298.156 523.517 298.224C523.425 298.288 523.333 298.32 523.241 298.32C523.169 298.32 523.107 298.302 523.055 298.266C523.003 298.226 522.959 298.178 522.923 298.122L522.731 297.78ZM532.392 297.924C532.344 298.012 532.27 298.056 532.17 298.056C532.11 298.056 532.042 298.034 531.966 297.99C531.89 297.946 531.796 297.898 531.684 297.846C531.576 297.79 531.446 297.74 531.294 297.696C531.142 297.648 530.962 297.624 530.754 297.624C530.574 297.624 530.412 297.648 530.268 297.696C530.124 297.74 530 297.802 529.896 297.882C529.796 297.962 529.718 298.056 529.662 298.164C529.61 298.268 529.584 298.382 529.584 298.506C529.584 298.662 529.628 298.792 529.716 298.896C529.808 299 529.928 299.09 530.076 299.166C530.224 299.242 530.392 299.31 530.58 299.37C530.768 299.426 530.96 299.488 531.156 299.556C531.356 299.62 531.55 299.692 531.738 299.772C531.926 299.852 532.094 299.952 532.242 300.072C532.39 300.192 532.508 300.34 532.596 300.516C532.688 300.688 532.734 300.896 532.734 301.14C532.734 301.42 532.684 301.68 532.584 301.92C532.484 302.156 532.336 302.362 532.14 302.538C531.944 302.71 531.704 302.846 531.42 302.946C531.136 303.046 530.808 303.096 530.436 303.096C530.012 303.096 529.628 303.028 529.284 302.892C528.94 302.752 528.648 302.574 528.408 302.358L528.66 301.95C528.692 301.898 528.73 301.858 528.774 301.83C528.818 301.802 528.874 301.788 528.942 301.788C529.014 301.788 529.09 301.816 529.17 301.872C529.25 301.928 529.346 301.99 529.458 302.058C529.574 302.126 529.714 302.188 529.878 302.244C530.042 302.3 530.246 302.328 530.49 302.328C530.698 302.328 530.88 302.302 531.036 302.25C531.192 302.194 531.322 302.12 531.426 302.028C531.53 301.936 531.606 301.83 531.654 301.71C531.706 301.59 531.732 301.462 531.732 301.326C531.732 301.158 531.686 301.02 531.594 300.912C531.506 300.8 531.388 300.706 531.24 300.63C531.092 300.55 530.922 300.482 530.73 300.426C530.542 300.366 530.348 300.304 530.148 300.24C529.952 300.176 529.758 300.104 529.566 300.024C529.378 299.94 529.21 299.836 529.062 299.712C528.914 299.588 528.794 299.436 528.702 299.256C528.614 299.072 528.57 298.85 528.57 298.59C528.57 298.358 528.618 298.136 528.714 297.924C528.81 297.708 528.95 297.52 529.134 297.36C529.318 297.196 529.544 297.066 529.812 296.97C530.08 296.874 530.386 296.826 530.73 296.826C531.13 296.826 531.488 296.89 531.804 297.018C532.124 297.142 532.4 297.314 532.632 297.534L532.392 297.924ZM538.111 299.298C538.111 299.05 538.075 298.824 538.003 298.62C537.935 298.412 537.833 298.234 537.697 298.086C537.565 297.934 537.403 297.818 537.211 297.738C537.019 297.654 536.801 297.612 536.557 297.612C536.045 297.612 535.639 297.762 535.339 298.062C535.043 298.358 534.859 298.77 534.787 299.298H538.111ZM538.975 302.148C538.843 302.308 538.685 302.448 538.501 302.568C538.317 302.684 538.119 302.78 537.907 302.856C537.699 302.932 537.483 302.988 537.259 303.024C537.035 303.064 536.813 303.084 536.593 303.084C536.173 303.084 535.785 303.014 535.429 302.874C535.077 302.73 534.771 302.522 534.511 302.25C534.255 301.974 534.055 301.634 533.911 301.23C533.767 300.826 533.695 300.362 533.695 299.838C533.695 299.414 533.759 299.018 533.887 298.65C534.019 298.282 534.207 297.964 534.451 297.696C534.695 297.424 534.993 297.212 535.345 297.06C535.697 296.904 536.093 296.826 536.533 296.826C536.897 296.826 537.233 296.888 537.541 297.012C537.853 297.132 538.121 297.308 538.345 297.54C538.573 297.768 538.751 298.052 538.879 298.392C539.007 298.728 539.071 299.112 539.071 299.544C539.071 299.712 539.053 299.824 539.017 299.88C538.981 299.936 538.913 299.964 538.813 299.964H534.751C534.763 300.348 534.815 300.682 534.907 300.966C535.003 301.25 535.135 301.488 535.303 301.68C535.471 301.868 535.671 302.01 535.903 302.106C536.135 302.198 536.395 302.244 536.683 302.244C536.951 302.244 537.181 302.214 537.373 302.154C537.569 302.09 537.737 302.022 537.877 301.95C538.017 301.878 538.133 301.812 538.225 301.752C538.321 301.688 538.403 301.656 538.471 301.656C538.559 301.656 538.627 301.69 538.675 301.758L538.975 302.148Z" fill="#9FAAB5"/>
<rect x="416.5" y="128.5" width="199" height="63" rx="15.5" stroke="#9FAAB5"/>
<path d="M497.513 155.272C497.631 155.272 497.735 155.317 497.825 155.408L498.673 156.328C498.204 156.909 497.625 157.355 496.937 157.664C496.255 157.973 495.433 158.128 494.473 158.128C493.615 158.128 492.841 157.981 492.153 157.688C491.471 157.395 490.887 156.987 490.401 156.464C489.916 155.941 489.543 155.317 489.281 154.592C489.025 153.867 488.897 153.075 488.897 152.216C488.897 151.347 489.036 150.552 489.313 149.832C489.591 149.107 489.98 148.483 490.481 147.96C490.988 147.437 491.591 147.032 492.289 146.744C492.988 146.451 493.761 146.304 494.609 146.304C495.452 146.304 496.199 146.443 496.849 146.72C497.505 146.997 498.063 147.36 498.521 147.808L497.801 148.808C497.759 148.872 497.703 148.928 497.633 148.976C497.569 149.024 497.479 149.048 497.361 149.048C497.281 149.048 497.199 149.027 497.113 148.984C497.028 148.936 496.935 148.88 496.833 148.816C496.732 148.747 496.615 148.672 496.481 148.592C496.348 148.512 496.193 148.44 496.017 148.376C495.841 148.307 495.636 148.251 495.401 148.208C495.172 148.16 494.905 148.136 494.601 148.136C494.084 148.136 493.609 148.229 493.177 148.416C492.751 148.597 492.383 148.864 492.073 149.216C491.764 149.563 491.524 149.989 491.353 150.496C491.183 150.997 491.097 151.571 491.097 152.216C491.097 152.867 491.188 153.445 491.369 153.952C491.556 154.459 491.807 154.885 492.121 155.232C492.436 155.579 492.807 155.845 493.233 156.032C493.66 156.213 494.119 156.304 494.609 156.304C494.903 156.304 495.167 156.288 495.401 156.256C495.641 156.224 495.86 156.173 496.057 156.104C496.26 156.035 496.449 155.947 496.625 155.84C496.807 155.728 496.985 155.592 497.161 155.432C497.215 155.384 497.271 155.347 497.329 155.32C497.388 155.288 497.449 155.272 497.513 155.272ZM501.668 151.216C501.924 150.725 502.228 150.341 502.58 150.064C502.932 149.781 503.348 149.64 503.828 149.64C504.207 149.64 504.511 149.723 504.74 149.888L504.612 151.368C504.585 151.464 504.545 151.533 504.492 151.576C504.444 151.613 504.377 151.632 504.292 151.632C504.212 151.632 504.092 151.619 503.932 151.592C503.777 151.565 503.625 151.552 503.476 151.552C503.257 151.552 503.063 151.584 502.892 151.648C502.721 151.712 502.567 151.805 502.428 151.928C502.295 152.045 502.175 152.189 502.068 152.36C501.967 152.531 501.871 152.725 501.78 152.944V158H499.804V149.792H500.964C501.167 149.792 501.308 149.829 501.388 149.904C501.468 149.973 501.521 150.101 501.548 150.288L501.668 151.216ZM510 154.496C509.429 154.523 508.949 154.573 508.56 154.648C508.17 154.717 507.858 154.808 507.624 154.92C507.389 155.032 507.221 155.163 507.12 155.312C507.018 155.461 506.968 155.624 506.968 155.8C506.968 156.147 507.069 156.395 507.272 156.544C507.48 156.693 507.749 156.768 508.08 156.768C508.485 156.768 508.834 156.696 509.128 156.552C509.426 156.403 509.717 156.179 510 155.88V154.496ZM505.472 150.936C506.416 150.072 507.552 149.64 508.88 149.64C509.36 149.64 509.789 149.72 510.168 149.88C510.546 150.035 510.866 150.253 511.128 150.536C511.389 150.813 511.586 151.147 511.72 151.536C511.858 151.925 511.928 152.352 511.928 152.816V158H511.032C510.845 158 510.701 157.973 510.6 157.92C510.498 157.861 510.418 157.747 510.36 157.576L510.184 156.984C509.976 157.171 509.773 157.336 509.576 157.48C509.378 157.619 509.173 157.736 508.96 157.832C508.746 157.928 508.517 158 508.272 158.048C508.032 158.101 507.765 158.128 507.472 158.128C507.125 158.128 506.805 158.083 506.512 157.992C506.218 157.896 505.965 157.755 505.752 157.568C505.538 157.381 505.373 157.149 505.256 156.872C505.138 156.595 505.08 156.272 505.08 155.904C505.08 155.696 505.114 155.491 505.184 155.288C505.253 155.08 505.365 154.883 505.52 154.696C505.68 154.509 505.885 154.333 506.136 154.168C506.386 154.003 506.693 153.859 507.056 153.736C507.424 153.613 507.85 153.515 508.336 153.44C508.821 153.36 509.376 153.312 510 153.296V152.816C510 152.267 509.882 151.861 509.648 151.6C509.413 151.333 509.074 151.2 508.632 151.2C508.312 151.2 508.045 151.237 507.832 151.312C507.624 151.387 507.44 151.472 507.28 151.568C507.12 151.659 506.973 151.741 506.84 151.816C506.712 151.891 506.568 151.928 506.408 151.928C506.269 151.928 506.152 151.893 506.056 151.824C505.96 151.749 505.882 151.664 505.824 151.568L505.472 150.936ZM525.43 149.792L522.822 158H521.238C521.057 158 520.932 157.883 520.862 157.648L519.39 152.904C519.342 152.744 519.297 152.587 519.254 152.432C519.217 152.272 519.185 152.112 519.158 151.952C519.126 152.112 519.089 152.275 519.046 152.44C519.009 152.6 518.966 152.76 518.918 152.92L517.422 157.648C517.358 157.883 517.217 158 516.998 158H515.478L512.878 149.792H514.454C514.598 149.792 514.721 149.827 514.822 149.896C514.924 149.965 514.99 150.053 515.022 150.16L516.198 154.544C516.257 154.784 516.308 155.019 516.35 155.248C516.398 155.477 516.438 155.707 516.47 155.936C516.529 155.707 516.59 155.477 516.654 155.248C516.724 155.019 516.796 154.784 516.87 154.544L518.23 150.144C518.262 150.037 518.324 149.949 518.414 149.88C518.51 149.811 518.625 149.776 518.758 149.776H519.63C519.769 149.776 519.886 149.811 519.982 149.88C520.084 149.949 520.15 150.037 520.182 150.144L521.502 154.544C521.572 154.784 521.636 155.021 521.694 155.256C521.758 155.485 521.82 155.715 521.878 155.944C521.948 155.491 522.046 155.024 522.174 154.544L523.382 150.16C523.42 150.053 523.486 149.965 523.582 149.896C523.678 149.827 523.793 149.792 523.926 149.792H525.43ZM528.554 146.112V158H526.578V146.112H528.554ZM535.811 152.952C535.811 152.696 535.774 152.456 535.699 152.232C535.63 152.003 535.523 151.803 535.379 151.632C535.235 151.461 535.051 151.328 534.827 151.232C534.608 151.131 534.352 151.08 534.059 151.08C533.488 151.08 533.038 151.243 532.707 151.568C532.382 151.893 532.174 152.355 532.083 152.952H535.811ZM532.043 154.144C532.075 154.565 532.15 154.931 532.267 155.24C532.384 155.544 532.539 155.797 532.731 156C532.923 156.197 533.15 156.347 533.411 156.448C533.678 156.544 533.971 156.592 534.291 156.592C534.611 156.592 534.886 156.555 535.115 156.48C535.35 156.405 535.552 156.323 535.723 156.232C535.899 156.141 536.051 156.059 536.179 155.984C536.312 155.909 536.44 155.872 536.563 155.872C536.728 155.872 536.851 155.933 536.931 156.056L537.499 156.776C537.28 157.032 537.035 157.248 536.763 157.424C536.491 157.595 536.206 157.733 535.907 157.84C535.614 157.941 535.312 158.013 535.003 158.056C534.699 158.099 534.403 158.12 534.115 158.12C533.544 158.12 533.014 158.027 532.523 157.84C532.032 157.648 531.606 157.368 531.243 157C530.88 156.627 530.595 156.168 530.387 155.624C530.179 155.075 530.075 154.44 530.075 153.72C530.075 153.16 530.166 152.635 530.347 152.144C530.528 151.648 530.787 151.219 531.123 150.856C531.464 150.488 531.878 150.197 532.363 149.984C532.854 149.771 533.406 149.664 534.019 149.664C534.536 149.664 535.014 149.747 535.451 149.912C535.888 150.077 536.264 150.32 536.579 150.64C536.894 150.955 537.139 151.344 537.315 151.808C537.496 152.267 537.587 152.792 537.587 153.384C537.587 153.683 537.555 153.885 537.491 153.992C537.427 154.093 537.304 154.144 537.123 154.144H532.043ZM540.934 151.216C541.19 150.725 541.494 150.341 541.846 150.064C542.198 149.781 542.614 149.64 543.094 149.64C543.472 149.64 543.776 149.723 544.006 149.888L543.878 151.368C543.851 151.464 543.811 151.533 543.758 151.576C543.71 151.613 543.643 151.632 543.558 151.632C543.478 151.632 543.358 151.619 543.198 151.592C543.043 151.565 542.891 151.552 542.742 151.552C542.523 151.552 542.328 151.584 542.158 151.648C541.987 151.712 541.832 151.805 541.694 151.928C541.56 152.045 541.44 152.189 541.334 152.36C541.232 152.531 541.136 152.725 541.046 152.944V158H539.07V149.792H540.23C540.432 149.792 540.574 149.829 540.654 149.904C540.734 149.973 540.787 150.101 540.814 150.288L540.934 151.216Z" fill="black"/>
<path d="M495.7 169.924C495.652 170.012 495.578 170.056 495.478 170.056C495.418 170.056 495.35 170.034 495.274 169.99C495.198 169.946 495.104 169.898 494.992 169.846C494.884 169.79 494.754 169.74 494.602 169.696C494.45 169.648 494.27 169.624 494.062 169.624C493.882 169.624 493.72 169.648 493.576 169.696C493.432 169.74 493.308 169.802 493.204 169.882C493.104 169.962 493.026 170.056 492.97 170.164C492.918 170.268 492.892 170.382 492.892 170.506C492.892 170.662 492.936 170.792 493.024 170.896C493.116 171 493.236 171.09 493.384 171.166C493.532 171.242 493.7 171.31 493.888 171.37C494.076 171.426 494.268 171.488 494.464 171.556C494.664 171.62 494.858 171.692 495.046 171.772C495.234 171.852 495.402 171.952 495.55 172.072C495.698 172.192 495.816 172.34 495.904 172.516C495.996 172.688 496.042 172.896 496.042 173.14C496.042 173.42 495.992 173.68 495.892 173.92C495.792 174.156 495.644 174.362 495.448 174.538C495.252 174.71 495.012 174.846 494.728 174.946C494.444 175.046 494.116 175.096 493.744 175.096C493.32 175.096 492.936 175.028 492.592 174.892C492.248 174.752 491.956 174.574 491.716 174.358L491.968 173.95C492 173.898 492.038 173.858 492.082 173.83C492.126 173.802 492.182 173.788 492.25 173.788C492.322 173.788 492.398 173.816 492.478 173.872C492.558 173.928 492.654 173.99 492.766 174.058C492.882 174.126 493.022 174.188 493.186 174.244C493.35 174.3 493.554 174.328 493.798 174.328C494.006 174.328 494.188 174.302 494.344 174.25C494.5 174.194 494.63 174.12 494.734 174.028C494.838 173.936 494.914 173.83 494.962 173.71C495.014 173.59 495.04 173.462 495.04 173.326C495.04 173.158 494.994 173.02 494.902 172.912C494.814 172.8 494.696 172.706 494.548 172.63C494.4 172.55 494.23 172.482 494.038 172.426C493.85 172.366 493.656 172.304 493.456 172.24C493.26 172.176 493.066 172.104 492.874 172.024C492.686 171.94 492.518 171.836 492.37 171.712C492.222 171.588 492.102 171.436 492.01 171.256C491.922 171.072 491.878 170.85 491.878 170.59C491.878 170.358 491.926 170.136 492.022 169.924C492.118 169.708 492.258 169.52 492.442 169.36C492.626 169.196 492.852 169.066 493.12 168.97C493.388 168.874 493.694 168.826 494.038 168.826C494.438 168.826 494.796 168.89 495.112 169.018C495.432 169.142 495.708 169.314 495.94 169.534L495.7 169.924ZM501.42 171.298C501.42 171.05 501.384 170.824 501.312 170.62C501.244 170.412 501.142 170.234 501.006 170.086C500.874 169.934 500.712 169.818 500.52 169.738C500.328 169.654 500.11 169.612 499.866 169.612C499.354 169.612 498.948 169.762 498.648 170.062C498.352 170.358 498.168 170.77 498.096 171.298H501.42ZM502.284 174.148C502.152 174.308 501.994 174.448 501.81 174.568C501.626 174.684 501.428 174.78 501.216 174.856C501.008 174.932 500.792 174.988 500.568 175.024C500.344 175.064 500.122 175.084 499.902 175.084C499.482 175.084 499.094 175.014 498.738 174.874C498.386 174.73 498.08 174.522 497.82 174.25C497.564 173.974 497.364 173.634 497.22 173.23C497.076 172.826 497.004 172.362 497.004 171.838C497.004 171.414 497.068 171.018 497.196 170.65C497.328 170.282 497.516 169.964 497.76 169.696C498.004 169.424 498.302 169.212 498.654 169.06C499.006 168.904 499.402 168.826 499.842 168.826C500.206 168.826 500.542 168.888 500.85 169.012C501.162 169.132 501.43 169.308 501.654 169.54C501.882 169.768 502.06 170.052 502.188 170.392C502.316 170.728 502.38 171.112 502.38 171.544C502.38 171.712 502.362 171.824 502.326 171.88C502.29 171.936 502.222 171.964 502.122 171.964H498.06C498.072 172.348 498.124 172.682 498.216 172.966C498.312 173.25 498.444 173.488 498.612 173.68C498.78 173.868 498.98 174.01 499.212 174.106C499.444 174.198 499.704 174.244 499.992 174.244C500.26 174.244 500.49 174.214 500.682 174.154C500.878 174.09 501.046 174.022 501.186 173.95C501.326 173.878 501.442 173.812 501.534 173.752C501.63 173.688 501.712 173.656 501.78 173.656C501.868 173.656 501.936 173.69 501.984 173.758L502.284 174.148ZM504.706 170.14C504.898 169.724 505.134 169.4 505.414 169.168C505.694 168.932 506.036 168.814 506.44 168.814C506.568 168.814 506.69 168.828 506.806 168.856C506.926 168.884 507.032 168.928 507.124 168.988L507.046 169.786C507.022 169.886 506.962 169.936 506.866 169.936C506.81 169.936 506.728 169.924 506.62 169.9C506.512 169.876 506.39 169.864 506.254 169.864C506.062 169.864 505.89 169.892 505.738 169.948C505.59 170.004 505.456 170.088 505.336 170.2C505.22 170.308 505.114 170.444 505.018 170.608C504.926 170.768 504.842 170.952 504.766 171.16V175H503.692V168.922H504.304C504.42 168.922 504.5 168.944 504.544 168.988C504.588 169.032 504.618 169.108 504.634 169.216L504.706 170.14ZM513.271 168.922L510.793 175H509.833L507.355 168.922H508.225C508.313 168.922 508.385 168.944 508.441 168.988C508.497 169.032 508.535 169.084 508.555 169.144L510.097 173.056C510.145 173.204 510.187 173.348 510.223 173.488C510.259 173.628 510.293 173.768 510.325 173.908C510.357 173.768 510.391 173.628 510.427 173.488C510.463 173.348 510.507 173.204 510.559 173.056L512.119 169.144C512.143 169.08 512.183 169.028 512.239 168.988C512.295 168.944 512.361 168.922 512.437 168.922H513.271ZM518.154 171.298C518.154 171.05 518.118 170.824 518.046 170.62C517.978 170.412 517.876 170.234 517.74 170.086C517.608 169.934 517.446 169.818 517.254 169.738C517.062 169.654 516.844 169.612 516.6 169.612C516.088 169.612 515.682 169.762 515.382 170.062C515.086 170.358 514.902 170.77 514.83 171.298H518.154ZM519.018 174.148C518.886 174.308 518.728 174.448 518.544 174.568C518.36 174.684 518.162 174.78 517.95 174.856C517.742 174.932 517.526 174.988 517.302 175.024C517.078 175.064 516.856 175.084 516.636 175.084C516.216 175.084 515.828 175.014 515.472 174.874C515.12 174.73 514.814 174.522 514.554 174.25C514.298 173.974 514.098 173.634 513.954 173.23C513.81 172.826 513.738 172.362 513.738 171.838C513.738 171.414 513.802 171.018 513.93 170.65C514.062 170.282 514.25 169.964 514.494 169.696C514.738 169.424 515.036 169.212 515.388 169.06C515.74 168.904 516.136 168.826 516.576 168.826C516.94 168.826 517.276 168.888 517.584 169.012C517.896 169.132 518.164 169.308 518.388 169.54C518.616 169.768 518.794 170.052 518.922 170.392C519.05 170.728 519.114 171.112 519.114 171.544C519.114 171.712 519.096 171.824 519.06 171.88C519.024 171.936 518.956 171.964 518.856 171.964H514.794C514.806 172.348 514.858 172.682 514.95 172.966C515.046 173.25 515.178 173.488 515.346 173.68C515.514 173.868 515.714 174.01 515.946 174.106C516.178 174.198 516.438 174.244 516.726 174.244C516.994 174.244 517.224 174.214 517.416 174.154C517.612 174.09 517.78 174.022 517.92 173.95C518.06 173.878 518.176 173.812 518.268 173.752C518.364 173.688 518.446 173.656 518.514 173.656C518.602 173.656 518.67 173.69 518.718 173.758L519.018 174.148ZM521.44 170.14C521.632 169.724 521.868 169.4 522.148 169.168C522.428 168.932 522.77 168.814 523.174 168.814C523.302 168.814 523.424 168.828 523.54 168.856C523.66 168.884 523.766 168.928 523.858 168.988L523.78 169.786C523.756 169.886 523.696 169.936 523.6 169.936C523.544 169.936 523.462 169.924 523.354 169.9C523.246 169.876 523.124 169.864 522.988 169.864C522.796 169.864 522.624 169.892 522.472 169.948C522.324 170.004 522.19 170.088 522.07 170.2C521.954 170.308 521.848 170.444 521.752 170.608C521.66 170.768 521.576 170.952 521.5 171.16V175H520.426V168.922H521.038C521.154 168.922 521.234 168.944 521.278 168.988C521.322 169.032 521.352 169.108 521.368 169.216L521.44 170.14ZM531.144 169.72H529.662L529.272 171.676H530.754L531.144 169.72ZM533.412 168.934L533.334 169.384C533.314 169.5 533.266 169.586 533.19 169.642C533.118 169.694 533.006 169.72 532.854 169.72H532.026L531.636 171.676H532.71C532.826 171.676 532.908 171.71 532.956 171.778C533.008 171.842 533.022 171.956 532.998 172.12L532.944 172.462H531.522L531.018 175H530.532C530.48 175 530.432 174.988 530.388 174.964C530.344 174.94 530.306 174.908 530.274 174.868C530.246 174.828 530.226 174.78 530.214 174.724C530.202 174.668 530.202 174.606 530.214 174.538L530.64 172.462H529.158L528.732 174.592C528.708 174.74 528.65 174.846 528.558 174.91C528.466 174.97 528.362 175 528.246 175H527.766L528.276 172.462H527.4C527.288 172.462 527.206 172.43 527.154 172.366C527.106 172.298 527.094 172.182 527.118 172.018L527.166 171.676H528.39L528.78 169.72H527.388L527.466 169.276C527.486 169.16 527.532 169.074 527.604 169.018C527.68 168.962 527.794 168.934 527.946 168.934H528.894L529.326 166.786C529.35 166.666 529.404 166.572 529.488 166.504C529.576 166.436 529.68 166.402 529.8 166.402H530.28L529.776 168.934H531.258L531.762 166.402H532.236C532.352 166.402 532.442 166.44 532.506 166.516C532.574 166.592 532.598 166.688 532.578 166.804L532.14 168.934H533.412ZM539.647 173.986C539.763 173.986 539.855 174.02 539.923 174.088C539.991 174.156 540.025 174.244 540.025 174.352V175H534.289V174.634C534.289 174.558 534.305 174.48 534.337 174.4C534.369 174.32 534.419 174.246 534.487 174.178L537.241 171.412C537.469 171.18 537.677 170.958 537.865 170.746C538.053 170.53 538.213 170.314 538.345 170.098C538.477 169.882 538.579 169.664 538.651 169.444C538.723 169.22 538.759 168.982 538.759 168.73C538.759 168.478 538.719 168.258 538.639 168.07C538.559 167.878 538.449 167.72 538.309 167.596C538.173 167.472 538.011 167.38 537.823 167.32C537.635 167.256 537.433 167.224 537.217 167.224C536.997 167.224 536.795 167.256 536.611 167.32C536.427 167.384 536.263 167.474 536.119 167.59C535.979 167.702 535.861 167.836 535.765 167.992C535.669 168.148 535.601 168.32 535.561 168.508C535.513 168.648 535.447 168.742 535.363 168.79C535.283 168.834 535.169 168.846 535.021 168.826L534.463 168.73C534.519 168.338 534.627 167.992 534.787 167.692C534.951 167.388 535.155 167.134 535.399 166.93C535.647 166.726 535.929 166.572 536.245 166.468C536.561 166.36 536.903 166.306 537.271 166.306C537.635 166.306 537.975 166.36 538.291 166.468C538.607 166.576 538.881 166.734 539.113 166.942C539.345 167.146 539.527 167.396 539.659 167.692C539.791 167.988 539.857 168.324 539.857 168.7C539.857 169.02 539.809 169.318 539.713 169.594C539.617 169.866 539.487 170.126 539.323 170.374C539.159 170.622 538.969 170.864 538.753 171.1C538.541 171.336 538.315 171.574 538.075 171.814L535.807 174.13C535.967 174.086 536.129 174.052 536.293 174.028C536.457 174 536.615 173.986 536.767 173.986H539.647Z" fill="#9FAAB5"/>
<rect x="416.5" y="0.5" width="199" height="63" rx="15.5" stroke="#9FAAB5"/>
<path d="M506.88 18.432L502.208 30H500.264L495.592 18.432H497.32C497.506 18.432 497.658 18.4773 497.776 18.568C497.893 18.6587 497.981 18.776 498.04 18.92L500.768 25.976C500.858 26.2053 500.944 26.4587 501.024 26.736C501.109 27.008 501.189 27.2933 501.264 27.592C501.328 27.2933 501.397 27.008 501.472 26.736C501.546 26.4587 501.629 26.2053 501.72 25.976L504.432 18.92C504.474 18.7973 504.557 18.6853 504.68 18.584C504.808 18.4827 504.962 18.432 505.144 18.432H506.88ZM516.157 20.2H512.669V30H510.517V20.2H507.029V18.432H516.157V20.2ZM519.831 20.144V23.352H523.879V25.008H519.831V28.28H524.967V30H517.671V18.432H524.967V20.144H519.831ZM536.274 30H534.13C533.981 30 533.861 29.9627 533.77 29.888C533.685 29.8133 533.615 29.728 533.562 29.632L530.882 25.192C530.839 25.3253 530.789 25.44 530.73 25.536L528.162 29.632C528.098 29.7227 528.023 29.808 527.938 29.888C527.858 29.9627 527.751 30 527.618 30H525.61L529.45 24.048L525.762 18.432H527.906C528.055 18.432 528.162 18.4533 528.226 18.496C528.295 18.5333 528.359 18.5973 528.418 18.688L531.05 22.928C531.103 22.7947 531.167 22.6613 531.242 22.528L533.658 18.728C533.717 18.6267 533.781 18.552 533.85 18.504C533.919 18.456 534.007 18.432 534.114 18.432H536.17L532.45 23.96L536.274 30Z" fill="black"/>
<path d="M483.678 43.298C483.678 43.05 483.642 42.824 483.57 42.62C483.502 42.412 483.4 42.234 483.264 42.086C483.132 41.934 482.97 41.818 482.778 41.738C482.586 41.654 482.368 41.612 482.124 41.612C481.612 41.612 481.206 41.762 480.906 42.062C480.61 42.358 480.426 42.77 480.354 43.298H483.678ZM484.542 46.148C484.41 46.308 484.252 46.448 484.068 46.568C483.884 46.684 483.686 46.78 483.474 46.856C483.266 46.932 483.05 46.988 482.826 47.024C482.602 47.064 482.38 47.084 482.16 47.084C481.74 47.084 481.352 47.014 480.996 46.874C480.644 46.73 480.338 46.522 480.078 46.25C479.822 45.974 479.622 45.634 479.478 45.23C479.334 44.826 479.262 44.362 479.262 43.838C479.262 43.414 479.326 43.018 479.454 42.65C479.586 42.282 479.774 41.964 480.018 41.696C480.262 41.424 480.56 41.212 480.912 41.06C481.264 40.904 481.66 40.826 482.1 40.826C482.464 40.826 482.8 40.888 483.108 41.012C483.42 41.132 483.688 41.308 483.912 41.54C484.14 41.768 484.318 42.052 484.446 42.392C484.574 42.728 484.638 43.112 484.638 43.544C484.638 43.712 484.62 43.824 484.584 43.88C484.548 43.936 484.48 43.964 484.38 43.964H480.318C480.33 44.348 480.382 44.682 480.474 44.966C480.57 45.25 480.702 45.488 480.87 45.68C481.038 45.868 481.238 46.01 481.47 46.106C481.702 46.198 481.962 46.244 482.25 46.244C482.518 46.244 482.748 46.214 482.94 46.154C483.136 46.09 483.304 46.022 483.444 45.95C483.584 45.878 483.7 45.812 483.792 45.752C483.888 45.688 483.97 45.656 484.038 45.656C484.126 45.656 484.194 45.69 484.242 45.758L484.542 46.148ZM490.859 47H489.833C489.745 47 489.675 46.978 489.623 46.934C489.575 46.886 489.535 46.834 489.503 46.778L487.973 44.396C487.957 44.452 487.939 44.508 487.919 44.564C487.903 44.616 487.879 44.664 487.847 44.708L486.431 46.778C486.391 46.834 486.347 46.886 486.299 46.934C486.255 46.978 486.193 47 486.113 47H485.159L487.289 43.88L485.243 40.922H486.269C486.357 40.922 486.421 40.936 486.461 40.964C486.501 40.992 486.537 41.032 486.569 41.084L488.063 43.364C488.095 43.248 488.145 43.136 488.213 43.028L489.521 41.108C489.557 41.052 489.595 41.008 489.635 40.976C489.679 40.94 489.731 40.922 489.791 40.922H490.775L488.729 43.826L490.859 47ZM493.71 47.096C493.23 47.096 492.86 46.962 492.6 46.694C492.344 46.426 492.216 46.04 492.216 45.536V41.816H491.484C491.42 41.816 491.366 41.798 491.322 41.762C491.278 41.722 491.256 41.662 491.256 41.582V41.156L492.252 41.03L492.498 39.152C492.51 39.092 492.536 39.044 492.576 39.008C492.62 38.968 492.676 38.948 492.744 38.948H493.284V41.042H495.042V41.816H493.284V45.464C493.284 45.72 493.346 45.91 493.47 46.034C493.594 46.158 493.754 46.22 493.95 46.22C494.062 46.22 494.158 46.206 494.238 46.178C494.322 46.146 494.394 46.112 494.454 46.076C494.514 46.04 494.564 46.008 494.604 45.98C494.648 45.948 494.686 45.932 494.718 45.932C494.774 45.932 494.824 45.966 494.868 46.034L495.18 46.544C494.996 46.716 494.774 46.852 494.514 46.952C494.254 47.048 493.986 47.096 493.71 47.096ZM500.178 43.298C500.178 43.05 500.142 42.824 500.07 42.62C500.002 42.412 499.9 42.234 499.764 42.086C499.632 41.934 499.47 41.818 499.278 41.738C499.086 41.654 498.868 41.612 498.624 41.612C498.112 41.612 497.706 41.762 497.406 42.062C497.11 42.358 496.926 42.77 496.854 43.298H500.178ZM501.042 46.148C500.91 46.308 500.752 46.448 500.568 46.568C500.384 46.684 500.186 46.78 499.974 46.856C499.766 46.932 499.55 46.988 499.326 47.024C499.102 47.064 498.88 47.084 498.66 47.084C498.24 47.084 497.852 47.014 497.496 46.874C497.144 46.73 496.838 46.522 496.578 46.25C496.322 45.974 496.122 45.634 495.978 45.23C495.834 44.826 495.762 44.362 495.762 43.838C495.762 43.414 495.826 43.018 495.954 42.65C496.086 42.282 496.274 41.964 496.518 41.696C496.762 41.424 497.06 41.212 497.412 41.06C497.764 40.904 498.16 40.826 498.6 40.826C498.964 40.826 499.3 40.888 499.608 41.012C499.92 41.132 500.188 41.308 500.412 41.54C500.64 41.768 500.818 42.052 500.946 42.392C501.074 42.728 501.138 43.112 501.138 43.544C501.138 43.712 501.12 43.824 501.084 43.88C501.048 43.936 500.98 43.964 500.88 43.964H496.818C496.83 44.348 496.882 44.682 496.974 44.966C497.07 45.25 497.202 45.488 497.37 45.68C497.538 45.868 497.738 46.01 497.97 46.106C498.202 46.198 498.462 46.244 498.75 46.244C499.018 46.244 499.248 46.214 499.44 46.154C499.636 46.09 499.804 46.022 499.944 45.95C500.084 45.878 500.2 45.812 500.292 45.752C500.388 45.688 500.47 45.656 500.538 45.656C500.626 45.656 500.694 45.69 500.742 45.758L501.042 46.148ZM503.464 42.14C503.656 41.724 503.892 41.4 504.172 41.168C504.452 40.932 504.794 40.814 505.198 40.814C505.326 40.814 505.448 40.828 505.564 40.856C505.684 40.884 505.79 40.928 505.882 40.988L505.804 41.786C505.78 41.886 505.72 41.936 505.624 41.936C505.568 41.936 505.486 41.924 505.378 41.9C505.27 41.876 505.148 41.864 505.012 41.864C504.82 41.864 504.648 41.892 504.496 41.948C504.348 42.004 504.214 42.088 504.094 42.2C503.978 42.308 503.872 42.444 503.776 42.608C503.684 42.768 503.6 42.952 503.524 43.16V47H502.45V40.922H503.062C503.178 40.922 503.258 40.944 503.302 40.988C503.346 41.032 503.376 41.108 503.392 41.216L503.464 42.14ZM507.829 41.804C507.961 41.656 508.101 41.522 508.249 41.402C508.397 41.282 508.553 41.18 508.717 41.096C508.885 41.008 509.061 40.942 509.245 40.898C509.433 40.85 509.635 40.826 509.851 40.826C510.183 40.826 510.475 40.882 510.727 40.994C510.983 41.102 511.195 41.258 511.363 41.462C511.535 41.662 511.665 41.904 511.753 42.188C511.841 42.472 511.885 42.786 511.885 43.13V47H510.811V43.13C510.811 42.67 510.705 42.314 510.493 42.062C510.285 41.806 509.967 41.678 509.539 41.678C509.223 41.678 508.927 41.754 508.651 41.906C508.379 42.058 508.127 42.264 507.895 42.524V47H506.821V40.922H507.463C507.615 40.922 507.709 40.996 507.745 41.144L507.829 41.804ZM516.806 44.264C516.314 44.28 515.894 44.32 515.546 44.384C515.202 44.444 514.92 44.524 514.7 44.624C514.484 44.724 514.326 44.842 514.226 44.978C514.13 45.114 514.082 45.266 514.082 45.434C514.082 45.594 514.108 45.732 514.16 45.848C514.212 45.964 514.282 46.06 514.37 46.136C514.462 46.208 514.568 46.262 514.688 46.298C514.812 46.33 514.944 46.346 515.084 46.346C515.272 46.346 515.444 46.328 515.6 46.292C515.756 46.252 515.902 46.196 516.038 46.124C516.178 46.052 516.31 45.966 516.434 45.866C516.562 45.766 516.686 45.652 516.806 45.524V44.264ZM513.356 41.78C513.692 41.456 514.054 41.214 514.442 41.054C514.83 40.894 515.26 40.814 515.732 40.814C516.072 40.814 516.374 40.87 516.638 40.982C516.902 41.094 517.124 41.25 517.304 41.45C517.484 41.65 517.62 41.892 517.712 42.176C517.804 42.46 517.85 42.772 517.85 43.112V47H517.376C517.272 47 517.192 46.984 517.136 46.952C517.08 46.916 517.036 46.848 517.004 46.748L516.884 46.172C516.724 46.32 516.568 46.452 516.416 46.568C516.264 46.68 516.104 46.776 515.936 46.856C515.768 46.932 515.588 46.99 515.396 47.03C515.208 47.074 514.998 47.096 514.766 47.096C514.53 47.096 514.308 47.064 514.1 47C513.892 46.932 513.71 46.832 513.554 46.7C513.402 46.568 513.28 46.402 513.188 46.202C513.1 45.998 513.056 45.758 513.056 45.482C513.056 45.242 513.122 45.012 513.254 44.792C513.386 44.568 513.6 44.37 513.896 44.198C514.192 44.026 514.578 43.886 515.054 43.778C515.53 43.666 516.114 43.602 516.806 43.586V43.112C516.806 42.64 516.704 42.284 516.5 42.044C516.296 41.8 515.998 41.678 515.606 41.678C515.342 41.678 515.12 41.712 514.94 41.78C514.764 41.844 514.61 41.918 514.478 42.002C514.35 42.082 514.238 42.156 514.142 42.224C514.05 42.288 513.958 42.32 513.866 42.32C513.794 42.32 513.732 42.302 513.68 42.266C513.628 42.226 513.584 42.178 513.548 42.122L513.356 41.78ZM520.581 38.162V47H519.513V38.162H520.581ZM529.613 42.002C529.581 42.046 529.549 42.08 529.517 42.104C529.485 42.128 529.441 42.14 529.385 42.14C529.325 42.14 529.259 42.116 529.187 42.068C529.115 42.016 529.025 41.96 528.917 41.9C528.813 41.84 528.683 41.786 528.527 41.738C528.375 41.686 528.187 41.66 527.963 41.66C527.663 41.66 527.399 41.714 527.171 41.822C526.943 41.926 526.751 42.078 526.595 42.278C526.443 42.478 526.327 42.72 526.247 43.004C526.171 43.288 526.133 43.606 526.133 43.958C526.133 44.326 526.175 44.654 526.259 44.942C526.343 45.226 526.461 45.466 526.613 45.662C526.769 45.854 526.955 46.002 527.171 46.106C527.391 46.206 527.637 46.256 527.909 46.256C528.169 46.256 528.383 46.226 528.551 46.166C528.719 46.102 528.857 46.032 528.965 45.956C529.077 45.88 529.169 45.812 529.241 45.752C529.317 45.688 529.391 45.656 529.463 45.656C529.551 45.656 529.619 45.69 529.667 45.758L529.967 46.148C529.835 46.312 529.685 46.452 529.517 46.568C529.349 46.684 529.167 46.782 528.971 46.862C528.779 46.938 528.577 46.994 528.365 47.03C528.153 47.066 527.937 47.084 527.717 47.084C527.337 47.084 526.983 47.014 526.655 46.874C526.331 46.734 526.049 46.532 525.809 46.268C525.569 46 525.381 45.672 525.245 45.284C525.109 44.896 525.041 44.454 525.041 43.958C525.041 43.506 525.103 43.088 525.227 42.704C525.355 42.32 525.539 41.99 525.779 41.714C526.023 41.434 526.321 41.216 526.673 41.06C527.029 40.904 527.437 40.826 527.897 40.826C528.325 40.826 528.701 40.896 529.025 41.036C529.353 41.172 529.643 41.366 529.895 41.618L529.613 42.002ZM532.218 38.162V47H531.15V38.162H532.218ZM535.078 40.922V47H534.01V40.922H535.078ZM535.306 39.014C535.306 39.118 535.284 39.216 535.24 39.308C535.2 39.396 535.144 39.476 535.072 39.548C535.004 39.616 534.922 39.67 534.826 39.71C534.734 39.75 534.636 39.77 534.532 39.77C534.428 39.77 534.33 39.75 534.238 39.71C534.15 39.67 534.072 39.616 534.004 39.548C533.936 39.476 533.882 39.396 533.842 39.308C533.802 39.216 533.782 39.118 533.782 39.014C533.782 38.91 533.802 38.812 533.842 38.72C533.882 38.624 533.936 38.542 534.004 38.474C534.072 38.402 534.15 38.346 534.238 38.306C534.33 38.266 534.428 38.246 534.532 38.246C534.636 38.246 534.734 38.266 534.826 38.306C534.922 38.346 535.004 38.402 535.072 38.474C535.144 38.542 535.2 38.624 535.24 38.72C535.284 38.812 535.306 38.91 535.306 39.014ZM540.9 43.298C540.9 43.05 540.864 42.824 540.792 42.62C540.724 42.412 540.622 42.234 540.486 42.086C540.354 41.934 540.192 41.818 540 41.738C539.808 41.654 539.59 41.612 539.346 41.612C538.834 41.612 538.428 41.762 538.128 42.062C537.832 42.358 537.648 42.77 537.576 43.298H540.9ZM541.764 46.148C541.632 46.308 541.474 46.448 541.29 46.568C541.106 46.684 540.908 46.78 540.696 46.856C540.488 46.932 540.272 46.988 540.048 47.024C539.824 47.064 539.602 47.084 539.382 47.084C538.962 47.084 538.574 47.014 538.218 46.874C537.866 46.73 537.56 46.522 537.3 46.25C537.044 45.974 536.844 45.634 536.7 45.23C536.556 44.826 536.484 44.362 536.484 43.838C536.484 43.414 536.548 43.018 536.676 42.65C536.808 42.282 536.996 41.964 537.24 41.696C537.484 41.424 537.782 41.212 538.134 41.06C538.486 40.904 538.882 40.826 539.322 40.826C539.686 40.826 540.022 40.888 540.33 41.012C540.642 41.132 540.91 41.308 541.134 41.54C541.362 41.768 541.54 42.052 541.668 42.392C541.796 42.728 541.86 43.112 541.86 43.544C541.86 43.712 541.842 43.824 541.806 43.88C541.77 43.936 541.702 43.964 541.602 43.964H537.54C537.552 44.348 537.604 44.682 537.696 44.966C537.792 45.25 537.924 45.488 538.092 45.68C538.26 45.868 538.46 46.01 538.692 46.106C538.924 46.198 539.184 46.244 539.472 46.244C539.74 46.244 539.97 46.214 540.162 46.154C540.358 46.09 540.526 46.022 540.666 45.95C540.806 45.878 540.922 45.812 541.014 45.752C541.11 45.688 541.192 45.656 541.26 45.656C541.348 45.656 541.416 45.69 541.464 45.758L541.764 46.148ZM544.18 41.804C544.312 41.656 544.452 41.522 544.6 41.402C544.748 41.282 544.904 41.18 545.068 41.096C545.236 41.008 545.412 40.942 545.596 40.898C545.784 40.85 545.986 40.826 546.202 40.826C546.534 40.826 546.826 40.882 547.078 40.994C547.334 41.102 547.546 41.258 547.714 41.462C547.886 41.662 548.016 41.904 548.104 42.188C548.192 42.472 548.236 42.786 548.236 43.13V47H547.162V43.13C547.162 42.67 547.056 42.314 546.844 42.062C546.636 41.806 546.318 41.678 545.89 41.678C545.574 41.678 545.278 41.754 545.002 41.906C544.73 42.058 544.478 42.264 544.246 42.524V47H543.172V40.922H543.814C543.966 40.922 544.06 40.996 544.096 41.144L544.18 41.804ZM551.648 47.096C551.168 47.096 550.798 46.962 550.538 46.694C550.282 46.426 550.154 46.04 550.154 45.536V41.816H549.422C549.358 41.816 549.304 41.798 549.26 41.762C549.216 41.722 549.194 41.662 549.194 41.582V41.156L550.19 41.03L550.436 39.152C550.448 39.092 550.474 39.044 550.514 39.008C550.558 38.968 550.614 38.948 550.682 38.948H551.222V41.042H552.98V41.816H551.222V45.464C551.222 45.72 551.284 45.91 551.408 46.034C551.532 46.158 551.692 46.22 551.888 46.22C552 46.22 552.096 46.206 552.176 46.178C552.26 46.146 552.332 46.112 552.392 46.076C552.452 46.04 552.502 46.008 552.542 45.98C552.586 45.948 552.624 45.932 552.656 45.932C552.712 45.932 552.762 45.966 552.806 46.034L553.118 46.544C552.934 46.716 552.712 46.852 552.452 46.952C552.192 47.048 551.924 47.096 551.648 47.096Z" fill="#9FAAB5"/>
<rect x="152.5" y="128.5" width="199" height="63" rx="15.5" stroke="#9FAAB5"/>
<path d="M233.495 148.536C233.431 148.648 233.362 148.731 233.287 148.784C233.218 148.832 233.13 148.856 233.023 148.856C232.911 148.856 232.788 148.816 232.655 148.736C232.527 148.651 232.372 148.557 232.191 148.456C232.01 148.355 231.796 148.264 231.551 148.184C231.311 148.099 231.026 148.056 230.695 148.056C230.396 148.056 230.135 148.093 229.911 148.168C229.687 148.237 229.498 148.336 229.343 148.464C229.194 148.592 229.082 148.747 229.007 148.928C228.932 149.104 228.895 149.299 228.895 149.512C228.895 149.784 228.97 150.011 229.119 150.192C229.274 150.373 229.476 150.528 229.727 150.656C229.978 150.784 230.263 150.899 230.583 151C230.903 151.101 231.231 151.211 231.567 151.328C231.903 151.44 232.231 151.573 232.551 151.728C232.871 151.877 233.156 152.069 233.407 152.304C233.658 152.533 233.858 152.816 234.007 153.152C234.162 153.488 234.239 153.896 234.239 154.376C234.239 154.899 234.148 155.389 233.967 155.848C233.791 156.301 233.53 156.699 233.183 157.04C232.842 157.376 232.423 157.643 231.927 157.84C231.431 158.032 230.863 158.128 230.223 158.128C229.855 158.128 229.492 158.091 229.135 158.016C228.778 157.947 228.434 157.845 228.103 157.712C227.778 157.579 227.471 157.419 227.183 157.232C226.895 157.045 226.639 156.837 226.415 156.608L227.047 155.576C227.1 155.501 227.17 155.44 227.255 155.392C227.34 155.339 227.431 155.312 227.527 155.312C227.66 155.312 227.804 155.368 227.959 155.48C228.114 155.587 228.298 155.707 228.511 155.84C228.724 155.973 228.972 156.096 229.255 156.208C229.543 156.315 229.887 156.368 230.287 156.368C230.9 156.368 231.375 156.224 231.711 155.936C232.047 155.643 232.215 155.224 232.215 154.68C232.215 154.376 232.138 154.128 231.983 153.936C231.834 153.744 231.634 153.584 231.383 153.456C231.132 153.323 230.847 153.211 230.527 153.12C230.207 153.029 229.882 152.931 229.551 152.824C229.22 152.717 228.895 152.589 228.575 152.44C228.255 152.291 227.97 152.096 227.719 151.856C227.468 151.616 227.266 151.317 227.111 150.96C226.962 150.597 226.887 150.152 226.887 149.624C226.887 149.203 226.97 148.792 227.135 148.392C227.306 147.992 227.551 147.637 227.871 147.328C228.191 147.019 228.586 146.771 229.055 146.584C229.524 146.397 230.063 146.304 230.671 146.304C231.354 146.304 231.983 146.411 232.559 146.624C233.135 146.837 233.626 147.136 234.031 147.52L233.495 148.536ZM241.061 152.952C241.061 152.696 241.024 152.456 240.949 152.232C240.88 152.003 240.773 151.803 240.629 151.632C240.485 151.461 240.301 151.328 240.077 151.232C239.858 151.131 239.602 151.08 239.309 151.08C238.738 151.08 238.288 151.243 237.957 151.568C237.632 151.893 237.424 152.355 237.333 152.952H241.061ZM237.293 154.144C237.325 154.565 237.4 154.931 237.517 155.24C237.634 155.544 237.789 155.797 237.981 156C238.173 156.197 238.4 156.347 238.661 156.448C238.928 156.544 239.221 156.592 239.541 156.592C239.861 156.592 240.136 156.555 240.365 156.48C240.6 156.405 240.802 156.323 240.973 156.232C241.149 156.141 241.301 156.059 241.429 155.984C241.562 155.909 241.69 155.872 241.813 155.872C241.978 155.872 242.101 155.933 242.181 156.056L242.749 156.776C242.53 157.032 242.285 157.248 242.013 157.424C241.741 157.595 241.456 157.733 241.157 157.84C240.864 157.941 240.562 158.013 240.253 158.056C239.949 158.099 239.653 158.12 239.365 158.12C238.794 158.12 238.264 158.027 237.773 157.84C237.282 157.648 236.856 157.368 236.493 157C236.13 156.627 235.845 156.168 235.637 155.624C235.429 155.075 235.325 154.44 235.325 153.72C235.325 153.16 235.416 152.635 235.597 152.144C235.778 151.648 236.037 151.219 236.373 150.856C236.714 150.488 237.128 150.197 237.613 149.984C238.104 149.771 238.656 149.664 239.269 149.664C239.786 149.664 240.264 149.747 240.701 149.912C241.138 150.077 241.514 150.32 241.829 150.64C242.144 150.955 242.389 151.344 242.565 151.808C242.746 152.267 242.837 152.792 242.837 153.384C242.837 153.683 242.805 153.885 242.741 153.992C242.677 154.093 242.554 154.144 242.373 154.144H237.293ZM246.184 151.216C246.44 150.725 246.744 150.341 247.096 150.064C247.448 149.781 247.864 149.64 248.344 149.64C248.722 149.64 249.026 149.723 249.256 149.888L249.128 151.368C249.101 151.464 249.061 151.533 249.008 151.576C248.96 151.613 248.893 151.632 248.808 151.632C248.728 151.632 248.608 151.619 248.448 151.592C248.293 151.565 248.141 151.552 247.992 151.552C247.773 151.552 247.578 151.584 247.408 151.648C247.237 151.712 247.082 151.805 246.944 151.928C246.81 152.045 246.69 152.189 246.584 152.36C246.482 152.531 246.386 152.725 246.296 152.944V158H244.32V149.792H245.48C245.682 149.792 245.824 149.829 245.904 149.904C245.984 149.973 246.037 150.101 246.064 150.288L246.184 151.216ZM257.689 149.792L254.433 158H252.641L249.385 149.792H251.017C251.166 149.792 251.289 149.827 251.385 149.896C251.486 149.965 251.553 150.053 251.585 150.16L253.169 154.544C253.254 154.8 253.329 155.051 253.393 155.296C253.457 155.541 253.513 155.787 253.561 156.032C253.614 155.787 253.673 155.541 253.737 155.296C253.801 155.051 253.878 154.8 253.969 154.544L255.585 150.16C255.622 150.053 255.689 149.965 255.785 149.896C255.881 149.827 255.995 149.792 256.129 149.792H257.689ZM260.79 149.792V158H258.806V149.792H260.79ZM261.062 147.4C261.062 147.571 261.027 147.731 260.958 147.88C260.888 148.029 260.795 148.16 260.678 148.272C260.566 148.384 260.432 148.475 260.278 148.544C260.123 148.608 259.958 148.64 259.782 148.64C259.611 148.64 259.448 148.608 259.294 148.544C259.144 148.475 259.014 148.384 258.902 148.272C258.79 148.16 258.699 148.029 258.63 147.88C258.566 147.731 258.534 147.571 258.534 147.4C258.534 147.224 258.566 147.059 258.63 146.904C258.699 146.749 258.79 146.616 258.902 146.504C259.014 146.392 259.144 146.304 259.294 146.24C259.448 146.171 259.611 146.136 259.782 146.136C259.958 146.136 260.123 146.171 260.278 146.24C260.432 146.304 260.566 146.392 260.678 146.504C260.795 146.616 260.888 146.749 260.958 146.904C261.027 147.059 261.062 147.224 261.062 147.4ZM268.684 151.528C268.625 151.603 268.567 151.661 268.508 151.704C268.455 151.747 268.375 151.768 268.268 151.768C268.167 151.768 268.068 151.739 267.972 151.68C267.876 151.616 267.761 151.547 267.628 151.472C267.495 151.392 267.335 151.323 267.148 151.264C266.967 151.2 266.74 151.168 266.468 151.168C266.121 151.168 265.817 151.232 265.556 151.36C265.295 151.483 265.076 151.661 264.9 151.896C264.729 152.131 264.601 152.416 264.516 152.752C264.431 153.083 264.388 153.459 264.388 153.88C264.388 154.317 264.433 154.707 264.524 155.048C264.62 155.389 264.756 155.677 264.932 155.912C265.108 156.141 265.321 156.317 265.572 156.44C265.823 156.557 266.105 156.616 266.42 156.616C266.735 156.616 266.988 156.579 267.18 156.504C267.377 156.424 267.543 156.339 267.676 156.248C267.809 156.152 267.924 156.067 268.02 155.992C268.121 155.912 268.233 155.872 268.356 155.872C268.516 155.872 268.636 155.933 268.716 156.056L269.284 156.776C269.065 157.032 268.828 157.248 268.572 157.424C268.316 157.595 268.049 157.733 267.772 157.84C267.5 157.941 267.217 158.013 266.924 158.056C266.636 158.099 266.348 158.12 266.06 158.12C265.553 158.12 265.076 158.027 264.628 157.84C264.18 157.648 263.788 157.371 263.452 157.008C263.116 156.645 262.849 156.203 262.652 155.68C262.46 155.152 262.364 154.552 262.364 153.88C262.364 153.277 262.449 152.72 262.62 152.208C262.796 151.691 263.052 151.245 263.388 150.872C263.724 150.493 264.14 150.197 264.636 149.984C265.132 149.771 265.703 149.664 266.348 149.664C266.961 149.664 267.497 149.763 267.956 149.96C268.42 150.157 268.836 150.44 269.204 150.808L268.684 151.528ZM275.67 152.952C275.67 152.696 275.633 152.456 275.558 152.232C275.489 152.003 275.382 151.803 275.238 151.632C275.094 151.461 274.91 151.328 274.686 151.232C274.468 151.131 274.212 151.08 273.918 151.08C273.348 151.08 272.897 151.243 272.566 151.568C272.241 151.893 272.033 152.355 271.942 152.952H275.67ZM271.902 154.144C271.934 154.565 272.009 154.931 272.126 155.24C272.244 155.544 272.398 155.797 272.59 156C272.782 156.197 273.009 156.347 273.27 156.448C273.537 156.544 273.83 156.592 274.15 156.592C274.47 156.592 274.745 156.555 274.974 156.48C275.209 156.405 275.412 156.323 275.582 156.232C275.758 156.141 275.91 156.059 276.038 155.984C276.172 155.909 276.3 155.872 276.422 155.872C276.588 155.872 276.71 155.933 276.79 156.056L277.358 156.776C277.14 157.032 276.894 157.248 276.622 157.424C276.35 157.595 276.065 157.733 275.766 157.84C275.473 157.941 275.172 158.013 274.862 158.056C274.558 158.099 274.262 158.12 273.974 158.12C273.404 158.12 272.873 158.027 272.382 157.84C271.892 157.648 271.465 157.368 271.102 157C270.74 156.627 270.454 156.168 270.246 155.624C270.038 155.075 269.934 154.44 269.934 153.72C269.934 153.16 270.025 152.635 270.206 152.144C270.388 151.648 270.646 151.219 270.982 150.856C271.324 150.488 271.737 150.197 272.222 149.984C272.713 149.771 273.265 149.664 273.878 149.664C274.396 149.664 274.873 149.747 275.31 149.912C275.748 150.077 276.124 150.32 276.438 150.64C276.753 150.955 276.998 151.344 277.174 151.808C277.356 152.267 277.446 152.792 277.446 153.384C277.446 153.683 277.414 153.885 277.35 153.992C277.286 154.093 277.164 154.144 276.982 154.144H271.902Z" fill="black"/>
<path d="M231.7 169.924C231.652 170.012 231.578 170.056 231.478 170.056C231.418 170.056 231.35 170.034 231.274 169.99C231.198 169.946 231.104 169.898 230.992 169.846C230.884 169.79 230.754 169.74 230.602 169.696C230.45 169.648 230.27 169.624 230.062 169.624C229.882 169.624 229.72 169.648 229.576 169.696C229.432 169.74 229.308 169.802 229.204 169.882C229.104 169.962 229.026 170.056 228.97 170.164C228.918 170.268 228.892 170.382 228.892 170.506C228.892 170.662 228.936 170.792 229.024 170.896C229.116 171 229.236 171.09 229.384 171.166C229.532 171.242 229.7 171.31 229.888 171.37C230.076 171.426 230.268 171.488 230.464 171.556C230.664 171.62 230.858 171.692 231.046 171.772C231.234 171.852 231.402 171.952 231.55 172.072C231.698 172.192 231.816 172.34 231.904 172.516C231.996 172.688 232.042 172.896 232.042 173.14C232.042 173.42 231.992 173.68 231.892 173.92C231.792 174.156 231.644 174.362 231.448 174.538C231.252 174.71 231.012 174.846 230.728 174.946C230.444 175.046 230.116 175.096 229.744 175.096C229.32 175.096 228.936 175.028 228.592 174.892C228.248 174.752 227.956 174.574 227.716 174.358L227.968 173.95C228 173.898 228.038 173.858 228.082 173.83C228.126 173.802 228.182 173.788 228.25 173.788C228.322 173.788 228.398 173.816 228.478 173.872C228.558 173.928 228.654 173.99 228.766 174.058C228.882 174.126 229.022 174.188 229.186 174.244C229.35 174.3 229.554 174.328 229.798 174.328C230.006 174.328 230.188 174.302 230.344 174.25C230.5 174.194 230.63 174.12 230.734 174.028C230.838 173.936 230.914 173.83 230.962 173.71C231.014 173.59 231.04 173.462 231.04 173.326C231.04 173.158 230.994 173.02 230.902 172.912C230.814 172.8 230.696 172.706 230.548 172.63C230.4 172.55 230.23 172.482 230.038 172.426C229.85 172.366 229.656 172.304 229.456 172.24C229.26 172.176 229.066 172.104 228.874 172.024C228.686 171.94 228.518 171.836 228.37 171.712C228.222 171.588 228.102 171.436 228.01 171.256C227.922 171.072 227.878 170.85 227.878 170.59C227.878 170.358 227.926 170.136 228.022 169.924C228.118 169.708 228.258 169.52 228.442 169.36C228.626 169.196 228.852 169.066 229.12 168.97C229.388 168.874 229.694 168.826 230.038 168.826C230.438 168.826 230.796 168.89 231.112 169.018C231.432 169.142 231.708 169.314 231.94 169.534L231.7 169.924ZM237.42 171.298C237.42 171.05 237.384 170.824 237.312 170.62C237.244 170.412 237.142 170.234 237.006 170.086C236.874 169.934 236.712 169.818 236.52 169.738C236.328 169.654 236.11 169.612 235.866 169.612C235.354 169.612 234.948 169.762 234.648 170.062C234.352 170.358 234.168 170.77 234.096 171.298H237.42ZM238.284 174.148C238.152 174.308 237.994 174.448 237.81 174.568C237.626 174.684 237.428 174.78 237.216 174.856C237.008 174.932 236.792 174.988 236.568 175.024C236.344 175.064 236.122 175.084 235.902 175.084C235.482 175.084 235.094 175.014 234.738 174.874C234.386 174.73 234.08 174.522 233.82 174.25C233.564 173.974 233.364 173.634 233.22 173.23C233.076 172.826 233.004 172.362 233.004 171.838C233.004 171.414 233.068 171.018 233.196 170.65C233.328 170.282 233.516 169.964 233.76 169.696C234.004 169.424 234.302 169.212 234.654 169.06C235.006 168.904 235.402 168.826 235.842 168.826C236.206 168.826 236.542 168.888 236.85 169.012C237.162 169.132 237.43 169.308 237.654 169.54C237.882 169.768 238.06 170.052 238.188 170.392C238.316 170.728 238.38 171.112 238.38 171.544C238.38 171.712 238.362 171.824 238.326 171.88C238.29 171.936 238.222 171.964 238.122 171.964H234.06C234.072 172.348 234.124 172.682 234.216 172.966C234.312 173.25 234.444 173.488 234.612 173.68C234.78 173.868 234.98 174.01 235.212 174.106C235.444 174.198 235.704 174.244 235.992 174.244C236.26 174.244 236.49 174.214 236.682 174.154C236.878 174.09 237.046 174.022 237.186 173.95C237.326 173.878 237.442 173.812 237.534 173.752C237.63 173.688 237.712 173.656 237.78 173.656C237.868 173.656 237.936 173.69 237.984 173.758L238.284 174.148ZM240.706 170.14C240.898 169.724 241.134 169.4 241.414 169.168C241.694 168.932 242.036 168.814 242.44 168.814C242.568 168.814 242.69 168.828 242.806 168.856C242.926 168.884 243.032 168.928 243.124 168.988L243.046 169.786C243.022 169.886 242.962 169.936 242.866 169.936C242.81 169.936 242.728 169.924 242.62 169.9C242.512 169.876 242.39 169.864 242.254 169.864C242.062 169.864 241.89 169.892 241.738 169.948C241.59 170.004 241.456 170.088 241.336 170.2C241.22 170.308 241.114 170.444 241.018 170.608C240.926 170.768 240.842 170.952 240.766 171.16V175H239.692V168.922H240.304C240.42 168.922 240.5 168.944 240.544 168.988C240.588 169.032 240.618 169.108 240.634 169.216L240.706 170.14ZM249.271 168.922L246.793 175H245.833L243.355 168.922H244.225C244.313 168.922 244.385 168.944 244.441 168.988C244.497 169.032 244.535 169.084 244.555 169.144L246.097 173.056C246.145 173.204 246.187 173.348 246.223 173.488C246.259 173.628 246.293 173.768 246.325 173.908C246.357 173.768 246.391 173.628 246.427 173.488C246.463 173.348 246.507 173.204 246.559 173.056L248.119 169.144C248.143 169.08 248.183 169.028 248.239 168.988C248.295 168.944 248.361 168.922 248.437 168.922H249.271ZM254.154 171.298C254.154 171.05 254.118 170.824 254.046 170.62C253.978 170.412 253.876 170.234 253.74 170.086C253.608 169.934 253.446 169.818 253.254 169.738C253.062 169.654 252.844 169.612 252.6 169.612C252.088 169.612 251.682 169.762 251.382 170.062C251.086 170.358 250.902 170.77 250.83 171.298H254.154ZM255.018 174.148C254.886 174.308 254.728 174.448 254.544 174.568C254.36 174.684 254.162 174.78 253.95 174.856C253.742 174.932 253.526 174.988 253.302 175.024C253.078 175.064 252.856 175.084 252.636 175.084C252.216 175.084 251.828 175.014 251.472 174.874C251.12 174.73 250.814 174.522 250.554 174.25C250.298 173.974 250.098 173.634 249.954 173.23C249.81 172.826 249.738 172.362 249.738 171.838C249.738 171.414 249.802 171.018 249.93 170.65C250.062 170.282 250.25 169.964 250.494 169.696C250.738 169.424 251.036 169.212 251.388 169.06C251.74 168.904 252.136 168.826 252.576 168.826C252.94 168.826 253.276 168.888 253.584 169.012C253.896 169.132 254.164 169.308 254.388 169.54C254.616 169.768 254.794 170.052 254.922 170.392C255.05 170.728 255.114 171.112 255.114 171.544C255.114 171.712 255.096 171.824 255.06 171.88C255.024 171.936 254.956 171.964 254.856 171.964H250.794C250.806 172.348 250.858 172.682 250.95 172.966C251.046 173.25 251.178 173.488 251.346 173.68C251.514 173.868 251.714 174.01 251.946 174.106C252.178 174.198 252.438 174.244 252.726 174.244C252.994 174.244 253.224 174.214 253.416 174.154C253.612 174.09 253.78 174.022 253.92 173.95C254.06 173.878 254.176 173.812 254.268 173.752C254.364 173.688 254.446 173.656 254.514 173.656C254.602 173.656 254.67 173.69 254.718 173.758L255.018 174.148ZM257.44 170.14C257.632 169.724 257.868 169.4 258.148 169.168C258.428 168.932 258.77 168.814 259.174 168.814C259.302 168.814 259.424 168.828 259.54 168.856C259.66 168.884 259.766 168.928 259.858 168.988L259.78 169.786C259.756 169.886 259.696 169.936 259.6 169.936C259.544 169.936 259.462 169.924 259.354 169.9C259.246 169.876 259.124 169.864 258.988 169.864C258.796 169.864 258.624 169.892 258.472 169.948C258.324 170.004 258.19 170.088 258.07 170.2C257.954 170.308 257.848 170.444 257.752 170.608C257.66 170.768 257.576 170.952 257.5 171.16V175H256.426V168.922H257.038C257.154 168.922 257.234 168.944 257.278 168.988C257.322 169.032 257.352 169.108 257.368 169.216L257.44 170.14ZM267.144 169.72H265.662L265.272 171.676H266.754L267.144 169.72ZM269.412 168.934L269.334 169.384C269.314 169.5 269.266 169.586 269.19 169.642C269.118 169.694 269.006 169.72 268.854 169.72H268.026L267.636 171.676H268.71C268.826 171.676 268.908 171.71 268.956 171.778C269.008 171.842 269.022 171.956 268.998 172.12L268.944 172.462H267.522L267.018 175H266.532C266.48 175 266.432 174.988 266.388 174.964C266.344 174.94 266.306 174.908 266.274 174.868C266.246 174.828 266.226 174.78 266.214 174.724C266.202 174.668 266.202 174.606 266.214 174.538L266.64 172.462H265.158L264.732 174.592C264.708 174.74 264.65 174.846 264.558 174.91C264.466 174.97 264.362 175 264.246 175H263.766L264.276 172.462H263.4C263.288 172.462 263.206 172.43 263.154 172.366C263.106 172.298 263.094 172.182 263.118 172.018L263.166 171.676H264.39L264.78 169.72H263.388L263.466 169.276C263.486 169.16 263.532 169.074 263.604 169.018C263.68 168.962 263.794 168.934 263.946 168.934H264.894L265.326 166.786C265.35 166.666 265.404 166.572 265.488 166.504C265.576 166.436 265.68 166.402 265.8 166.402H266.28L265.776 168.934H267.258L267.762 166.402H268.236C268.352 166.402 268.442 166.44 268.506 166.516C268.574 166.592 268.598 166.688 268.578 166.804L268.14 168.934H269.412ZM275.833 174.184V175H271.225V174.184H273.067V168.322C273.067 168.146 273.073 167.968 273.085 167.788L271.555 169.102C271.503 169.146 271.451 169.174 271.399 169.186C271.347 169.194 271.299 169.194 271.255 169.186C271.211 169.178 271.169 169.162 271.129 169.138C271.093 169.114 271.065 169.088 271.045 169.06L270.709 168.598L273.271 166.384H274.141V174.184H275.833Z" fill="#9FAAB5"/>
<path d="M515.646 256.354C515.842 256.549 516.158 256.549 516.354 256.354L519.536 253.172C519.731 252.976 519.731 252.66 519.536 252.464C519.34 252.269 519.024 252.269 518.828 252.464L516 255.293L513.172 252.464C512.976 252.269 512.66 252.269 512.464 252.464C512.269 252.66 512.269 252.976 512.464 253.172L515.646 256.354ZM515.5 192V256H516.5V192H515.5Z" fill="#9FAAB5"/>
<path d="M251.646 256.354C251.842 256.549 252.158 256.549 252.354 256.354L255.536 253.172C255.731 252.976 255.731 252.66 255.536 252.464C255.34 252.269 255.024 252.269 254.828 252.464L252 255.293L249.172 252.464C248.976 252.269 248.66 252.269 248.464 252.464C248.269 252.66 248.269 252.976 248.464 253.172L251.646 256.354ZM251.5 192V256H252.5V192H251.5Z" fill="#9FAAB5"/>
<path d="M516.354 63.6464C516.158 63.4512 515.842 63.4512 515.646 63.6464L512.464 66.8284C512.269 67.0237 512.269 67.3403 512.464 67.5355C512.66 67.7308 512.976 67.7308 513.172 67.5355L516 64.7071L518.828 67.5355C519.024 67.7308 519.34 67.7308 519.536 67.5355C519.731 67.3403 519.731 67.0237 519.536 66.8284L516.354 63.6464ZM516.5 128V64H515.5V128H516.5Z" fill="#9FAAB5"/>
<path d="M416.354 160.354C416.549 160.158 416.549 159.842 416.354 159.646L413.172 156.464C412.976 156.269 412.66 156.269 412.464 156.464C412.269 156.66 412.269 156.976 412.464 157.172L415.293 160L412.464 162.828C412.269 163.024 412.269 163.34 412.464 163.536C412.66 163.731 412.976 163.731 413.172 163.536L416.354 160.354ZM352 160.5H416V159.5H352V160.5Z" fill="#9FAAB5"/>
</svg>
